<svg xmlns="http://www.w3.org/2000/svg" width="1190.6015625" height="741.5574951171875" viewBox="-554.7682495117188 -275.5604248046875 1190.6015625 741.5574951171875"><title>Neo4j Graph Visualization</title><desc>Created using Neo4j (http://www.neo4j.com/)</desc><g class="layer relationships"><g class="relationship" transform="translate(529.29122271276 121.49652301661092) rotate(513.3009707521132)"><path class="outline" fill="#A5ABB6" stroke="none" d="M 25 0.5 L 41.21152880940207 0.5 L 41.21152880940207 -0.5 L 25 -0.5 Z M 88.10215380940207 0.5 L 104.31368261880414 0.5 L 104.31368261880414 3.5 L 111.31368261880414 0 L 104.31368261880414 -3.5 L 104.31368261880414 -0.5 L 88.10215380940207 -0.5 Z"/><text text-anchor="middle" pointer-events="none" font-size="8px" fill="#000000" x="64.65684130940207" y="3" transform="rotate(180 64.65684130940207 0)" font-family="sans-serif">DIRECTED</text></g><g class="relationship" transform="translate(314.2834049055381 289.10543569224603) rotate(311.234922926733)"><path class="outline" fill="#A5ABB6" stroke="none" d="M 25 0.5 L 44.43734683162194 0.5 L 44.43734683162194 -0.5 L 25 -0.5 Z M 89.99984683162194 0.5 L 109.43719366324387 0.5 L 109.43719366324387 3.5 L 116.43719366324387 0 L 109.43719366324387 -3.5 L 109.43719366324387 -0.5 L 89.99984683162194 -0.5 Z"/><text text-anchor="middle" pointer-events="none" font-size="8px" fill="#000000" x="67.21859683162194" y="3" font-family="sans-serif">ACTED_IN</text></g><g class="relationship" transform="translate(314.2834049055381 289.10543569224603) rotate(264.89453900388025)"><path class="outline" fill="#A5ABB6" stroke="none" d="M 25 0.5 L 39.14622284255623 0.5 L 39.14622284255623 -0.5 L 25 -0.5 Z M 84.70872284255623 0.5 L 98.85494568511245 0.5 L 98.85494568511245 3.5 L 105.85494568511245 0 L 98.85494568511245 -3.5 L 98.85494568511245 -0.5 L 84.70872284255623 -0.5 Z"/><text text-anchor="middle" pointer-events="none" font-size="8px" fill="#000000" x="61.92747284255623" y="3" transform="rotate(180 61.92747284255623 0)" font-family="sans-serif">ACTED_IN</text></g><g class="relationship" transform="translate(314.2834049055381 289.10543569224603) rotate(454.6463042865007)"><path class="outline" fill="#A5ABB6" stroke="none" d="M 25 0.5 L 44.83060334728151 0.5 L 44.83060334728151 -0.5 L 25 -0.5 Z M 90.39310334728151 0.5 L 110.22370669456302 0.5 L 110.22370669456302 3.5 L 117.22370669456302 0 L 110.22370669456302 -3.5 L 110.22370669456302 -0.5 L 90.39310334728151 -0.5 Z"/><text text-anchor="middle" pointer-events="none" font-size="8px" fill="#000000" x="67.61185334728151" y="3" transform="rotate(180 67.61185334728151 0)" font-family="sans-serif">ACTED_IN</text></g><g class="relationship" transform="translate(314.2834049055381 289.10543569224603) rotate(216.49872365483367)"><path class="outline" fill="#A5ABB6" stroke="none" d="M 25 0.5 L 71.01530648120844 0.5 L 71.01530648120844 -0.5 L 25 -0.5 Z M 116.57780648120844 0.5 L 162.59311296241688 0.5 L 162.59311296241688 3.5 L 169.59311296241688 0 L 162.59311296241688 -3.5 L 162.59311296241688 -0.5 L 116.57780648120844 -0.5 Z"/><text text-anchor="middle" pointer-events="none" font-size="8px" fill="#000000" x="93.79655648120844" y="3" transform="rotate(180 93.79655648120844 0)" font-family="sans-serif">ACTED_IN</text></g><g class="relationship" transform="translate(314.2834049055381 289.10543569224603) rotate(368.4237542664352)"><path class="outline" fill="#A5ABB6" stroke="none" d="M 25 0.5 L 59.86189691740134 0.5 L 59.86189691740134 -0.5 L 25 -0.5 Z M 105.42439691740134 0.5 L 140.28629383480268 0.5 L 140.28629383480268 3.5 L 147.28629383480268 0 L 140.28629383480268 -3.5 L 140.28629383480268 -0.5 L 105.42439691740134 -0.5 Z"/><text text-anchor="middle" pointer-events="none" font-size="8px" fill="#000000" x="82.64314691740134" y="3" font-family="sans-serif">ACTED_IN</text></g><g class="relationship" transform="translate(606.8333565566186 367.9778702111872) rotate(214.51803952996568)"><path class="outline" fill="#A5ABB6" stroke="none" d="M 24.018736134675446,6.953439040707552 L 24.277555179777966,5.987513214418485 A 617.3343518781453 617.3343518781453 0 0 0 163.21222498797798,26.670703377400628 L 163.17846173214997,27.670133236148104 A 618.3343518781453 618.3343518781453 0 0 1 24.018736134675446,6.953439040707552 Z M 198.9754332118806,27.842640298486685 L 198.9513038868242,26.842931453036044 A 617.3343518781453 617.3343518781453 0 0 0 338.07886248350667,7.499734484634855 L 337.3303697775376,4.594608210423851 L 344.98223924099386,6.237439216408874 L 339.0768527581321,11.373236183582861 L 338.328360052163,8.468109909371856 A 618.3343518781453 618.3343518781453 0 0 1 198.9754332118806,27.842640298486685"/><text text-anchor="middle" pointer-events="none" font-size="8px" fill="#000000" x="181.07810832839235" y="30.5154972520794" transform="rotate(180 181.07810832839235 27.5154972520794)" font-family="sans-serif">WROTE</text></g><g class="relationship" transform="translate(606.8333565566186 367.9778702111872) rotate(222.90211770444625)"><path class="outline" fill="#A5ABB6" stroke="none" d="M 25 0.5 L 109.1073078223377 0.5 L 109.1073078223377 -0.5 L 25 -0.5 Z M 155.9979328223377 0.5 L 240.1052406446754 0.5 L 240.1052406446754 3.5 L 247.1052406446754 0 L 240.1052406446754 -3.5 L 240.1052406446754 -0.5 L 155.9979328223377 -0.5 Z"/><text text-anchor="middle" pointer-events="none" font-size="8px" fill="#000000" x="132.5526203223377" y="3" transform="rotate(180 132.5526203223377 0)" font-family="sans-serif">DIRECTED</text></g><g class="relationship" transform="translate(606.8333565566186 367.9778702111872) rotate(214.51803952996568)"><path class="outline" fill="#A5ABB6" stroke="none" d="M 24.018736134675446,-6.953439040707552 L 24.277555179777966,-5.987513214418485 A 617.3343518781453 617.3343518781453 0 0 1 155.2213283526196,-26.34891949849498 L 155.17462090113642,-27.34782810991851 A 618.3343518781453 618.3343518781453 0 0 0 24.018736134675446,-6.953439040707552 Z M 206.98200863358386,-27.597490019731822 L 206.94493069036093,-26.598177643081613 A 617.3343518781453 617.3343518781453 0 0 1 338.07886248350667,-7.499734484634855 L 337.3303697775376,-4.594608210423851 L 344.98223924099386,-6.237439216408874 L 339.0768527581321,-11.373236183582861 L 338.328360052163,-8.468109909371856 A 618.3343518781453 618.3343518781453 0 0 0 206.98200863358386,-27.597490019731822"/><text text-anchor="middle" pointer-events="none" font-size="8px" fill="#000000" x="181.07810832839243" y="-24.5154972520794" transform="rotate(180 181.07810832839243 -27.5154972520794)" font-family="sans-serif">PRODUCED</text></g><g class="relationship" transform="translate(606.8333565566186 367.9778702111872) rotate(528.3155625162431)"><path class="outline" fill="#A5ABB6" stroke="none" d="M 25 0.5 L 128.3072055911978 0.5 L 128.3072055911978 -0.5 L 25 -0.5 Z M 175.1978305911978 0.5 L 278.5050361823956 0.5 L 278.5050361823956 3.5 L 285.5050361823956 0 L 278.5050361823956 -3.5 L 278.5050361823956 -0.5 L 175.1978305911978 -0.5 Z"/><text text-anchor="middle" pointer-events="none" font-size="8px" fill="#000000" x="151.7525180911978" y="3" transform="rotate(180 151.7525180911978 0)" font-family="sans-serif">DIRECTED</text></g><g class="relationship" transform="translate(606.8333565566186 367.9778702111872) rotate(203.43518548068033)"><path class="outline" fill="#A5ABB6" stroke="none" d="M 25 0.5 L 217.7262787570731 0.5 L 217.7262787570731 -0.5 L 25 -0.5 Z M 264.6169037570731 0.5 L 457.3431825141462 0.5 L 457.3431825141462 3.5 L 464.3431825141462 0 L 457.3431825141462 -3.5 L 457.3431825141462 -0.5 L 264.6169037570731 -0.5 Z"/><text text-anchor="middle" pointer-events="none" font-size="8px" fill="#000000" x="241.1715912570731" y="3" transform="rotate(180 241.1715912570731 0)" font-family="sans-serif">DIRECTED</text></g><g class="relationship" transform="translate(606.8333565566186 367.9778702111872) rotate(203.71011395589755)"><path class="outline" fill="#A5ABB6" stroke="none" d="M 25 0.5 L 39.74508383526003 0.5 L 39.74508383526003 -0.5 L 25 -0.5 Z M 86.63570883526003 0.5 L 101.38079267052007 0.5 L 101.38079267052007 3.5 L 108.38079267052007 0 L 101.38079267052007 -3.5 L 101.38079267052007 -0.5 L 86.63570883526003 -0.5 Z"/><text text-anchor="middle" pointer-events="none" font-size="8px" fill="#000000" x="63.19039633526003" y="3" transform="rotate(180 63.19039633526003 0)" font-family="sans-serif">DIRECTED</text></g><g class="relationship" transform="translate(35.8700579501035 427.4337317841249) rotate(314.79717502143194)"><path class="outline" fill="#A5ABB6" stroke="none" d="M 24.018736134675446,6.953439040707552 L 24.277555179777966,5.987513214418485 A 635.5821655771427 635.5821655771427 0 0 0 167.92139675466095,27.302143210291547 L 167.88858128447694,28.301604637719606 A 636.5821655771427 636.5821655771427 0 0 1 24.018736134675446,6.953439040707552 Z M 203.68502522803837,28.46989297454411 L 203.66160845377817,27.47016718479813 A 635.5821655771427 635.5821655771427 0 0 0 347.49950732708277,7.507063168536889 L 346.75033031316684,4.602113289137935 L 354.40258654799965,6.243141782632858 L 348.498410012304,11.380329674402162 L 347.7492329983881,8.475379795003207 A 636.5821655771427 636.5821655771427 0 0 1 203.68502522803837,28.46989297454411"/><text text-anchor="middle" pointer-events="none" font-size="8px" fill="#000000" x="185.78797070872778" y="31.13742115792661" font-family="sans-serif">WROTE</text></g><g class="relationship" transform="translate(35.8700579501035 427.4337317841249) rotate(314.79717502143194)"><path class="outline" fill="#A5ABB6" stroke="none" d="M 24.018736134675446,-6.953439040707552 L 24.277555179777966,-5.987513214418485 A 635.5821655771427 635.5821655771427 0 0 1 159.929951473629,-26.98941488983985 L 159.88456257751542,-27.988384282819197 A 636.5821655771427 636.5821655771427 0 0 0 24.018736134675446,-6.953439040707552 Z M 211.6916351305024,-28.231942723692214 L 211.65564085983178,-27.232590727407114 A 635.5821655771427 635.5821655771427 0 0 1 347.49950732708277,-7.507063168536889 L 346.75033031316684,-4.602113289137935 L 354.40258654799965,-6.243141782632858 L 348.498410012304,-11.380329674402162 L 347.7492329983881,-8.475379795003207 A 636.5821655771427 636.5821655771427 0 0 0 211.6916351305024,-28.231942723692214"/><text text-anchor="middle" pointer-events="none" font-size="8px" fill="#000000" x="185.78797070872784" y="-25.13742115792661" font-family="sans-serif">PRODUCED</text></g><g class="relationship" transform="translate(35.8700579501035 427.4337317841249) rotate(326.6388500502298)"><path class="outline" fill="#A5ABB6" stroke="none" d="M 25 0.5 L 195.5355721248887 0.5 L 195.5355721248887 -0.5 L 25 -0.5 Z M 242.4261971248887 0.5 L 412.9617692497774 0.5 L 412.9617692497774 3.5 L 419.9617692497774 0 L 412.9617692497774 -3.5 L 412.9617692497774 -0.5 L 242.4261971248887 -0.5 Z"/><text text-anchor="middle" pointer-events="none" font-size="8px" fill="#000000" x="218.9808846248887" y="3" font-family="sans-serif">DIRECTED</text></g><g class="relationship" transform="translate(35.8700579501035 427.4337317841249) rotate(360.7358789673967)"><path class="outline" fill="#A5ABB6" stroke="none" d="M 25 0.5 L 106.51199102749183 0.5 L 106.51199102749183 -0.5 L 25 -0.5 Z M 153.40261602749183 0.5 L 234.91460705498366 0.5 L 234.91460705498366 3.5 L 241.91460705498366 0 L 234.91460705498366 -3.5 L 234.91460705498366 -0.5 L 153.40261602749183 -0.5 Z"/><text text-anchor="middle" pointer-events="none" font-size="8px" fill="#000000" x="129.95730352749183" y="3" font-family="sans-serif">DIRECTED</text></g><g class="relationship" transform="translate(35.8700579501035 427.4337317841249) rotate(295.64661572360535)"><path class="outline" fill="#A5ABB6" stroke="none" d="M 25 0.5 L 113.9746393853394 0.5 L 113.9746393853394 -0.5 L 25 -0.5 Z M 160.8652643853394 0.5 L 249.8399037706788 0.5 L 249.8399037706788 3.5 L 256.8399037706788 0 L 249.8399037706788 -3.5 L 249.8399037706788 -0.5 L 160.8652643853394 -0.5 Z"/><text text-anchor="middle" pointer-events="none" font-size="8px" fill="#000000" x="137.4199518853394" y="3" font-family="sans-serif">DIRECTED</text></g><g class="relationship" transform="translate(35.8700579501035 427.4337317841249) rotate(345.8581638432129)"><path class="outline" fill="#A5ABB6" stroke="none" d="M 25 0.5 L 204.48904715305457 0.5 L 204.48904715305457 -0.5 L 25 -0.5 Z M 251.37967215305457 0.5 L 430.86871930610914 0.5 L 430.86871930610914 3.5 L 437.86871930610914 0 L 430.86871930610914 -3.5 L 430.86871930610914 -0.5 L 251.37967215305457 -0.5 Z"/><text text-anchor="middle" pointer-events="none" font-size="8px" fill="#000000" x="227.93435965305457" y="3" font-family="sans-serif">DIRECTED</text></g><g class="relationship" transform="translate(196.28910192380778 95.92829654976651) rotate(390.57858416823075)"><path class="outline" fill="#A5ABB6" stroke="none" d="M 25 0.5 L 34.81891099991666 0.5 L 34.81891099991666 -0.5 L 25 -0.5 Z M 81.70953599991665 0.5 L 91.52844699983332 0.5 L 91.52844699983332 3.5 L 98.52844699983332 0 L 91.52844699983332 -3.5 L 91.52844699983332 -0.5 L 81.70953599991665 -0.5 Z"/><text text-anchor="middle" pointer-events="none" font-size="8px" fill="#000000" x="58.26422349991666" y="3" font-family="sans-serif">DIRECTED</text></g><g class="relationship" transform="translate(178.93745986418807 -130.66984544051684) rotate(333.1884119931759)"><path class="outline" fill="#A5ABB6" stroke="none" d="M 24.018736134675446,-6.953439040707552 L 24.277555179777966,-5.987513214418485 A 93.66189346586947 93.66189346586947 0 0 1 29.290302640771742,-7.183892321824246 L 29.085003199805993,-8.162591529721723 A 94.66189346586947 94.66189346586947 0 0 0 24.018736134675446,-6.953439040707552 Z M 64.82745352034115,-8.763570643005366 L 64.65517282835273,-7.778522744084711 A 93.66189346586947 93.66189346586947 0 0 1 69.70530756175057,-6.7513425014470245 L 69.02670915522692,-3.829099492615698 L 76.63697431677761,-5.654986721030399 L 70.61010543711545,-10.647666513222127 L 69.9315070305918,-7.7254235043907995 A 94.66189346586947 94.66189346586947 0 0 0 64.82745352034115,-8.763570643005366"/><text text-anchor="middle" pointer-events="none" font-size="8px" fill="#000000" x="46.936008059527474" y="-6.665657135614495" font-family="sans-serif">WROTE</text></g><g class="relationship" transform="translate(178.93745986418807 -130.66984544051684) rotate(192.80041575671976)"><path class="outline" fill="#A5ABB6" stroke="none" d="M 25 0.5 L 31.089647338697283 0.5 L 31.089647338697283 -0.5 L 25 -0.5 Z M 77.98027233869729 0.5 L 84.06991967739457 0.5 L 84.06991967739457 3.5 L 91.06991967739457 0 L 84.06991967739457 -3.5 L 84.06991967739457 -0.5 L 77.98027233869729 -0.5 Z"/><text text-anchor="middle" pointer-events="none" font-size="8px" fill="#000000" x="54.53495983869728" y="3" transform="rotate(180 54.53495983869728 0)" font-family="sans-serif">DIRECTED</text></g><g class="relationship" transform="translate(178.93745986418807 -130.66984544051684) rotate(522.7884808062015)"><path class="outline" fill="#A5ABB6" stroke="none" d="M 25 0.5 L 25.319844304531806 0.5 L 25.319844304531806 -0.5 L 25 -0.5 Z M 53.097188054531806 0.5 L 53.41703235906361 0.5 L 53.41703235906361 3.5 L 60.41703235906361 0 L 53.41703235906361 -3.5 L 53.41703235906361 -0.5 L 53.097188054531806 -0.5 Z"/><text text-anchor="middle" pointer-events="none" font-size="8px" fill="#000000" x="39.208516179531806" y="3" transform="rotate(180 39.208516179531806 0)" font-family="sans-serif">DIR…</text></g><g class="relationship" transform="translate(178.93745986418807 -130.66984544051684) rotate(301.6520029423066)"><path class="outline" fill="#A5ABB6" stroke="none" d="M 25 0.5 L 40.333614274010515 0.5 L 40.333614274010515 -0.5 L 25 -0.5 Z M 87.22423927401051 0.5 L 102.55785354802103 0.5 L 102.55785354802103 3.5 L 109.55785354802103 0 L 102.55785354802103 -3.5 L 102.55785354802103 -0.5 L 87.22423927401051 -0.5 Z"/><text text-anchor="middle" pointer-events="none" font-size="8px" fill="#000000" x="63.778926774010515" y="3" font-family="sans-serif">DIRECTED</text></g><g class="relationship" transform="translate(178.93745986418807 -130.66984544051684) rotate(333.1884119931759)"><path class="outline" fill="#A5ABB6" stroke="none" d="M 24.018736134675446,6.953439040707552 L 24.277555179777966,5.987513214418485 A 93.66189346586947 93.66189346586947 0 0 0 25.840558148290995,6.391913242604431 L 25.598426818017586,7.362156726942274 A 94.66189346586947 94.66189346586947 0 0 1 24.018736134675446,6.953439040707552 Z M 68.3389687012154,8.080802839110717 L 68.12959266861732,7.102967639819198 A 93.66189346586947 93.66189346586947 0 0 0 69.70530756175057,6.7513425014470245 L 69.02670915522692,3.829099492615698 L 76.63697431677761,5.654986721030399 L 70.61010543711545,10.647666513222127 L 69.9315070305918,7.7254235043907995 A 94.66189346586947 94.66189346586947 0 0 1 68.3389687012154,8.080802839110717"/><text text-anchor="middle" pointer-events="none" font-size="8px" fill="#000000" x="46.936008059527495" y="12.665657135614495" font-family="sans-serif">PRODU…</text></g><g class="relationship" transform="translate(178.93745986418807 -130.66984544051684) rotate(215.10304812645592)"><path class="outline" fill="#A5ABB6" stroke="none" d="M 25 0.5 L 47.25597835473141 0.5 L 47.25597835473141 -0.5 L 25 -0.5 Z M 94.14660335473141 0.5 L 116.40258170946282 0.5 L 116.40258170946282 3.5 L 123.40258170946282 0 L 116.40258170946282 -3.5 L 116.40258170946282 -0.5 L 94.14660335473141 -0.5 Z"/><text text-anchor="middle" pointer-events="none" font-size="8px" fill="#000000" x="70.70129085473141" y="3" transform="rotate(180 70.70129085473141 0)" font-family="sans-serif">DIRECTED</text></g><g class="relationship" transform="translate(164.4365324618299 -188.8798349611278) rotate(326.5006772103767)"><path class="outline" fill="#A5ABB6" stroke="none" d="M 25 0.5 L 26.97592795315282 0.5 L 26.97592795315282 -0.5 L 25 -0.5 Z M 68.08920920315282 0.5 L 70.06513715630564 0.5 L 70.06513715630564 3.5 L 77.06513715630564 0 L 70.06513715630564 -3.5 L 70.06513715630564 -0.5 L 68.08920920315282 -0.5 Z"/><text text-anchor="middle" pointer-events="none" font-size="8px" fill="#000000" x="47.53256857815282" y="3" font-family="sans-serif">ACTED…</text></g><g class="relationship" transform="translate(164.4365324618299 -188.8798349611278) rotate(194.23843834814124)"><path class="outline" fill="#A5ABB6" stroke="none" d="M 25 0.5 L 28.867933506865405 0.5 L 28.867933506865405 -0.5 L 25 -0.5 Z M 74.4304335068654 0.5 L 78.29836701373081 0.5 L 78.29836701373081 3.5 L 85.29836701373081 0 L 78.29836701373081 -3.5 L 78.29836701373081 -0.5 L 74.4304335068654 -0.5 Z"/><text text-anchor="middle" pointer-events="none" font-size="8px" fill="#000000" x="51.649183506865405" y="3" transform="rotate(180 51.649183506865405 0)" font-family="sans-serif">ACTED_IN</text></g><g class="relationship" transform="translate(164.4365324618299 -188.8798349611278) rotate(521.7747100153965)"><path class="outline" fill="#A5ABB6" stroke="none" d="M 25 0.5 L 25.666976327450392 0.5 L 25.666976327450392 -0.5 L 25 -0.5 Z M 71.22947632745039 0.5 L 71.89645265490078 0.5 L 71.89645265490078 3.5 L 78.89645265490078 0 L 71.89645265490078 -3.5 L 71.89645265490078 -0.5 L 71.22947632745039 -0.5 Z"/><text text-anchor="middle" pointer-events="none" font-size="8px" fill="#000000" x="48.44822632745039" y="3" transform="rotate(180 48.44822632745039 0)" font-family="sans-serif">ACTED_IN</text></g><g class="relationship" transform="translate(164.4365324618299 -188.8798349611278) rotate(366.89789286047744)"><path class="outline" fill="#A5ABB6" stroke="none" d="M 25 0.5 L 26.41672315525352 0.5 L 26.41672315525352 -0.5 L 25 -0.5 Z M 71.97922315525352 0.5 L 73.39594631050704 0.5 L 73.39594631050704 3.5 L 80.39594631050704 0 L 73.39594631050704 -3.5 L 73.39594631050704 -0.5 L 71.97922315525352 -0.5 Z"/><text text-anchor="middle" pointer-events="none" font-size="8px" fill="#000000" x="49.19797315525352" y="3" font-family="sans-serif">ACTED_IN</text></g><g class="relationship" transform="translate(164.4365324618299 -188.8798349611278) rotate(488.7864311250345)"><path class="outline" fill="#A5ABB6" stroke="none" d="M 25 0.5 L 27.269976048624187 0.5 L 27.269976048624187 -0.5 L 25 -0.5 Z M 72.83247604862419 0.5 L 75.10245209724837 0.5 L 75.10245209724837 3.5 L 82.10245209724837 0 L 75.10245209724837 -3.5 L 75.10245209724837 -0.5 L 72.83247604862419 -0.5 Z"/><text text-anchor="middle" pointer-events="none" font-size="8px" fill="#000000" x="50.05122604862419" y="3" transform="rotate(180 50.05122604862419 0)" font-family="sans-serif">ACTED_IN</text></g><g class="relationship" transform="translate(148.00856547390535 -246.56040206882875) rotate(492.37077199207687)"><path class="outline" fill="#A5ABB6" stroke="none" d="M 25 0.5 L 34.082512236369084 0.5 L 34.082512236369084 -0.5 L 25 -0.5 Z M 80.97313723636908 0.5 L 90.05564947273817 0.5 L 90.05564947273817 3.5 L 97.05564947273817 0 L 90.05564947273817 -3.5 L 90.05564947273817 -0.5 L 80.97313723636908 -0.5 Z"/><text text-anchor="middle" pointer-events="none" font-size="8px" fill="#000000" x="57.527824736369084" y="3" transform="rotate(180 57.527824736369084 0)" font-family="sans-serif">DIRECTED</text></g><g class="relationship" transform="translate(148.00856547390535 -246.56040206882875) rotate(390.1573645267158)"><path class="outline" fill="#A5ABB6" stroke="none" d="M 24.018736134675446,-6.953439040707552 L 24.277555179777966,-5.987513214418485 A 171.17541372398273 171.17541372398273 0 0 1 40.77669291312747,-9.546927478281845 L 40.614261178412605,-10.533647261988193 A 172.17541372398273 172.17541372398273 0 0 0 24.018736134675446,-6.953439040707552 Z M 92.34574739772921,-11.172208083872931 L 92.20772109897452,-10.181779519638212 A 171.17541372398273 171.17541372398273 0 0 1 108.78969139945758,-7.030710367790091 L 108.08499885828262,-4.114649939333168 L 115.71128115605289,-5.872437843124674 L 109.72928145435752,-10.918790939065989 L 109.02458891318255,-8.002730510609066 A 172.17541372398273 172.17541372398273 0 0 0 92.34574739772921,-11.172208083872931"/><text text-anchor="middle" pointer-events="none" font-size="8px" fill="#000000" x="66.46205438293042" y="-9.307096545477975" font-family="sans-serif">PRODUCED</text></g><g class="relationship" transform="translate(148.00856547390535 -246.56040206882875) rotate(390.1573645267158)"><path class="outline" fill="#A5ABB6" stroke="none" d="M 24.018736134675446,6.953439040707552 L 24.277555179777966,5.987513214418485 A 171.17541372398273 171.17541372398273 0 0 0 48.67866434955086,10.659226743778362 L 48.56239561958366,11.652444535821871 A 172.17541372398273 172.17541372398273 0 0 1 24.018736134675446,6.953439040707552 Z M 84.37241856268929,12.094474706486523 L 84.28070159848232,11.098689589869167 A 171.17541372398273 171.17541372398273 0 0 0 108.78969139945758,7.030710367790091 L 108.08499885828262,4.114649939333168 L 115.71128115605289,5.872437843124674 L 109.72928145435752,10.918790939065989 L 109.02458891318255,8.002730510609066 A 172.17541372398273 172.17541372398273 0 0 1 84.37241856268929,12.094474706486523"/><text text-anchor="middle" pointer-events="none" font-size="8px" fill="#000000" x="66.46205438293045" y="15.307096545477975" font-family="sans-serif">WROTE</text></g><g class="relationship" transform="translate(148.00856547390535 -246.56040206882875) rotate(521.3424312689345)"><path class="outline" fill="#A5ABB6" stroke="none" d="M 25 0.5 L 27.693815504874912 0.5 L 27.693815504874912 -0.5 L 25 -0.5 Z M 60.80709675487491 0.5 L 63.500912259749825 0.5 L 63.500912259749825 3.5 L 70.50091225974982 0 L 63.500912259749825 -3.5 L 63.500912259749825 -0.5 L 60.80709675487491 -0.5 Z"/><text text-anchor="middle" pointer-events="none" font-size="8px" fill="#000000" x="44.25045612987491" y="3" transform="rotate(180 44.25045612987491 0)" font-family="sans-serif">DIRE…</text></g><g class="relationship" transform="translate(148.00856547390535 -246.56040206882875) rotate(469.7426248632158)"><path class="outline" fill="#A5ABB6" stroke="none" d="M 25 0.5 L 48.04541201849335 0.5 L 48.04541201849335 -0.5 L 25 -0.5 Z M 94.93603701849335 0.5 L 117.9814490369867 0.5 L 117.9814490369867 3.5 L 124.9814490369867 0 L 117.9814490369867 -3.5 L 117.9814490369867 -0.5 L 94.93603701849335 -0.5 Z"/><text text-anchor="middle" pointer-events="none" font-size="8px" fill="#000000" x="71.49072451849335" y="3" transform="rotate(180 71.49072451849335 0)" font-family="sans-serif">DIRECTED</text></g><g class="relationship" transform="translate(148.00856547390535 -246.56040206882875) rotate(360.7606215196)"><path class="outline" fill="#A5ABB6" stroke="none" d="M 25 0.5 L 25.385453956609503 0.5 L 25.385453956609503 -0.5 L 25 -0.5 Z M 69.1627977066095 0.5 L 69.548251663219 0.5 L 69.548251663219 3.5 L 76.548251663219 0 L 69.548251663219 -3.5 L 69.548251663219 -0.5 L 69.1627977066095 -0.5 Z"/><text text-anchor="middle" pointer-events="none" font-size="8px" fill="#000000" x="47.2741258316095" y="3" font-family="sans-serif">DIRECT…</text></g><g class="relationship" transform="translate(-61.55312829650567 -233.92504637000525) rotate(368.5564277937394)"><path class="outline" fill="#A5ABB6" stroke="none" d="M 25 0.5 L 33.26463428739306 0.5 L 33.26463428739306 -0.5 L 25 -0.5 Z M 80.15525928739305 0.5 L 88.41989357478612 0.5 L 88.41989357478612 3.5 L 95.41989357478612 0 L 88.41989357478612 -3.5 L 88.41989357478612 -0.5 L 80.15525928739305 -0.5 Z"/><text text-anchor="middle" pointer-events="none" font-size="8px" fill="#000000" x="56.70994678739306" y="3" font-family="sans-serif">DIRECTED</text></g><g class="relationship" transform="translate(382.9353546890456 -140.71757061944356) rotate(197.3178607923237)"><path class="outline" fill="#A5ABB6" stroke="none" d="M 25 0.5 L 32.690996069240846 0.5 L 32.690996069240846 -0.5 L 25 -0.5 Z M 79.58162106924084 0.5 L 87.27261713848169 0.5 L 87.27261713848169 3.5 L 94.27261713848169 0 L 87.27261713848169 -3.5 L 87.27261713848169 -0.5 L 79.58162106924084 -0.5 Z"/><text text-anchor="middle" pointer-events="none" font-size="8px" fill="#000000" x="56.136308569240846" y="3" transform="rotate(180 56.136308569240846 0)" font-family="sans-serif">DIRECTED</text></g><g class="relationship" transform="translate(-525.7682243004342 229.87797175992438) rotate(365.56082255268984)"><path class="outline" fill="#A5ABB6" stroke="none" d="M 24.018736134675446,-6.953439040707552 L 24.277555179777966,-5.987513214418485 A 507.4046521646714 507.4046521646714 0 0 1 134.86069913129225,-22.852743570615928 L 134.8198188525762,-23.85190762261749 A 508.4046521646714 508.4046521646714 0 0 0 24.018736134675446,-6.953439040707552 Z M 170.62049526268473,-24.05507819832866 L 170.5909578608039,-23.05551452257299 A 507.4046521646714 507.4046521646714 0 0 1 281.358394957788,-7.446459453972406 L 280.61487683066196,-4.540056041740206 L 288.2639226075175,-6.195984392716999 L 282.34975246062277,-11.32166400361534 L 281.60623433349673,-8.41526059138314 A 508.4046521646714 508.4046521646714 0 0 0 170.62049526268473,-24.05507819832866"/><text text-anchor="middle" pointer-events="none" font-size="8px" fill="#000000" x="152.72120560270483" y="-20.768728838326638" font-family="sans-serif">WROTE</text></g><g class="relationship" transform="translate(-525.7682243004342 229.87797175992438) rotate(346.81014252698435)"><path class="outline" fill="#A5ABB6" stroke="none" d="M 25 0.5 L 121.52224213129679 0.5 L 121.52224213129679 -0.5 L 25 -0.5 Z M 168.4128671312968 0.5 L 264.9351092625936 0.5 L 264.9351092625936 3.5 L 271.9351092625936 0 L 264.9351092625936 -3.5 L 264.9351092625936 -0.5 L 168.4128671312968 -0.5 Z"/><text text-anchor="middle" pointer-events="none" font-size="8px" fill="#000000" x="144.9675546312968" y="3" font-family="sans-serif">DIRECTED</text></g><g class="relationship" transform="translate(-525.7682243004342 229.87797175992438) rotate(324.1581123100898)"><path class="outline" fill="#A5ABB6" stroke="none" d="M 25 0.5 L 59.03705638061746 0.5 L 59.03705638061746 -0.5 L 25 -0.5 Z M 105.92768138061746 0.5 L 139.96473776123491 0.5 L 139.96473776123491 3.5 L 146.96473776123491 0 L 139.96473776123491 -3.5 L 139.96473776123491 -0.5 L 105.92768138061746 -0.5 Z"/><text text-anchor="middle" pointer-events="none" font-size="8px" fill="#000000" x="82.48236888061746" y="3" font-family="sans-serif">DIRECTED</text></g><g class="relationship" transform="translate(-525.7682243004342 229.87797175992438) rotate(421.2229786181705)"><path class="outline" fill="#A5ABB6" stroke="none" d="M 25 0.5 L 45.53067066964593 0.5 L 45.53067066964593 -0.5 L 25 -0.5 Z M 92.42129566964593 0.5 L 112.95196633929186 0.5 L 112.95196633929186 3.5 L 119.95196633929186 0 L 112.95196633929186 -3.5 L 112.95196633929186 -0.5 L 92.42129566964593 -0.5 Z"/><text text-anchor="middle" pointer-events="none" font-size="8px" fill="#000000" x="68.97598316964593" y="3" font-family="sans-serif">DIRECTED</text></g><g class="relationship" transform="translate(-525.7682243004342 229.87797175992438) rotate(396.78272892745633)"><path class="outline" fill="#A5ABB6" stroke="none" d="M 25 0.5 L 146.00498839726527 0.5 L 146.00498839726527 -0.5 L 25 -0.5 Z M 192.89561339726527 0.5 L 313.90060179453053 0.5 L 313.90060179453053 3.5 L 320.90060179453053 0 L 313.90060179453053 -3.5 L 313.90060179453053 -0.5 L 192.89561339726527 -0.5 Z"/><text text-anchor="middle" pointer-events="none" font-size="8px" fill="#000000" x="169.45030089726527" y="3" font-family="sans-serif">DIRECTED</text></g><g class="relationship" transform="translate(-525.7682243004342 229.87797175992438) rotate(365.56082255268984)"><path class="outline" fill="#A5ABB6" stroke="none" d="M 24.018736134675446,6.953439040707552 L 24.277555179777966,5.987513214418485 A 507.4046521646714 507.4046521646714 0 0 0 126.87426269640906,22.462927851675715 L 126.81764263998143,23.461323649548547 A 508.4046521646714 508.4046521646714 0 0 1 24.018736134675446,6.953439040707552 Z M 178.62658907611984,23.755341934394266 L 178.5813041908528,22.756367821032825 A 507.4046521646714 507.4046521646714 0 0 0 281.358394957788,7.446459453972406 L 280.61487683066196,4.540056041740206 L 288.2639226075175,6.195984392716999 L 282.34975246062277,11.32166400361534 L 281.60623433349673,8.41526059138314 A 508.4046521646714 508.4046521646714 0 0 1 178.62658907611984,23.755341934394266"/><text text-anchor="middle" pointer-events="none" font-size="8px" fill="#000000" x="152.721205602705" y="26.768728838326638" font-family="sans-serif">PRODUCED</text></g><g class="relationship" transform="translate(-321.0590287281181 234.21490831580797) rotate(319.4948597315374)"><path class="outline" fill="#A5ABB6" stroke="none" d="M 25 0.5 L 29.214782284039146 0.5 L 29.214782284039146 -0.5 L 25 -0.5 Z M 74.77728228403915 0.5 L 78.99206456807829 0.5 L 78.99206456807829 3.5 L 85.99206456807829 0 L 78.99206456807829 -3.5 L 78.99206456807829 -0.5 L 74.77728228403915 -0.5 Z"/><text text-anchor="middle" pointer-events="none" font-size="8px" fill="#000000" x="51.996032284039146" y="3" font-family="sans-serif">ACTED_IN</text></g><g class="relationship" transform="translate(-321.0590287281181 234.21490831580797) rotate(430.37010951693657)"><path class="outline" fill="#A5ABB6" stroke="none" d="M 25 0.5 L 81.36605479548632 0.5 L 81.36605479548632 -0.5 L 25 -0.5 Z M 126.92855479548632 0.5 L 183.29460959097264 0.5 L 183.29460959097264 3.5 L 190.29460959097264 0 L 183.29460959097264 -3.5 L 183.29460959097264 -0.5 L 126.92855479548632 -0.5 Z"/><text text-anchor="middle" pointer-events="none" font-size="8px" fill="#000000" x="104.14730479548632" y="3" font-family="sans-serif">ACTED_IN</text></g><g class="relationship" transform="translate(-321.0590287281181 234.21490831580797) rotate(373.7149223599631)"><path class="outline" fill="#A5ABB6" stroke="none" d="M 25 0.5 L 28.430819274371622 0.5 L 28.430819274371622 -0.5 L 25 -0.5 Z M 73.99331927437163 0.5 L 77.42413854874324 0.5 L 77.42413854874324 3.5 L 84.42413854874324 0 L 77.42413854874324 -3.5 L 77.42413854874324 -0.5 L 73.99331927437163 -0.5 Z"/><text text-anchor="middle" pointer-events="none" font-size="8px" fill="#000000" x="51.21206927437162" y="3" font-family="sans-serif">ACTED_IN</text></g><g class="relationship" transform="translate(-321.0590287281181 234.21490831580797) rotate(497.7145241722699)"><path class="outline" fill="#A5ABB6" stroke="none" d="M 25 0.5 L 64.91143434375701 0.5 L 64.91143434375701 -0.5 L 25 -0.5 Z M 110.47393434375701 0.5 L 150.38536868751402 0.5 L 150.38536868751402 3.5 L 157.38536868751402 0 L 150.38536868751402 -3.5 L 150.38536868751402 -0.5 L 110.47393434375701 -0.5 Z"/><text text-anchor="middle" pointer-events="none" font-size="8px" fill="#000000" x="87.69268434375701" y="3" transform="rotate(180 87.69268434375701 0)" font-family="sans-serif">ACTED_IN</text></g><g class="relationship" transform="translate(-321.0590287281181 234.21490831580797) rotate(238.12659614800805)"><path class="outline" fill="#A5ABB6" stroke="none" d="M 25 0.5 L 35.558646545741595 0.5 L 35.558646545741595 -0.5 L 25 -0.5 Z M 81.1211465457416 0.5 L 91.67979309148319 0.5 L 91.67979309148319 3.5 L 98.67979309148319 0 L 91.67979309148319 -3.5 L 91.67979309148319 -0.5 L 81.1211465457416 -0.5 Z"/><text text-anchor="middle" pointer-events="none" font-size="8px" fill="#000000" x="58.339896545741595" y="3" transform="rotate(180 58.339896545741595 0)" font-family="sans-serif">ACTED_IN</text></g><g class="relationship" transform="translate(-84.15690357628017 86.08595865911312) rotate(475.12632149551837)"><path class="outline" fill="#A5ABB6" stroke="none" d="M 25 0.5 L 166.84819363357283 0.5 L 166.84819363357283 -0.5 L 25 -0.5 Z M 213.73881863357283 0.5 L 355.58701226714567 0.5 L 355.58701226714567 3.5 L 362.58701226714567 0 L 355.58701226714567 -3.5 L 355.58701226714567 -0.5 L 213.73881863357283 -0.5 Z"/><text text-anchor="middle" pointer-events="none" font-size="8px" fill="#000000" x="190.29350613357283" y="3" transform="rotate(180 190.29350613357283 0)" font-family="sans-serif">DIRECTED</text></g><g class="relationship" transform="translate(-84.15690357628017 86.08595865911312) rotate(486.87908483326527)"><path class="outline" fill="#A5ABB6" stroke="none" d="M 24.018736134675446,-6.953439040707552 L 24.277555179777966,-5.987513214418485 A 323.0599257906519 323.0599257906519 0 0 1 79.46931636527032,-15.742810021474213 L 79.38133794996865,-16.738932402731166 A 324.0599257906519 324.0599257906519 0 0 0 24.018736134675446,-6.953439040707552 Z M 131.18559136326314,-17.157223869639097 L 131.1137096746445,-16.15981070407463 A 323.0599257906519 323.0599257906519 0 0 1 186.45580193525495,-7.297015277785385 L 185.72623897513998,-4.387077497139844 L 193.36725058344703,-6.079691334291398 L 187.42855254874158,-11.176932318646106 L 186.6989895886266,-8.266994538000565 A 324.0599257906519 324.0599257906519 0 0 0 131.18559136326314,-17.157223869639097"/><text text-anchor="middle" pointer-events="none" font-size="8px" fill="#000000" x="105.27912957441222" y="-14.48496620303041" transform="rotate(180 105.27912957441222 -17.48496620303041)" font-family="sans-serif">PRODUCED</text></g><g class="relationship" transform="translate(-84.15690357628017 86.08595865911312) rotate(513.5002002306451)"><path class="outline" fill="#A5ABB6" stroke="none" d="M 25 0.5 L 58.26166201364474 0.5 L 58.26166201364474 -0.5 L 25 -0.5 Z M 105.15228701364474 0.5 L 138.41394902728948 0.5 L 138.41394902728948 3.5 L 145.41394902728948 0 L 138.41394902728948 -3.5 L 138.41394902728948 -0.5 L 105.15228701364474 -0.5 Z"/><text text-anchor="middle" pointer-events="none" font-size="8px" fill="#000000" x="81.70697451364474" y="3" transform="rotate(180 81.70697451364474 0)" font-family="sans-serif">DIRECTED</text></g><g class="relationship" transform="translate(-84.15690357628017 86.08595865911312) rotate(531.8838239118056)"><path class="outline" fill="#A5ABB6" stroke="none" d="M 25 0.5 L 125.68875589188258 0.5 L 125.68875589188258 -0.5 L 25 -0.5 Z M 172.57938089188258 0.5 L 273.26813678376516 0.5 L 273.26813678376516 3.5 L 280.26813678376516 0 L 273.26813678376516 -3.5 L 273.26813678376516 -0.5 L 172.57938089188258 -0.5 Z"/><text text-anchor="middle" pointer-events="none" font-size="8px" fill="#000000" x="149.13406839188258" y="3" transform="rotate(180 149.13406839188258 0)" font-family="sans-serif">DIRECTED</text></g><g class="relationship" transform="translate(-84.15690357628017 86.08595865911312) rotate(486.87908483326527)"><path class="outline" fill="#A5ABB6" stroke="none" d="M 24.018736134675446,6.953439040707552 L 24.277555179777966,5.987513214418485 A 323.0599257906519 323.0599257906519 0 0 0 87.43774976837146,16.347366054278268 L 87.37443684936619,17.345359778851275 A 324.0599257906519 324.0599257906519 0 0 1 24.018736134675446,6.953439040707552 Z M 123.18374213603656,17.63450064760991 L 123.13655294590475,16.635614677974388 A 323.0599257906519 323.0599257906519 0 0 0 186.45580193525495,7.297015277785385 L 185.72623897513998,4.387077497139844 L 193.36725058344703,6.079691334291398 L 187.42855254874158,11.176932318646106 L 186.6989895886266,8.266994538000565 A 324.0599257906519 324.0599257906519 0 0 1 123.18374213603656,17.63450064760991"/><text text-anchor="middle" pointer-events="none" font-size="8px" fill="#000000" x="105.27912957441227" y="20.48496620303041" transform="rotate(180 105.27912957441227 17.48496620303041)" font-family="sans-serif">WROTE</text></g><g class="relationship" transform="translate(-84.15690357628017 86.08595865911312) rotate(503.9303455795149)"><path class="outline" fill="#A5ABB6" stroke="none" d="M 25 0.5 L 203.0622875761606 0.5 L 203.0622875761606 -0.5 L 25 -0.5 Z M 249.9529125761606 0.5 L 428.0152001523212 0.5 L 428.0152001523212 3.5 L 435.0152001523212 0 L 428.0152001523212 -3.5 L 428.0152001523212 -0.5 L 249.9529125761606 -0.5 Z"/><text text-anchor="middle" pointer-events="none" font-size="8px" fill="#000000" x="226.5076000761606" y="3" transform="rotate(180 226.5076000761606 0)" font-family="sans-serif">DIRECTED</text></g><g class="relationship" transform="translate(-67.08886102074362 292.7897389104873) rotate(192.46100276649952)"><path class="outline" fill="#A5ABB6" stroke="none" d="M 25 0.5 L 48.66892246440884 0.5 L 48.66892246440884 -0.5 L 25 -0.5 Z M 95.55954746440884 0.5 L 119.22846992881767 0.5 L 119.22846992881767 3.5 L 126.22846992881767 0 L 119.22846992881767 -3.5 L 119.22846992881767 -0.5 L 95.55954746440884 -0.5 Z"/><text text-anchor="middle" pointer-events="none" font-size="8px" fill="#000000" x="72.11423496440884" y="3" transform="rotate(180 72.11423496440884 0)" font-family="sans-serif">DIRECTED</text></g><g class="relationship" transform="translate(-469.1573484755164 21.883858764402444) rotate(412.3471655943956)"><path class="outline" fill="#A5ABB6" stroke="none" d="M 25 0.5 L 40.81802300681302 0.5 L 40.81802300681302 -0.5 L 25 -0.5 Z M 87.70864800681302 0.5 L 103.52667101362604 0.5 L 103.52667101362604 3.5 L 110.52667101362604 0 L 103.52667101362604 -3.5 L 103.52667101362604 -0.5 L 87.70864800681302 -0.5 Z"/><text text-anchor="middle" pointer-events="none" font-size="8px" fill="#000000" x="64.26333550681302" y="3" font-family="sans-serif">DIRECTED</text></g></g><g class="layer nodes"><g class="node" transform="translate(529.29122271276,121.49652301661092)"><circle class="outline" cx="0" cy="0" r="25" fill="#F79767" stroke="#f36924" stroke-width="2px"/><text text-anchor="middle" pointer-events="none" font-family="sans-serif" dy="1.5625" font-size="25" fill="#FFFFFF"/><text text-anchor="middle" pointer-events="none" font-family="sans-serif" dy="1.5625" font-size="25" fill="#FFFFFF"/><text text-anchor="middle" pointer-events="none" x="0" y="0" font-size="10px" fill="#FFFFFF" font-family="sans-serif"> Tom</text><text text-anchor="middle" pointer-events="none" x="0" y="10" font-size="10px" fill="#FFFFFF" font-family="sans-serif"> Tykwer</text></g><g class="node" transform="translate(407.5114411215751,182.742787104336)"><circle class="outline" cx="0" cy="0" r="25" fill="#57C7E3" stroke="#23b3d7" stroke-width="2px"/><text text-anchor="middle" pointer-events="none" font-family="sans-serif" dy="1.5625" font-size="25" fill="#2A2C34"/><text text-anchor="middle" pointer-events="none" font-family="sans-serif" dy="1.5625" font-size="25" fill="#2A2C34"/><text text-anchor="middle" pointer-events="none" x="0" y="0" font-size="10px" fill="#2A2C34" font-family="sans-serif"> Cloud</text><text text-anchor="middle" pointer-events="none" x="0" y="10" font-size="10px" fill="#2A2C34" font-family="sans-serif"> Atlas</text></g><g class="node" transform="translate(314.2834049055381,289.10543569224603)"><circle class="outline" cx="0" cy="0" r="25" fill="#F79767" stroke="#f36924" stroke-width="2px"/><text text-anchor="middle" pointer-events="none" font-family="sans-serif" dy="1.5625" font-size="25" fill="#FFFFFF"/><text text-anchor="middle" pointer-events="none" font-family="sans-serif" dy="1.5625" font-size="25" fill="#FFFFFF"/><text text-anchor="middle" pointer-events="none" x="0" y="0" font-size="10px" fill="#FFFFFF" font-family="sans-serif"> Hugo</text><text text-anchor="middle" pointer-events="none" x="0" y="10" font-size="10px" fill="#FFFFFF" font-family="sans-serif"> Weaving</text></g><g class="node" transform="translate(606.8333565566186,367.9778702111872)"><circle class="outline" cx="0" cy="0" r="25" fill="#F79767" stroke="#f36924" stroke-width="2px"/><text text-anchor="middle" pointer-events="none" font-family="sans-serif" dy="1.5625" font-size="25" fill="#FFFFFF"/><text text-anchor="middle" pointer-events="none" font-family="sans-serif" dy="1.5625" font-size="25" fill="#FFFFFF"/><text text-anchor="middle" pointer-events="none" x="0" y="0" font-size="10px" fill="#FFFFFF" font-family="sans-serif"> Lana</text><text text-anchor="middle" pointer-events="none" x="0" y="10" font-size="10px" fill="#FFFFFF" font-family="sans-serif"> Wacho…</text></g><g class="node" transform="translate(35.8700579501035,427.4337317841249)"><circle class="outline" cx="0" cy="0" r="25" fill="#F79767" stroke="#f36924" stroke-width="2px"/><text text-anchor="middle" pointer-events="none" font-family="sans-serif" dy="1.5625" font-size="25" fill="#FFFFFF"/><text text-anchor="middle" pointer-events="none" font-family="sans-serif" dy="1.5625" font-size="25" fill="#FFFFFF"/><text text-anchor="middle" pointer-events="none" x="0" y="0" font-size="10px" fill="#FFFFFF" font-family="sans-serif"> Andy</text><text text-anchor="middle" pointer-events="none" x="0" y="10" font-size="10px" fill="#FFFFFF" font-family="sans-serif"> Wacho…</text></g><g class="node" transform="translate(196.28910192380778,95.92829654976651)"><circle class="outline" cx="0" cy="0" r="25" fill="#F79767" stroke="#f36924" stroke-width="2px"/><text text-anchor="middle" pointer-events="none" font-family="sans-serif" dy="1.5625" font-size="25" fill="#FFFFFF"/><text text-anchor="middle" pointer-events="none" font-family="sans-serif" dy="1.5625" font-size="25" fill="#FFFFFF"/><text text-anchor="middle" pointer-events="none" x="0" y="0" font-size="10px" fill="#FFFFFF" font-family="sans-serif"> James</text><text text-anchor="middle" pointer-events="none" x="0" y="10" font-size="10px" fill="#FFFFFF" font-family="sans-serif"> Marshall</text></g><g class="node" transform="translate(302.6387238523753,158.7696454678267)"><circle class="outline" cx="0" cy="0" r="25" fill="#57C7E3" stroke="#23b3d7" stroke-width="2px"/><text text-anchor="middle" pointer-events="none" font-family="sans-serif" dy="1.5625" font-size="25" fill="#2A2C34"/><text text-anchor="middle" pointer-events="none" font-family="sans-serif" dy="1.5625" font-size="25" fill="#2A2C34"/><text text-anchor="middle" pointer-events="none" x="0" y="0" font-size="10px" fill="#2A2C34" font-family="sans-serif"> V for</text><text text-anchor="middle" pointer-events="none" x="0" y="10" font-size="10px" fill="#2A2C34" font-family="sans-serif"> Vendetta</text></g><g class="node" transform="translate(302.7626507552182,430.8617581958613)"><circle class="outline" cx="0" cy="0" r="25" fill="#57C7E3" stroke="#23b3d7" stroke-width="2px"/><text text-anchor="middle" pointer-events="none" font-family="sans-serif" dy="1.5625" font-size="25" fill="#2A2C34"/><text text-anchor="middle" pointer-events="none" font-family="sans-serif" dy="1.5625" font-size="25" fill="#2A2C34"/><text text-anchor="middle" pointer-events="none" font-family="sans-serif" dy="1.5625" font-size="25" fill="#2A2C34"/><text text-anchor="middle" pointer-events="none" x="0" y="-5" font-size="10px" fill="#2A2C34" font-family="sans-serif"> The</text><text text-anchor="middle" pointer-events="none" x="0" y="5" font-size="10px" fill="#2A2C34" font-family="sans-serif"> Matrix</text><text text-anchor="middle" pointer-events="none" x="0" y="15" font-size="10px" fill="#2A2C34" font-family="sans-serif"> Revol…</text></g><g class="node" transform="translate(157.8558175996409,173.3605025761055)"><circle class="outline" cx="0" cy="0" r="25" fill="#57C7E3" stroke="#23b3d7" stroke-width="2px"/><text text-anchor="middle" pointer-events="none" font-family="sans-serif" dy="1.5625" font-size="25" fill="#2A2C34"/><text text-anchor="middle" pointer-events="none" font-family="sans-serif" dy="1.5625" font-size="25" fill="#2A2C34"/><text text-anchor="middle" pointer-events="none" font-family="sans-serif" dy="1.5625" font-size="25" fill="#2A2C34"/><text text-anchor="middle" pointer-events="none" x="0" y="-5" font-size="10px" fill="#2A2C34" font-family="sans-serif"> The</text><text text-anchor="middle" pointer-events="none" x="0" y="5" font-size="10px" fill="#2A2C34" font-family="sans-serif"> Matrix</text><text text-anchor="middle" pointer-events="none" x="0" y="15" font-size="10px" fill="#2A2C34" font-family="sans-serif"> Reloa…</text></g><g class="node" transform="translate(484.7110196493571,314.34419905466854)"><circle class="outline" cx="0" cy="0" r="25" fill="#57C7E3" stroke="#23b3d7" stroke-width="2px"/><text text-anchor="middle" pointer-events="none" font-family="sans-serif" dy="1.5625" font-size="25" fill="#2A2C34"/><text text-anchor="middle" pointer-events="none" font-family="sans-serif" dy="1.5625" font-size="25" fill="#2A2C34"/><text text-anchor="middle" pointer-events="none" x="0" y="0" font-size="10px" fill="#2A2C34" font-family="sans-serif"> The</text><text text-anchor="middle" pointer-events="none" x="0" y="10" font-size="10px" fill="#2A2C34" font-family="sans-serif"> Matrix</text></g><g class="node" transform="translate(178.93745986418807,-130.66984544051684)"><circle class="outline" cx="0" cy="0" r="25" fill="#F79767" stroke="#f36924" stroke-width="2px"/><text text-anchor="middle" pointer-events="none" font-family="sans-serif" dy="1.5625" font-size="25" fill="#FFFFFF"/><text text-anchor="middle" pointer-events="none" font-family="sans-serif" dy="1.5625" font-size="25" fill="#FFFFFF"/><text text-anchor="middle" pointer-events="none" x="0" y="0" font-size="10px" fill="#FFFFFF" font-family="sans-serif"> Lana</text><text text-anchor="middle" pointer-events="none" x="0" y="10" font-size="10px" fill="#FFFFFF" font-family="sans-serif"> Wacho…</text></g><g class="node" transform="translate(249.54786909481908,-245.21235309480863)"><circle class="outline" cx="0" cy="0" r="25" fill="#57C7E3" stroke="#23b3d7" stroke-width="2px"/><text text-anchor="middle" pointer-events="none" font-family="sans-serif" dy="1.5625" font-size="25" fill="#2A2C34"/><text text-anchor="middle" pointer-events="none" font-family="sans-serif" dy="1.5625" font-size="25" fill="#2A2C34"/><text text-anchor="middle" pointer-events="none" font-family="sans-serif" dy="1.5625" font-size="25" fill="#2A2C34"/><text text-anchor="middle" pointer-events="none" x="0" y="-5" font-size="10px" fill="#2A2C34" font-family="sans-serif"> The</text><text text-anchor="middle" pointer-events="none" x="0" y="5" font-size="10px" fill="#2A2C34" font-family="sans-serif"> Matrix</text><text text-anchor="middle" pointer-events="none" x="0" y="15" font-size="10px" fill="#2A2C34" font-family="sans-serif"> Revol…</text></g><g class="node" transform="translate(164.4365324618299,-188.8798349611278)"><circle class="outline" cx="0" cy="0" r="25" fill="#F79767" stroke="#f36924" stroke-width="2px"/><text text-anchor="middle" pointer-events="none" font-family="sans-serif" dy="1.5625" font-size="25" fill="#FFFFFF"/><text text-anchor="middle" pointer-events="none" font-family="sans-serif" dy="1.5625" font-size="25" fill="#FFFFFF"/><text text-anchor="middle" pointer-events="none" x="0" y="0" font-size="10px" fill="#FFFFFF" font-family="sans-serif"> Hugo</text><text text-anchor="middle" pointer-events="none" x="0" y="10" font-size="10px" fill="#FFFFFF" font-family="sans-serif"> Weaving</text></g><g class="node" transform="translate(148.00856547390535,-246.56040206882875)"><circle class="outline" cx="0" cy="0" r="25" fill="#F79767" stroke="#f36924" stroke-width="2px"/><text text-anchor="middle" pointer-events="none" font-family="sans-serif" dy="1.5625" font-size="25" fill="#FFFFFF"/><text text-anchor="middle" pointer-events="none" font-family="sans-serif" dy="1.5625" font-size="25" fill="#FFFFFF"/><text text-anchor="middle" pointer-events="none" x="0" y="0" font-size="10px" fill="#FFFFFF" font-family="sans-serif"> Lilly</text><text text-anchor="middle" pointer-events="none" x="0" y="10" font-size="10px" fill="#FFFFFF" font-family="sans-serif"> Wacho…</text></g><g class="node" transform="translate(57.526469408275915,-216.0085685065916)"><circle class="outline" cx="0" cy="0" r="25" fill="#57C7E3" stroke="#23b3d7" stroke-width="2px"/><text text-anchor="middle" pointer-events="none" font-family="sans-serif" dy="1.5625" font-size="25" fill="#2A2C34"/><text text-anchor="middle" pointer-events="none" font-family="sans-serif" dy="1.5625" font-size="25" fill="#2A2C34"/><text text-anchor="middle" pointer-events="none" x="0" y="0" font-size="10px" fill="#2A2C34" font-family="sans-serif"> Cloud</text><text text-anchor="middle" pointer-events="none" x="0" y="10" font-size="10px" fill="#2A2C34" font-family="sans-serif"> Atlas</text></g><g class="node" transform="translate(-61.55312829650567,-233.92504637000525)"><circle class="outline" cx="0" cy="0" r="25" fill="#F79767" stroke="#f36924" stroke-width="2px"/><text text-anchor="middle" pointer-events="none" font-family="sans-serif" dy="1.5625" font-size="25" fill="#FFFFFF"/><text text-anchor="middle" pointer-events="none" font-family="sans-serif" dy="1.5625" font-size="25" fill="#FFFFFF"/><text text-anchor="middle" pointer-events="none" x="0" y="0" font-size="10px" fill="#FFFFFF" font-family="sans-serif"> Tom</text><text text-anchor="middle" pointer-events="none" x="0" y="10" font-size="10px" fill="#FFFFFF" font-family="sans-serif"> Tykwer</text></g><g class="node" transform="translate(65.75213923666469,-156.38578307385148)"><circle class="outline" cx="0" cy="0" r="25" fill="#57C7E3" stroke="#23b3d7" stroke-width="2px"/><text text-anchor="middle" pointer-events="none" font-family="sans-serif" dy="1.5625" font-size="25" fill="#2A2C34"/><text text-anchor="middle" pointer-events="none" font-family="sans-serif" dy="1.5625" font-size="25" fill="#2A2C34"/><text text-anchor="middle" pointer-events="none" font-family="sans-serif" dy="1.5625" font-size="25" fill="#2A2C34"/><text text-anchor="middle" pointer-events="none" x="0" y="-5" font-size="10px" fill="#2A2C34" font-family="sans-serif"> The</text><text text-anchor="middle" pointer-events="none" x="0" y="5" font-size="10px" fill="#2A2C34" font-family="sans-serif"> Matrix</text><text text-anchor="middle" pointer-events="none" x="0" y="15" font-size="10px" fill="#2A2C34" font-family="sans-serif"> Reloa…</text></g><g class="node" transform="translate(382.9353546890456,-140.71757061944356)"><circle class="outline" cx="0" cy="0" r="25" fill="#F79767" stroke="#f36924" stroke-width="2px"/><text text-anchor="middle" pointer-events="none" font-family="sans-serif" dy="1.5625" font-size="25" fill="#FFFFFF"/><text text-anchor="middle" pointer-events="none" font-family="sans-serif" dy="1.5625" font-size="25" fill="#FFFFFF"/><text text-anchor="middle" pointer-events="none" x="0" y="0" font-size="10px" fill="#FFFFFF" font-family="sans-serif"> James</text><text text-anchor="middle" pointer-events="none" x="0" y="10" font-size="10px" fill="#FFFFFF" font-family="sans-serif"> Marshall</text></g><g class="node" transform="translate(269.06959756239587,-176.22174717710584)"><circle class="outline" cx="0" cy="0" r="25" fill="#57C7E3" stroke="#23b3d7" stroke-width="2px"/><text text-anchor="middle" pointer-events="none" font-family="sans-serif" dy="1.5625" font-size="25" fill="#2A2C34"/><text text-anchor="middle" pointer-events="none" font-family="sans-serif" dy="1.5625" font-size="25" fill="#2A2C34"/><text text-anchor="middle" pointer-events="none" x="0" y="0" font-size="10px" fill="#2A2C34" font-family="sans-serif"> V for</text><text text-anchor="middle" pointer-events="none" x="0" y="10" font-size="10px" fill="#2A2C34" font-family="sans-serif"> Vendetta</text></g><g class="node" transform="translate(97.34549691208812,-105.39493696091063)"><circle class="outline" cx="0" cy="0" r="25" fill="#57C7E3" stroke="#23b3d7" stroke-width="2px"/><text text-anchor="middle" pointer-events="none" font-family="sans-serif" dy="1.5625" font-size="25" fill="#2A2C34"/><text text-anchor="middle" pointer-events="none" font-family="sans-serif" dy="1.5625" font-size="25" fill="#2A2C34"/><text text-anchor="middle" pointer-events="none" x="0" y="0" font-size="10px" fill="#2A2C34" font-family="sans-serif"> The</text><text text-anchor="middle" pointer-events="none" x="0" y="10" font-size="10px" fill="#2A2C34" font-family="sans-serif"> Matrix</text></g><g class="node" transform="translate(-525.7682243004342,229.87797175992438)"><circle class="outline" cx="0" cy="0" r="25" fill="#F79767" stroke="#f36924" stroke-width="2px"/><text text-anchor="middle" pointer-events="none" font-family="sans-serif" dy="1.5625" font-size="25" fill="#FFFFFF"/><text text-anchor="middle" pointer-events="none" font-family="sans-serif" dy="1.5625" font-size="25" fill="#FFFFFF"/><text text-anchor="middle" pointer-events="none" x="0" y="0" font-size="10px" fill="#FFFFFF" font-family="sans-serif"> Lilly</text><text text-anchor="middle" pointer-events="none" x="0" y="10" font-size="10px" fill="#FFFFFF" font-family="sans-serif"> Wacho…</text></g><g class="node" transform="translate(-236.66646798610776,162.12375706622288)"><circle class="outline" cx="0" cy="0" r="25" fill="#57C7E3" stroke="#23b3d7" stroke-width="2px"/><text text-anchor="middle" pointer-events="none" font-family="sans-serif" dy="1.5625" font-size="25" fill="#2A2C34"/><text text-anchor="middle" pointer-events="none" font-family="sans-serif" dy="1.5625" font-size="25" fill="#2A2C34"/><text text-anchor="middle" pointer-events="none" font-family="sans-serif" dy="1.5625" font-size="25" fill="#2A2C34"/><text text-anchor="middle" pointer-events="none" x="0" y="-5" font-size="10px" fill="#2A2C34" font-family="sans-serif"> The</text><text text-anchor="middle" pointer-events="none" x="0" y="5" font-size="10px" fill="#2A2C34" font-family="sans-serif"> Matrix</text><text text-anchor="middle" pointer-events="none" x="0" y="15" font-size="10px" fill="#2A2C34" font-family="sans-serif"> Reloa…</text></g><g class="node" transform="translate(-321.0590287281181,234.21490831580797)"><circle class="outline" cx="0" cy="0" r="25" fill="#F79767" stroke="#f36924" stroke-width="2px"/><text text-anchor="middle" pointer-events="none" font-family="sans-serif" dy="1.5625" font-size="25" fill="#FFFFFF"/><text text-anchor="middle" pointer-events="none" font-family="sans-serif" dy="1.5625" font-size="25" fill="#FFFFFF"/><text text-anchor="middle" pointer-events="none" x="0" y="0" font-size="10px" fill="#FFFFFF" font-family="sans-serif"> Hugo</text><text text-anchor="middle" pointer-events="none" x="0" y="10" font-size="10px" fill="#FFFFFF" font-family="sans-serif"> Weaving</text></g><g class="node" transform="translate(-84.15690357628017,86.08595865911312)"><circle class="outline" cx="0" cy="0" r="25" fill="#F79767" stroke="#f36924" stroke-width="2px"/><text text-anchor="middle" pointer-events="none" font-family="sans-serif" dy="1.5625" font-size="25" fill="#FFFFFF"/><text text-anchor="middle" pointer-events="none" font-family="sans-serif" dy="1.5625" font-size="25" fill="#FFFFFF"/><text text-anchor="middle" pointer-events="none" x="0" y="0" font-size="10px" fill="#FFFFFF" font-family="sans-serif"> Lana</text><text text-anchor="middle" pointer-events="none" x="0" y="10" font-size="10px" fill="#FFFFFF" font-family="sans-serif"> Wacho…</text></g><g class="node" transform="translate(-248.7323152439884,436.9970954908997)"><circle class="outline" cx="0" cy="0" r="25" fill="#57C7E3" stroke="#23b3d7" stroke-width="2px"/><text text-anchor="middle" pointer-events="none" font-family="sans-serif" dy="1.5625" font-size="25" fill="#2A2C34"/><text text-anchor="middle" pointer-events="none" font-family="sans-serif" dy="1.5625" font-size="25" fill="#2A2C34"/><text text-anchor="middle" pointer-events="none" x="0" y="0" font-size="10px" fill="#2A2C34" font-family="sans-serif"> The</text><text text-anchor="middle" pointer-events="none" x="0" y="10" font-size="10px" fill="#2A2C34" font-family="sans-serif"> Matrix</text></g><g class="node" transform="translate(-67.08886102074362,292.7897389104873)"><circle class="outline" cx="0" cy="0" r="25" fill="#F79767" stroke="#f36924" stroke-width="2px"/><text text-anchor="middle" pointer-events="none" font-family="sans-serif" dy="1.5625" font-size="25" fill="#FFFFFF"/><text text-anchor="middle" pointer-events="none" font-family="sans-serif" dy="1.5625" font-size="25" fill="#FFFFFF"/><text text-anchor="middle" pointer-events="none" x="0" y="0" font-size="10px" fill="#FFFFFF" font-family="sans-serif"> James</text><text text-anchor="middle" pointer-events="none" x="0" y="10" font-size="10px" fill="#FFFFFF" font-family="sans-serif"> Marshall</text></g><g class="node" transform="translate(-214.75485644548394,260.15840562127147)"><circle class="outline" cx="0" cy="0" r="25" fill="#57C7E3" stroke="#23b3d7" stroke-width="2px"/><text text-anchor="middle" pointer-events="none" font-family="sans-serif" dy="1.5625" font-size="25" fill="#2A2C34"/><text text-anchor="middle" pointer-events="none" font-family="sans-serif" dy="1.5625" font-size="25" fill="#2A2C34"/><text text-anchor="middle" pointer-events="none" x="0" y="0" font-size="10px" fill="#2A2C34" font-family="sans-serif"> V for</text><text text-anchor="middle" pointer-events="none" x="0" y="10" font-size="10px" fill="#2A2C34" font-family="sans-serif"> Vendetta</text></g><g class="node" transform="translate(-455.9880302100529,356.9283438897844)"><circle class="outline" cx="0" cy="0" r="25" fill="#57C7E3" stroke="#23b3d7" stroke-width="2px"/><text text-anchor="middle" pointer-events="none" font-family="sans-serif" dy="1.5625" font-size="25" fill="#2A2C34"/><text text-anchor="middle" pointer-events="none" font-family="sans-serif" dy="1.5625" font-size="25" fill="#2A2C34"/><text text-anchor="middle" pointer-events="none" font-family="sans-serif" dy="1.5625" font-size="25" fill="#2A2C34"/><text text-anchor="middle" pointer-events="none" x="0" y="-5" font-size="10px" fill="#2A2C34" font-family="sans-serif"> The</text><text text-anchor="middle" pointer-events="none" x="0" y="5" font-size="10px" fill="#2A2C34" font-family="sans-serif"> Matrix</text><text text-anchor="middle" pointer-events="none" x="0" y="15" font-size="10px" fill="#2A2C34" font-family="sans-serif"> Revol…</text></g><g class="node" transform="translate(-386.36742530341303,129.1839388072097)"><circle class="outline" cx="0" cy="0" r="25" fill="#57C7E3" stroke="#23b3d7" stroke-width="2px"/><text text-anchor="middle" pointer-events="none" font-family="sans-serif" dy="1.5625" font-size="25" fill="#2A2C34"/><text text-anchor="middle" pointer-events="none" font-family="sans-serif" dy="1.5625" font-size="25" fill="#2A2C34"/><text text-anchor="middle" pointer-events="none" x="0" y="0" font-size="10px" fill="#2A2C34" font-family="sans-serif"> Cloud</text><text text-anchor="middle" pointer-events="none" x="0" y="10" font-size="10px" fill="#2A2C34" font-family="sans-serif"> Atlas</text></g><g class="node" transform="translate(-469.1573484755164,21.883858764402444)"><circle class="outline" cx="0" cy="0" r="25" fill="#F79767" stroke="#f36924" stroke-width="2px"/><text text-anchor="middle" pointer-events="none" font-family="sans-serif" dy="1.5625" font-size="25" fill="#FFFFFF"/><text text-anchor="middle" pointer-events="none" font-family="sans-serif" dy="1.5625" font-size="25" fill="#FFFFFF"/><text text-anchor="middle" pointer-events="none" x="0" y="0" font-size="10px" fill="#FFFFFF" font-family="sans-serif"> Tom</text><text text-anchor="middle" pointer-events="none" x="0" y="10" font-size="10px" fill="#FFFFFF" font-family="sans-serif"> Tykwer</text></g></g></svg>