<svg xmlns="http://www.w3.org/2000/svg" width="741.4950561523438" height="782.806884765625" viewBox="-250.24246215820312 -289.1942443847656 741.4950561523438 782.806884765625"><title>Neo4j Graph Visualization</title><desc>Created using Neo4j (http://www.neo4j.com/)</desc><g class="layer relationships"><g class="relationship" transform="translate(93.07463001830646 265.31857927142) rotate(285.1108709548193)"><path class="outline" fill="#A5ABB6" stroke="none" d="M 21.40063509461097,12.933012701892217 L 21.90063509461097,12.06698729810778 A 56.03947259016924 56.03947259016924 0 0 0 23.55659457303681,12.986100942347399 L 23.08614444925596,13.868527529115148 A 57.03947259016924 57.03947259016924 0 0 1 21.40063509461097,12.933012701892217 Z M 73.4930485627674,15.476022736918573 L 73.07977901270613,14.565413996024795 A 56.03947259016924 56.03947259016924 0 0 0 74.7909359090374,13.753678964531366 L 73.45952270849429,11.06530791696008 L 81.28570388679427,11.09511000452597 L 76.56615350976156,17.338173694626413 L 75.23474030921845,14.649802647055127 A 57.03947259016924 57.03947259016924 0 0 1 73.4930485627674,15.476022736918573"/><text text-anchor="middle" pointer-events="none" font-size="8px" fill="#000000" x="48.11822241371806" y="23.04612470709332" font-family="sans-serif">PRODUCED</text></g><g class="relationship" transform="translate(93.07463001830646 265.31857927142) rotate(285.1108709548193)"><path class="outline" fill="#A5ABB6" stroke="none" d="M 25 0.5 L 26.455726099944144 0.5 L 26.455726099944144 -0.5 L 25 -0.5 Z M 70.23306984994414 0.5 L 71.68879594988829 0.5 L 71.68879594988829 3.5 L 78.68879594988829 0 L 71.68879594988829 -3.5 L 71.68879594988829 -0.5 L 70.23306984994414 -0.5 Z"/><text text-anchor="middle" pointer-events="none" font-size="8px" fill="#000000" x="48.344397974944144" y="3" font-family="sans-serif">DIRECT…</text></g><g class="relationship" transform="translate(93.07463001830646 265.31857927142) rotate(285.1108709548193)"><path class="outline" fill="#A5ABB6" stroke="none" d="M 21.40063509461097,-12.933012701892217 L 21.90063509461097,-12.06698729810778 A 56.03947259016924 56.03947259016924 0 0 1 30.797362488925796,-16.211115049914497 L 30.456120717422678,-17.151090609906042 A 57.03947259016924 57.03947259016924 0 0 0 21.40063509461097,-12.933012701892217 Z M 65.92889589422819,-18.282330806205238 L 65.64823894251417,-17.32252266107696 A 56.03947259016924 56.03947259016924 0 0 1 74.7909359090374,-13.753678964531366 L 73.45952270849429,-11.06530791696008 L 81.28570388679427,-11.09511000452597 L 76.56615350976156,-17.338173694626413 L 75.23474030921845,-14.649802647055127 A 57.03947259016924 57.03947259016924 0 0 0 65.92889589422819,-18.282330806205238"/><text text-anchor="middle" pointer-events="none" font-size="8px" fill="#000000" x="48.11822241371806" y="-17.04612470709332" font-family="sans-serif">WROTE</text></g><g class="relationship" transform="translate(263.09440461806616 388.89750503488455) rotate(280.48195851746567)"><path class="outline" fill="#A5ABB6" stroke="none" d="M 24.018736134675446,6.953439040707552 L 24.277555179777966,5.987513214418485 A 105.48998586773499 105.48998586773499 0 0 0 32.20718371658067,7.7878005218428115 L 32.0235341624168,8.770792302711499 A 106.48998586773499 106.48998586773499 0 0 1 24.018736134675446,6.953439040707552 Z M 67.79082661541241,9.340946220754034 L 67.63860146585137,8.352600378530212 A 105.48998586773499 105.48998586773499 0 0 0 75.62158204201864,6.805970415842367 L 74.9378808568971,3.884917063117807 L 82.5513233958962,5.697509876012859 L 76.5331836221807,10.700708219475114 L 75.84948243705915,7.779654866750555 A 106.48998586773499 106.48998586773499 0 0 1 67.79082661541241,9.340946220754034"/><text text-anchor="middle" pointer-events="none" font-size="8px" fill="#000000" x="49.89103785994448" y="13.068533625397052" font-family="sans-serif">WROTE</text></g><g class="relationship" transform="translate(263.09440461806616 388.89750503488455) rotate(280.48195851746567)"><path class="outline" fill="#A5ABB6" stroke="none" d="M 24.018736134675446,-6.953439040707552 L 24.277555179777966,-5.987513214418485 A 105.48998586773499 105.48998586773499 0 0 1 26.798036769816186,-6.629677454516397 L 26.563110813420668,-7.601690723464742 A 106.48998586773499 106.48998586773499 0 0 0 24.018736134675446,-6.953439040707552 Z M 73.28573864604822,-8.346479816880887 L 73.08191322641613,-7.367472565471672 A 105.48998586773499 105.48998586773499 0 0 1 75.62158204201864,-6.805970415842367 L 74.9378808568971,-3.884917063117807 L 82.5513233958962,-5.697509876012859 L 76.5331836221807,-10.700708219475114 L 75.84948243705915,-7.779654866750555 A 106.48998586773499 106.48998586773499 0 0 0 73.28573864604822,-8.346479816880887"/><text text-anchor="middle" pointer-events="none" font-size="8px" fill="#000000" x="49.89103785994445" y="-7.068533625397052" font-family="sans-serif">DIRECTED</text></g><g class="relationship" transform="translate(387.9171678431628 274.96166755728666) rotate(535.212127841469)"><path class="outline" fill="#A5ABB6" stroke="none" d="M 24.018736134675446,6.953439040707552 L 24.277555179777966,5.987513214418485 A 103.19320706210533 103.19320706210533 0 0 0 31.639009170578333,7.673910025450283 L 31.45152673958424,8.656177981798521 A 104.19320706210533 104.19320706210533 0 0 1 24.018736134675446,6.953439040707552 Z M 67.21482685786162,9.232087220457274 L 67.05906906114144,8.244291943711687 A 103.19320706210533 103.19320706210533 0 0 0 74.47100534812733,6.79579633081178 L 73.78825451042924,3.874520703004204 L 81.40110695262803,5.689590314150813 L 75.38133979839147,10.69083050122188 L 74.69858896069337,7.769554873414305 A 104.19320706210533 104.19320706210533 0 0 1 67.21482685786162,9.232087220457274"/><text text-anchor="middle" pointer-events="none" font-size="8px" fill="#000000" x="49.31633008153478" y="12.990294326560274" transform="rotate(180 49.31633008153478 9.990294326560274)" font-family="sans-serif">WROTE</text></g><g class="relationship" transform="translate(387.9171678431628 274.96166755728666) rotate(535.212127841469)"><path class="outline" fill="#A5ABB6" stroke="none" d="M 24.018736134675446,-6.953439040707552 L 24.277555179777966,-5.987513214418485 A 103.19320706210533 103.19320706210533 0 0 1 26.235701651339628,-6.491688083562863 L 25.99585814277977,-7.462499646844691 A 104.19320706210533 104.19320706210533 0 0 0 24.018736134675446,-6.953439040707552 Z M 72.70610117370616,-8.214691430392023 L 72.4976405715855,-7.236660665352659 A 103.19320706210533 103.19320706210533 0 0 1 74.47100534812733,-6.79579633081178 L 73.78825451042924,-3.874520703004204 L 81.40110695262803,-5.689590314150813 L 75.38133979839147,-10.69083050122188 L 74.69858896069337,-7.769554873414305 A 104.19320706210533 104.19320706210533 0 0 0 72.70610117370616,-8.214691430392023"/><text text-anchor="middle" pointer-events="none" font-size="8px" fill="#000000" x="49.316330081534765" y="-6.990294326560274" transform="rotate(180 49.316330081534765 -9.990294326560274)" font-family="sans-serif">DIRECTED</text></g><g class="relationship" transform="translate(462.25259141728395 70.95754843470961) rotate(530.068787120724)"><path class="outline" fill="#A5ABB6" stroke="none" d="M 21.40063509461097,12.933012701892217 L 21.90063509461097,12.06698729810778 A 56.876791570033475 56.876791570033475 0 0 0 23.929050850531397,13.183670160314144 L 23.464714179983144,14.069328930035397 A 57.876791570033475 57.876791570033475 0 0 1 21.40063509461097,12.933012701892217 Z M 73.91732204622285,15.666528978596311 L 73.50993437791949,14.753273654103559 A 56.876791570033475 56.876791570033475 0 0 0 75.60492031486635,13.767127104342013 L 74.27225603804291,11.07937601369417 L 82.09845023918189,11.105535640195303 L 77.3818060172976,17.350795225205804 L 76.04914174047417,14.66304413455796 A 57.876791570033475 57.876791570033475 0 0 1 73.91732204622285,15.666528978596311"/><text text-anchor="middle" pointer-events="none" font-size="8px" fill="#000000" x="48.523538459152775" y="23.158302764370028" transform="rotate(180 48.523538459152775 20.158302764370028)" font-family="sans-serif">PRODUCED</text></g><g class="relationship" transform="translate(462.25259141728395 70.95754843470961) rotate(530.068787120724)"><path class="outline" fill="#A5ABB6" stroke="none" d="M 25 0.5 L 30.861469247290295 0.5 L 30.861469247290295 -0.5 L 25 -0.5 Z M 66.6349067472903 0.5 L 72.49637599458059 0.5 L 72.49637599458059 3.5 L 79.49637599458059 0 L 72.49637599458059 -3.5 L 72.49637599458059 -0.5 L 66.6349067472903 -0.5 Z"/><text text-anchor="middle" pointer-events="none" font-size="8px" fill="#000000" x="48.748187997290295" y="3" transform="rotate(180 48.748187997290295 0)" font-family="sans-serif">WROTE</text></g><g class="relationship" transform="translate(462.25259141728395 70.95754843470961) rotate(530.068787120724)"><path class="outline" fill="#A5ABB6" stroke="none" d="M 21.40063509461097,-12.933012701892217 L 21.90063509461097,-12.06698729810778 A 56.876791570033475 56.876791570033475 0 0 1 26.09922182095414,-14.26314244507924 L 25.673040800725058,-15.167780349434622 A 57.876791570033475 57.876791570033475 0 0 0 21.40063509461097,-12.933012701892217 Z M 71.64393865991471,-16.623100964134068 L 71.27583069811612,-15.693317909620554 A 56.876791570033475 56.876791570033475 0 0 1 75.60492031486635,-13.767127104342013 L 74.27225603804291,-11.07937601369417 L 82.09845023918189,-11.105535640195303 L 77.3818060172976,-17.350795225205804 L 76.04914174047417,-14.66304413455796 A 57.876791570033475 57.876791570033475 0 0 0 71.64393865991471,-16.623100964134068"/><text text-anchor="middle" pointer-events="none" font-size="8px" fill="#000000" x="48.52353845915279" y="-17.158302764370028" transform="rotate(180 48.52353845915279 -20.158302764370028)" font-family="sans-serif">DIRECTED</text></g><g class="relationship" transform="translate(359.79465125586825 -114.5988256362147) rotate(507.41267857642583)"><path class="outline" fill="#A5ABB6" stroke="none" d="M 21.40063509461097,12.933012701892217 L 21.90063509461097,12.06698729810778 A 58.19718507743907 58.19718507743907 0 0 0 26.700719736321922,14.548642028420709 L 26.283199406692987,15.4573096102935 A 59.19718507743907 59.19718507743907 0 0 1 21.40063509461097,12.933012701892217 Z M 72.3032477700169,16.897584419625545 L 71.94336545282871,15.964586714496924 A 58.19718507743907 58.19718507743907 0 0 0 76.88923921766136,13.787948143118129 L 75.55463798824377,11.101158319101913 L 83.38084901193545,11.12167691181315 L 78.66870752355146,17.37033457513975 L 77.33410629413387,14.683544751123534 A 59.19718507743907 59.19718507743907 0 0 1 72.3032477700169,16.897584419625545"/><text text-anchor="middle" pointer-events="none" font-size="8px" fill="#000000" x="49.16309951771858" y="23.335206343330633" transform="rotate(180 49.16309951771858 20.335206343330633)" font-family="sans-serif">DIRECTED</text></g><g class="relationship" transform="translate(359.79465125586825 -114.5988256362147) rotate(507.41267857642583)"><path class="outline" fill="#A5ABB6" stroke="none" d="M 25 0.5 L 25.051397731035294 0.5 L 25.051397731035294 -0.5 L 25 -0.5 Z M 73.7193664810353 0.5 L 73.77076421207059 0.5 L 73.77076421207059 3.5 L 80.77076421207059 0 L 73.77076421207059 -3.5 L 73.77076421207059 -0.5 L 73.7193664810353 -0.5 Z"/><text text-anchor="middle" pointer-events="none" font-size="8px" fill="#000000" x="49.385382106035294" y="3" transform="rotate(180 49.385382106035294 0)" font-family="sans-serif">PRODUC…</text></g><g class="relationship" transform="translate(359.79465125586825 -114.5988256362147) rotate(507.41267857642583)"><path class="outline" fill="#A5ABB6" stroke="none" d="M 21.40063509461097,-12.933012701892217 L 21.90063509461097,-12.06698729810778 A 58.19718507743907 58.19718507743907 0 0 1 31.809999772016095,-16.609315562310407 L 31.480272005358984,-17.553391618513146 A 59.19718507743907 59.19718507743907 0 0 0 21.40063509461097,-12.933012701892217 Z M 66.98527365018698,-18.66458035674779 L 66.71522624850826,-17.70173332795943 A 58.19718507743907 58.19718507743907 0 0 1 76.88923921766136,-13.787948143118129 L 75.55463798824377,-11.101158319101913 L 83.38084901193545,-11.12167691181315 L 78.66870752355146,-17.37033457513975 L 77.33410629413387,-14.683544751123534 A 59.19718507743907 59.19718507743907 0 0 0 66.98527365018698,-18.66458035674779"/><text text-anchor="middle" pointer-events="none" font-size="8px" fill="#000000" x="49.163099517718564" y="-17.335206343330633" transform="rotate(180 49.163099517718564 -20.335206343330633)" font-family="sans-serif">WROTE</text></g><g class="relationship" transform="translate(196.41744163405195 -230.22758075897627) rotate(196.59505361300904)"><path class="outline" fill="#A5ABB6" stroke="none" d="M 24.018736134675446,-6.953439040707552 L 24.277555179777966,-5.987513214418485 A 101.54835899889497 101.54835899889497 0 0 1 31.2326003730088,-7.591421272007551 L 31.042271309052172,-8.573141622929029 A 102.54835899889497 102.54835899889497 0 0 0 24.018736134675446,-6.953439040707552 Z M 66.80249409364232,-9.153239017614496 L 66.64410745767267,-8.16586184877464 A 101.54835899889497 101.54835899889497 0 0 1 73.64751625039472,-6.788385903755587 L 72.9654576137885,-3.8669485834916593 L 80.57787977044492,-5.683821971718416 L 74.55692776586967,-10.68363566410749 L 73.87486912926346,-7.762198343843562 A 102.54835899889497 102.54835899889497 0 0 0 66.80249409364232,-9.153239017614496"/><text text-anchor="middle" pointer-events="none" font-size="8px" fill="#000000" x="48.90500787037225" y="-6.934265336644486" transform="rotate(180 48.90500787037225 -9.934265336644486)" font-family="sans-serif">WROTE</text></g><g class="relationship" transform="translate(196.41744163405195 -230.22758075897627) rotate(196.59505361300904)"><path class="outline" fill="#A5ABB6" stroke="none" d="M 24.018736134675446,6.953439040707552 L 24.277555179777966,5.987513214418485 A 101.54835899889497 101.54835899889497 0 0 0 25.833703305115456,6.391306732791904 L 25.590208467520362,7.361208925832273 A 102.54835899889497 102.54835899889497 0 0 1 24.018736134675446,6.953439040707552 Z M 72.29099754788402,8.118782675818792 L 72.07908978775578,7.141493004739942 A 101.54835899889497 101.54835899889497 0 0 0 73.64751625039472,6.788385903755587 L 72.9654576137885,3.8669485834916593 L 80.57787977044492,5.683821971718416 L 74.55692776586967,10.68363566410749 L 73.87486912926346,7.762198343843562 A 102.54835899889497 102.54835899889497 0 0 1 72.29099754788402,8.118782675818792"/><text text-anchor="middle" pointer-events="none" font-size="8px" fill="#000000" x="48.905007870372266" y="12.934265336644486" transform="rotate(180 48.905007870372266 9.934265336644486)" font-family="sans-serif">DIRECTED</text></g><g class="relationship" transform="translate(1.17153886966712 -216.06377646122147) rotate(335.01274295962025)"><path class="outline" fill="#A5ABB6" stroke="none" d="M 24.018736134675446,-6.953439040707552 L 24.277555179777966,-5.987513214418485 A 100.64377972853535 100.64377972853535 0 0 1 25.612893635137993,-6.33552206091143 L 25.367342558100283,-7.304905714871822 A 101.64377972853535 101.64377972853535 0 0 0 24.018736134675446,-6.953439040707552 Z M 72.06271044920186,-8.06546823410332 L 71.8488594062494,-7.088601952861026 A 100.64377972853535 100.64377972853535 0 0 1 73.1948230995288,-6.784265487785996 L 72.51314934830683,-3.8627383362957066 L 80.12533207820981,-5.680614593516441 L 74.10372143449143,-10.679635023106382 L 73.42204768326945,-7.758107871616092 A 101.64377972853535 101.64377972853535 0 0 0 72.06271044920186,-8.06546823410332"/><text text-anchor="middle" pointer-events="none" font-size="8px" fill="#000000" x="48.678895935049496" y="-6.9034532580666905" font-family="sans-serif">DIRECTED</text></g><g class="relationship" transform="translate(1.17153886966712 -216.06377646122147) rotate(335.01274295962025)"><path class="outline" fill="#A5ABB6" stroke="none" d="M 24.018736134675446,6.953439040707552 L 24.277555179777966,5.987513214418485 A 100.64377972853535 100.64377972853535 0 0 0 31.009278902452284,7.545712428870175 L 30.817346491981645,8.527120575265414 A 101.64377972853535 101.64377972853535 0 0 1 24.018736134675446,6.953439040707552 Z M 66.57579371774199,9.10954525535908 L 66.4159244998074,8.122407051682913 A 100.64377972853535 100.64377972853535 0 0 0 73.1948230995288,6.784265487785996 L 72.51314934830683,3.8627383362957066 L 80.12533207820981,5.680614593516441 L 74.10372143449143,10.679635023106382 L 73.42204768326945,7.758107871616092 A 101.64377972853535 101.64377972853535 0 0 1 66.57579371774199,9.10954525535908"/><text text-anchor="middle" pointer-events="none" font-size="8px" fill="#000000" x="48.67889593504953" y="12.90345325806669" font-family="sans-serif">WROTE</text></g><g class="relationship" transform="translate(-9.574442733753893 -21.160463582278084) rotate(385.0070483642123)"><path class="outline" fill="#A5ABB6" stroke="none" d="M 21.40063509461097,12.933012701892217 L 21.90063509461097,12.06698729810778 A 55.372297318424096 55.372297318424096 0 0 0 23.26094101200943,12.82704304175762 L 22.78550755490679,13.706794727102661 A 56.372297318424096 56.372297318424096 0 0 1 21.40063509461097,12.933012701892217 Z M 73.15446482226363,15.32254836227024 L 72.73639278707024,14.414134484464945 A 55.372297318424096 55.372297318424096 0 0 0 74.14261457482287,13.742824417495736 L 72.8122111776265,11.05395350190155 L 80.63838061074205,11.086694976636537 L 75.91648577108472,17.327985638287984 L 74.58608237388835,14.639114722693797 A 56.372297318424096 56.372297318424096 0 0 1 73.15446482226363,15.32254836227024"/><text text-anchor="middle" pointer-events="none" font-size="8px" fill="#000000" x="47.79541342746177" y="22.956743747828547" font-family="sans-serif">PRODUCED</text></g><g class="relationship" transform="translate(-9.574442733753893 -21.160463582278084) rotate(385.0070483642123)"><path class="outline" fill="#A5ABB6" stroke="none" d="M 25 0.5 L 26.134147245346803 0.5 L 26.134147245346803 -0.5 L 25 -0.5 Z M 69.91149099534681 0.5 L 71.0456382406936 0.5 L 71.0456382406936 3.5 L 78.0456382406936 0 L 71.0456382406936 -3.5 L 71.0456382406936 -0.5 L 69.91149099534681 -0.5 Z"/><text text-anchor="middle" pointer-events="none" font-size="8px" fill="#000000" x="48.0228191203468" y="3" font-family="sans-serif">DIRECT…</text></g><g class="relationship" transform="translate(-9.574442733753893 -21.160463582278084) rotate(385.0070483642123)"><path class="outline" fill="#A5ABB6" stroke="none" d="M 21.40063509461097,-12.933012701892217 L 21.90063509461097,-12.06698729810778 A 55.372297318424096 55.372297318424096 0 0 1 30.485196015330086,-16.08643982391468 L 30.140229512881266,-17.025054820698898 A 56.372297318424096 56.372297318424096 0 0 0 21.40063509461097,-12.933012701892217 Z M 65.6021937818312,-18.16261654097839 L 65.31809306587947,-17.2038220983601 A 55.372297318424096 55.372297318424096 0 0 1 74.14261457482287,-13.742824417495736 L 72.8122111776265,-11.05395350190155 L 80.63838061074205,-11.086694976636537 L 75.91648577108472,-17.327985638287984 L 74.58608237388835,-14.639114722693797 A 56.372297318424096 56.372297318424096 0 0 0 65.6021937818312,-18.16261654097839"/><text text-anchor="middle" pointer-events="none" font-size="8px" fill="#000000" x="47.795413427461774" y="-16.956743747828547" font-family="sans-serif">WROTE</text></g><g class="relationship" transform="translate(-171.18539849138622 -127.10287624034018) rotate(475.09682564444347)"><path class="outline" fill="#A5ABB6" stroke="none" d="M 21.40063509461097,12.933012701892217 L 21.90063509461097,12.06698729810778 A 57.1570655702984 57.1570655702984 0 0 0 24.054059258555537,13.249305929953096 L 23.591734813492767,14.136016766414116 A 58.1570655702984 58.1570655702984 0 0 1 21.40063509461097,12.933012701892217 Z M 74.0591832628783,15.729788377516947 L 73.65372925394769,14.815672932596506 A 57.1570655702984 57.1570655702984 0 0 0 75.87746373488467,13.771585802438928 L 74.54438466924125,11.084040415893195 L 82.37058281443196,11.10899221369522 L 77.65490248907591,17.35497965116657 L 76.32182342343249,14.667434264620837 A 58.1570655702984 58.1570655702984 0 0 1 74.0591832628783,15.729788377516947"/><text text-anchor="middle" pointer-events="none" font-size="8px" fill="#000000" x="48.65925407542454" y="23.195852628133537" transform="rotate(180 48.65925407542454 20.195852628133537)" font-family="sans-serif">PRODUCED</text></g><g class="relationship" transform="translate(-171.18539849138622 -127.10287624034018) rotate(475.09682564444347)"><path class="outline" fill="#A5ABB6" stroke="none" d="M 25 0.5 L 25.43808468448985 0.5 L 25.43808468448985 -0.5 L 25 -0.5 Z M 72.32870968448985 0.5 L 72.7667943689797 0.5 L 72.7667943689797 3.5 L 79.7667943689797 0 L 72.7667943689797 -3.5 L 72.7667943689797 -0.5 L 72.32870968448985 -0.5 Z"/><text text-anchor="middle" pointer-events="none" font-size="8px" fill="#000000" x="48.88339718448985" y="3" transform="rotate(180 48.88339718448985 0)" font-family="sans-serif">DIRECTED</text></g><g class="relationship" transform="translate(-171.18539849138622 -127.10287624034018) rotate(475.09682564444347)"><path class="outline" fill="#A5ABB6" stroke="none" d="M 21.40063509461097,-12.933012701892217 L 21.90063509461097,-12.06698729810778 A 57.1570655702984 57.1570655702984 0 0 1 31.321295665112544,-16.418292517856955 L 30.98611624287497,-17.360446833724843 A 58.1570655702984 58.1570655702984 0 0 0 21.40063509461097,-12.933012701892217 Z M 66.47608277366817,-18.481226720040986 L 66.20101877693725,-17.51980080105273 A 57.1570655702984 57.1570655702984 0 0 1 75.87746373488467,-13.771585802438928 L 74.54438466924125,-11.084040415893195 L 82.37058281443196,-11.10899221369522 L 77.65490248907591,-17.35497965116657 L 76.32182342343249,-14.667434264620837 A 58.1570655702984 58.1570655702984 0 0 0 66.47608277366817,-18.481226720040986"/><text text-anchor="middle" pointer-events="none" font-size="8px" fill="#000000" x="48.65925407542452" y="-17.195852628133537" transform="rotate(180 48.65925407542452 -20.195852628133537)" font-family="sans-serif">WROTE</text></g><g class="relationship" transform="translate(-221.24246711080886 148.4136507121527) rotate(384.6152891445373)"><path class="outline" fill="#A5ABB6" stroke="none" d="M 24.018736134675446,-6.953439040707552 L 24.277555179777966,-5.987513214418485 A 103.06037833951757 103.06037833951757 0 0 1 31.606174340898036,-7.6672780149975495 L 31.418465253659022,-8.649502683068903 A 104.06037833951757 104.06037833951757 0 0 0 24.018736134675446,-6.953439040707552 Z M 67.1815238589443,-9.225748058392952 L 67.0255569075608,-8.23798578432286 A 103.06037833951757 103.06037833951757 0 0 1 74.40448927932327,-6.795201792536014 L 73.72179397679261,-3.873913185790255 L 81.33461191215181,-5.689127521088782 L 75.31474968269748,-10.690253268197026 L 74.63205438016682,-7.7689646614512675 A 104.06037833951757 104.06037833951757 0 0 0 67.1815238589443,-9.225748058392952"/><text text-anchor="middle" pointer-events="none" font-size="8px" fill="#000000" x="49.283105947656054" y="-6.985769662413347" font-family="sans-serif">WROTE</text></g><g class="relationship" transform="translate(-221.24246711080886 148.4136507121527) rotate(384.6152891445373)"><path class="outline" fill="#A5ABB6" stroke="none" d="M 24.018736134675446,6.953439040707552 L 24.277555179777966,5.987513214418485 A 103.06037833951757 103.06037833951757 0 0 0 26.203215693837862,6.483631249358581 L 25.96308142891067,7.454370933727091 A 104.06037833951757 104.06037833951757 0 0 1 24.018736134675446,6.953439040707552 Z M 72.67257971600495,8.206994826127243 L 72.46384478563962,7.229022572509905 A 103.06037833951757 103.06037833951757 0 0 0 74.40448927932327,6.795201792536014 L 73.72179397679261,3.873913185790255 L 81.33461191215181,5.689127521088782 L 75.31474968269748,10.690253268197026 L 74.63205438016682,7.7689646614512675 A 104.06037833951757 104.06037833951757 0 0 1 72.67257971600495,8.206994826127243"/><text text-anchor="middle" pointer-events="none" font-size="8px" fill="#000000" x="49.28310594765611" y="12.985769662413347" font-family="sans-serif">DIRECTED</text></g><g class="relationship" transform="translate(-161.6297665219612 292.44042990540504) rotate(290.0314013030941)"><path class="outline" fill="#A5ABB6" stroke="none" d="M 24.018736134675446,-6.953439040707552 L 24.277555179777966,-5.987513214418485 A 104.60079273449583 104.60079273449583 0 0 1 26.580194727560677,-6.57654785963463 L 26.3433892780303,-7.548104949605531 A 105.60079273449583 105.60079273449583 0 0 0 24.018736134675446,-6.953439040707552 Z M 73.06133061426623,-8.295744557176661 L 72.85573463738217,-7.317107599827779 A 104.60079273449583 104.60079273449583 0 0 1 75.17604318270838,-6.802055219225531 L 74.49270771016857,-3.8809162920314124 L 82.1059232582513,-5.694462271165014 L 76.08715714609478,-10.696907122151021 L 75.40382167355497,-7.775768194956903 A 105.60079273449583 105.60079273449583 0 0 0 73.06133061426623,-8.295744557176661"/><text text-anchor="middle" pointer-events="none" font-size="8px" fill="#000000" x="49.66849194406777" y="-7.038242987937792" font-family="sans-serif">DIRECTED</text></g><g class="relationship" transform="translate(-161.6297665219612 292.44042990540504) rotate(290.0314013030941)"><path class="outline" fill="#A5ABB6" stroke="none" d="M 24.018736134675446,6.953439040707552 L 24.277555179777966,5.987513214418485 A 104.60079273449583 104.60079273449583 0 0 0 31.987123436071,7.743881741798219 L 31.80200907383701,8.72659872694436 A 105.60079273449583 105.60079273449583 0 0 1 24.018736134675446,6.953439040707552 Z M 67.56779621737127,9.29896810580918 L 67.41422195599372,8.310830996779103 A 104.60079273449583 104.60079273449583 0 0 0 75.17604318270838,6.802055219225531 L 74.49270771016857,3.8809162920314124 L 82.1059232582513,5.694462271165014 L 76.08715714609478,10.696907122151021 L 75.40382167355497,7.775768194956903 A 105.60079273449583 105.60079273449583 0 0 1 67.56779621737127,9.29896810580918"/><text text-anchor="middle" pointer-events="none" font-size="8px" fill="#000000" x="49.66849194406778" y="13.038242987937792" font-family="sans-serif">WROTE</text></g><g class="relationship" transform="translate(-25.57529826903917 409.69806765984566) rotate(391.5905034821905)"><path class="outline" fill="#A5ABB6" stroke="none" d="M 21.40063509461097,12.933012701892217 L 21.90063509461097,12.06698729810778 A 57.22243926541032 57.22243926541032 0 0 0 31.351981416120513,16.430348648718045 L 31.01714994865496,17.372626680083982 A 58.22243926541032 58.22243926541032 0 0 1 21.40063509461097,12.933012701892217 Z M 66.50808807210667,18.49279966638315 L 66.2333446304609,17.53128209437906 A 57.22243926541032 57.22243926541032 0 0 0 75.94103999977844,13.772622734761322 L 74.60786446939693,11.08512519891278 L 82.43406350515528,11.109796086512564 L 77.71860737362044,17.355952782559378 L 76.38543184323893,14.668455246710836 A 58.22243926541032 58.22243926541032 0 0 1 66.50808807210667,18.49279966638315"/><text text-anchor="middle" pointer-events="none" font-size="8px" fill="#000000" x="48.69091285427377" y="23.204611157377656" font-family="sans-serif">WROTE</text></g><g class="relationship" transform="translate(-25.57529826903917 409.69806765984566) rotate(391.5905034821905)"><path class="outline" fill="#A5ABB6" stroke="none" d="M 25 0.5 L 25.46962565194658 0.5 L 25.46962565194658 -0.5 L 25 -0.5 Z M 72.36025065194659 0.5 L 72.82987630389316 0.5 L 72.82987630389316 3.5 L 79.82987630389316 0 L 72.82987630389316 -3.5 L 72.82987630389316 -0.5 L 72.36025065194659 -0.5 Z"/><text text-anchor="middle" pointer-events="none" font-size="8px" fill="#000000" x="48.91493815194658" y="3" font-family="sans-serif">DIRECTED</text></g><g class="relationship" transform="translate(-25.57529826903917 409.69806765984566) rotate(391.5905034821905)"><path class="outline" fill="#A5ABB6" stroke="none" d="M 21.40063509461097,-12.933012701892217 L 21.90063509461097,-12.06698729810778 A 57.22243926541032 57.22243926541032 0 0 1 24.083241106716365,-13.264580282343182 L 23.62138359138015,-14.151534416178443 A 58.22243926541032 58.22243926541032 0 0 0 21.40063509461097,-12.933012701892217 Z M 74.09226148154455,-15.74450763685553 L 73.68725600510383,-14.830193377941768 A 57.22243926541032 57.22243926541032 0 0 1 75.94103999977844,-13.772622734761322 L 74.60786446939693,-11.08512519891278 L 82.43406350515528,-11.109796086512564 L 77.71860737362044,-17.355952782559378 L 76.38543184323893,-14.668455246710836 A 58.22243926541032 58.22243926541032 0 0 0 74.09226148154455,-15.74450763685553"/><text text-anchor="middle" pointer-events="none" font-size="8px" fill="#000000" x="48.69091285427376" y="-17.204611157377656" font-family="sans-serif">PRODUCED</text></g></g><g class="layer nodes"><g class="node" transform="translate(93.07463001830646,265.31857927142)"><circle class="outline" cx="0" cy="0" r="25" fill="#F79767" stroke="#f36924" stroke-width="2px"/><text text-anchor="middle" pointer-events="none" font-family="sans-serif" dy="1.5625" font-size="25" fill="#FFFFFF"/><text text-anchor="middle" pointer-events="none" font-family="sans-serif" dy="1.5625" font-size="25" fill="#FFFFFF"/><text text-anchor="middle" pointer-events="none" x="0" y="0" font-size="10px" fill="#FFFFFF" font-family="sans-serif"> Cameron</text><text text-anchor="middle" pointer-events="none" x="0" y="10" font-size="10px" fill="#FFFFFF" font-family="sans-serif"> Crowe</text></g><g class="node" transform="translate(120.10502239117766,165.21501143437337)"><circle class="outline" cx="0" cy="0" r="25" fill="#57C7E3" stroke="#23b3d7" stroke-width="2px"/><text text-anchor="middle" pointer-events="none" font-family="sans-serif" dy="1.5625" font-size="25" fill="#2A2C34"/><text text-anchor="middle" pointer-events="none" font-family="sans-serif" dy="1.5625" font-size="25" fill="#2A2C34"/><text text-anchor="middle" pointer-events="none" x="0" y="0" font-size="10px" fill="#2A2C34" font-family="sans-serif"> Jerry</text><text text-anchor="middle" pointer-events="none" x="0" y="10" font-size="10px" fill="#2A2C34" font-family="sans-serif"> Maguire</text></g><g class="node" transform="translate(263.09440461806616,388.89750503488455)"><circle class="outline" cx="0" cy="0" r="25" fill="#F79767" stroke="#f36924" stroke-width="2px"/><text text-anchor="middle" pointer-events="none" font-family="sans-serif" dy="1.5625" font-size="25" fill="#FFFFFF"/><text text-anchor="middle" pointer-events="none" font-family="sans-serif" dy="1.5625" font-size="25" fill="#FFFFFF"/><text text-anchor="middle" pointer-events="none" x="0" y="0" font-size="10px" fill="#FFFFFF" font-family="sans-serif"> Lana</text><text text-anchor="middle" pointer-events="none" x="0" y="10" font-size="10px" fill="#FFFFFF" font-family="sans-serif"> Wacho…</text></g><g class="node" transform="translate(282.5410895592043,283.7878821640429)"><circle class="outline" cx="0" cy="0" r="25" fill="#57C7E3" stroke="#23b3d7" stroke-width="2px"/><text text-anchor="middle" pointer-events="none" font-family="sans-serif" dy="1.5625" font-size="25" fill="#2A2C34"/><text text-anchor="middle" pointer-events="none" font-family="sans-serif" dy="1.5625" font-size="25" fill="#2A2C34"/><text text-anchor="middle" pointer-events="none" x="0" y="0" font-size="10px" fill="#2A2C34" font-family="sans-serif"> Speed</text><text text-anchor="middle" pointer-events="none" x="0" y="10" font-size="10px" fill="#2A2C34" font-family="sans-serif"> Racer</text></g><g class="node" transform="translate(387.9171678431628,274.96166755728666)"><circle class="outline" cx="0" cy="0" r="25" fill="#F79767" stroke="#f36924" stroke-width="2px"/><text text-anchor="middle" pointer-events="none" font-family="sans-serif" dy="1.5625" font-size="25" fill="#FFFFFF"/><text text-anchor="middle" pointer-events="none" font-family="sans-serif" dy="1.5625" font-size="25" fill="#FFFFFF"/><text text-anchor="middle" pointer-events="none" x="0" y="0" font-size="10px" fill="#FFFFFF" font-family="sans-serif"> Andy</text><text text-anchor="middle" pointer-events="none" x="0" y="10" font-size="10px" fill="#FFFFFF" font-family="sans-serif"> Wacho…</text></g><g class="node" transform="translate(462.25259141728395,70.95754843470961)"><circle class="outline" cx="0" cy="0" r="25" fill="#F79767" stroke="#f36924" stroke-width="2px"/><text text-anchor="middle" pointer-events="none" font-family="sans-serif" dy="1.5625" font-size="25" fill="#FFFFFF"/><text text-anchor="middle" pointer-events="none" font-family="sans-serif" dy="1.5625" font-size="25" fill="#FFFFFF"/><text text-anchor="middle" pointer-events="none" x="0" y="0" font-size="10px" fill="#FFFFFF" font-family="sans-serif"> Nancy</text><text text-anchor="middle" pointer-events="none" x="0" y="10" font-size="10px" fill="#FFFFFF" font-family="sans-serif"> Meyers</text></g><g class="node" transform="translate(359.3220394256959,88.97959223411667)"><circle class="outline" cx="0" cy="0" r="25" fill="#57C7E3" stroke="#23b3d7" stroke-width="2px"/><text text-anchor="middle" pointer-events="none" font-family="sans-serif" dy="1.5625" font-size="25" fill="#2A2C34"/><text text-anchor="middle" pointer-events="none" x="0" y="5" font-size="10px" fill="#2A2C34" font-family="sans-serif"> Somethi…</text></g><g class="node" transform="translate(359.79465125586825,-114.5988256362147)"><circle class="outline" cx="0" cy="0" r="25" fill="#F79767" stroke="#f36924" stroke-width="2px"/><text text-anchor="middle" pointer-events="none" font-family="sans-serif" dy="1.5625" font-size="25" fill="#FFFFFF"/><text text-anchor="middle" pointer-events="none" font-family="sans-serif" dy="1.5625" font-size="25" fill="#FFFFFF"/><text text-anchor="middle" pointer-events="none" x="0" y="0" font-size="10px" fill="#FFFFFF" font-family="sans-serif"> Cameron</text><text text-anchor="middle" pointer-events="none" x="0" y="10" font-size="10px" fill="#FFFFFF" font-family="sans-serif"> Crowe</text></g><g class="node" transform="translate(270.6752095225867,-57.632347184816005)"><circle class="outline" cx="0" cy="0" r="25" fill="#57C7E3" stroke="#23b3d7" stroke-width="2px"/><text text-anchor="middle" pointer-events="none" font-family="sans-serif" dy="1.5625" font-size="25" fill="#2A2C34"/><text text-anchor="middle" pointer-events="none" font-family="sans-serif" dy="1.5625" font-size="25" fill="#2A2C34"/><text text-anchor="middle" pointer-events="none" x="0" y="0" font-size="10px" fill="#2A2C34" font-family="sans-serif"> Jerry</text><text text-anchor="middle" pointer-events="none" x="0" y="10" font-size="10px" fill="#2A2C34" font-family="sans-serif"> Maguire</text></g><g class="node" transform="translate(196.41744163405195,-230.22758075897627)"><circle class="outline" cx="0" cy="0" r="25" fill="#F79767" stroke="#f36924" stroke-width="2px"/><text text-anchor="middle" pointer-events="none" font-family="sans-serif" dy="1.5625" font-size="25" fill="#FFFFFF"/><text text-anchor="middle" pointer-events="none" font-family="sans-serif" dy="1.5625" font-size="25" fill="#FFFFFF"/><text text-anchor="middle" pointer-events="none" x="0" y="0" font-size="10px" fill="#FFFFFF" font-family="sans-serif"> Lana</text><text text-anchor="middle" pointer-events="none" x="0" y="10" font-size="10px" fill="#FFFFFF" font-family="sans-serif"> Wacho…</text></g><g class="node" transform="translate(95.86459191358789,-260.1942351435831)"><circle class="outline" cx="0" cy="0" r="25" fill="#57C7E3" stroke="#23b3d7" stroke-width="2px"/><text text-anchor="middle" pointer-events="none" font-family="sans-serif" dy="1.5625" font-size="25" fill="#2A2C34"/><text text-anchor="middle" pointer-events="none" font-family="sans-serif" dy="1.5625" font-size="25" fill="#2A2C34"/><text text-anchor="middle" pointer-events="none" x="0" y="0" font-size="10px" fill="#2A2C34" font-family="sans-serif"> Speed</text><text text-anchor="middle" pointer-events="none" x="0" y="10" font-size="10px" fill="#2A2C34" font-family="sans-serif"> Racer</text></g><g class="node" transform="translate(1.17153886966712,-216.06377646122147)"><circle class="outline" cx="0" cy="0" r="25" fill="#F79767" stroke="#f36924" stroke-width="2px"/><text text-anchor="middle" pointer-events="none" font-family="sans-serif" dy="1.5625" font-size="25" fill="#FFFFFF"/><text text-anchor="middle" pointer-events="none" font-family="sans-serif" dy="1.5625" font-size="25" fill="#FFFFFF"/><text text-anchor="middle" pointer-events="none" x="0" y="0" font-size="10px" fill="#FFFFFF" font-family="sans-serif"> Lilly</text><text text-anchor="middle" pointer-events="none" x="0" y="10" font-size="10px" fill="#FFFFFF" font-family="sans-serif"> Wacho…</text></g><g class="node" transform="translate(-9.574442733753893,-21.160463582278084)"><circle class="outline" cx="0" cy="0" r="25" fill="#F79767" stroke="#f36924" stroke-width="2px"/><text text-anchor="middle" pointer-events="none" font-family="sans-serif" dy="1.5625" font-size="25" fill="#FFFFFF"/><text text-anchor="middle" pointer-events="none" font-family="sans-serif" dy="1.5625" font-size="25" fill="#FFFFFF"/><text text-anchor="middle" pointer-events="none" x="0" y="0" font-size="10px" fill="#FFFFFF" font-family="sans-serif"> Nancy</text><text text-anchor="middle" pointer-events="none" x="0" y="10" font-size="10px" fill="#FFFFFF" font-family="sans-serif"> Meyers</text></g><g class="node" transform="translate(83.8112636467767,22.399993305147078)"><circle class="outline" cx="0" cy="0" r="25" fill="#57C7E3" stroke="#23b3d7" stroke-width="2px"/><text text-anchor="middle" pointer-events="none" font-family="sans-serif" dy="1.5625" font-size="25" fill="#2A2C34"/><text text-anchor="middle" pointer-events="none" x="0" y="5" font-size="10px" fill="#2A2C34" font-family="sans-serif"> Somethi…</text></g><g class="node" transform="translate(-171.18539849138622,-127.10287624034018)"><circle class="outline" cx="0" cy="0" r="25" fill="#F79767" stroke="#f36924" stroke-width="2px"/><text text-anchor="middle" pointer-events="none" font-family="sans-serif" dy="1.5625" font-size="25" fill="#FFFFFF"/><text text-anchor="middle" pointer-events="none" font-family="sans-serif" dy="1.5625" font-size="25" fill="#FFFFFF"/><text text-anchor="middle" pointer-events="none" x="0" y="0" font-size="10px" fill="#FFFFFF" font-family="sans-serif"> Cameron</text><text text-anchor="middle" pointer-events="none" x="0" y="10" font-size="10px" fill="#FFFFFF" font-family="sans-serif"> Crowe</text></g><g class="node" transform="translate(-215.6221558428087,-32.22687401405073)"><circle class="outline" cx="0" cy="0" r="25" fill="#57C7E3" stroke="#23b3d7" stroke-width="2px"/><text text-anchor="middle" pointer-events="none" font-family="sans-serif" dy="1.5625" font-size="25" fill="#2A2C34"/><text text-anchor="middle" pointer-events="none" font-family="sans-serif" dy="1.5625" font-size="25" fill="#2A2C34"/><text text-anchor="middle" pointer-events="none" x="0" y="0" font-size="10px" fill="#2A2C34" font-family="sans-serif"> Jerry</text><text text-anchor="middle" pointer-events="none" x="0" y="10" font-size="10px" fill="#2A2C34" font-family="sans-serif"> Maguire</text></g><g class="node" transform="translate(-221.24246711080886,148.4136507121527)"><circle class="outline" cx="0" cy="0" r="25" fill="#F79767" stroke="#f36924" stroke-width="2px"/><text text-anchor="middle" pointer-events="none" font-family="sans-serif" dy="1.5625" font-size="25" fill="#FFFFFF"/><text text-anchor="middle" pointer-events="none" font-family="sans-serif" dy="1.5625" font-size="25" fill="#FFFFFF"/><text text-anchor="middle" pointer-events="none" x="0" y="0" font-size="10px" fill="#FFFFFF" font-family="sans-serif"> Lilly</text><text text-anchor="middle" pointer-events="none" x="0" y="10" font-size="10px" fill="#FFFFFF" font-family="sans-serif"> Wacho…</text></g><g class="node" transform="translate(-125.16733450115346,192.4312956840336)"><circle class="outline" cx="0" cy="0" r="25" fill="#57C7E3" stroke="#23b3d7" stroke-width="2px"/><text text-anchor="middle" pointer-events="none" font-family="sans-serif" dy="1.5625" font-size="25" fill="#2A2C34"/><text text-anchor="middle" pointer-events="none" font-family="sans-serif" dy="1.5625" font-size="25" fill="#2A2C34"/><text text-anchor="middle" pointer-events="none" x="0" y="0" font-size="10px" fill="#2A2C34" font-family="sans-serif"> Speed</text><text text-anchor="middle" pointer-events="none" x="0" y="10" font-size="10px" fill="#2A2C34" font-family="sans-serif"> Racer</text></g><g class="node" transform="translate(-161.6297665219612,292.44042990540504)"><circle class="outline" cx="0" cy="0" r="25" fill="#F79767" stroke="#f36924" stroke-width="2px"/><text text-anchor="middle" pointer-events="none" font-family="sans-serif" dy="1.5625" font-size="25" fill="#FFFFFF"/><text text-anchor="middle" pointer-events="none" font-family="sans-serif" dy="1.5625" font-size="25" fill="#FFFFFF"/><text text-anchor="middle" pointer-events="none" x="0" y="0" font-size="10px" fill="#FFFFFF" font-family="sans-serif"> Lana</text><text text-anchor="middle" pointer-events="none" x="0" y="10" font-size="10px" fill="#FFFFFF" font-family="sans-serif"> Wacho…</text></g><g class="node" transform="translate(-25.57529826903917,409.69806765984566)"><circle class="outline" cx="0" cy="0" r="25" fill="#F79767" stroke="#f36924" stroke-width="2px"/><text text-anchor="middle" pointer-events="none" font-family="sans-serif" dy="1.5625" font-size="25" fill="#FFFFFF"/><text text-anchor="middle" pointer-events="none" font-family="sans-serif" dy="1.5625" font-size="25" fill="#FFFFFF"/><text text-anchor="middle" pointer-events="none" x="0" y="0" font-size="10px" fill="#FFFFFF" font-family="sans-serif"> Nancy</text><text text-anchor="middle" pointer-events="none" x="0" y="10" font-size="10px" fill="#FFFFFF" font-family="sans-serif"> Meyers</text></g><g class="node" transform="translate(63.720233952761106,464.612645789109)"><circle class="outline" cx="0" cy="0" r="25" fill="#57C7E3" stroke="#23b3d7" stroke-width="2px"/><text text-anchor="middle" pointer-events="none" font-family="sans-serif" dy="1.5625" font-size="25" fill="#2A2C34"/><text text-anchor="middle" pointer-events="none" x="0" y="5" font-size="10px" fill="#2A2C34" font-family="sans-serif"> Somethi…</text></g></g></svg>