<svg xmlns="http://www.w3.org/2000/svg" width="379.55401611328125" height="355.3203125" viewBox="-72.91905212402344 -79.49864959716797 379.55401611328125 355.3203125"><title>Neo4j Graph Visualization</title><desc>Created using Neo4j (http://www.neo4j.com/)</desc><g class="layer relationships"><g class="relationship" transform="translate(21.63347391506366 -40.476928937262024) rotate(388.4872111224969)"><path class="outline" fill="#A5ABB6" stroke="none" d="M 24.018736134675446,-6.953439040707552 L 24.277555179777966,-5.987513214418485 A 168.32842507768743 168.32842507768743 0 0 1 54.78568502312802,-11.215880004735482 L 54.708107677573686,-12.212866341380447 A 169.32842507768743 169.32842507768743 0 0 0 24.018736134675446,-6.953439040707552 Z M 76.76766862298388,-12.487869760559477 L 76.71496919465757,-11.489259340899196 A 168.32842507768743 168.32842507768743 0 0 1 107.34395551725083,-7.023052596558923 L 106.63997819297495,-4.106819422255921 L 114.26582914467049,-5.866477702299029 L 108.28259194961868,-10.911363495629592 L 107.5786146253428,-7.99513032132659 A 169.32842507768743 169.32842507768743 0 0 0 76.76766862298388,-12.487869760559477"/><text text-anchor="middle" pointer-events="none" font-size="8px" fill="#000000" x="65.7396374390784" y="-9.210047821492566" font-family="sans-serif">road</text></g><g class="relationship" transform="translate(143.4239586626603 25.614714521763943) rotate(379.131955067025)"><path class="outline" fill="#A5ABB6" stroke="none" d="M 21.40063509461097,-12.933012701892217 L 21.90063509461097,-12.06698729810778 A 95.44738979613659 95.44738979613659 0 0 1 44.55556577414869,-21.503601115316698 L 44.2929209362744,-22.468493694383397 A 96.44738979613659 96.44738979613659 0 0 0 21.40063509461097,-12.933012701892217 Z M 90.53192283167937,-23.561100940394127 L 90.31514565519804,-22.584879830318755 A 95.44738979613659 95.44738979613659 0 0 1 113.39050860231492,-14.228852706821446 L 112.01489701032332,-11.562827060287205 L 119.8405037095601,-11.463429933263399 L 115.22465739163707,-17.7835535688671 L 113.84904579964547,-15.117527922332858 A 96.44738979613659 96.44738979613659 0 0 0 90.53192283167937,-23.561100940394127"/><text text-anchor="middle" pointer-events="none" font-size="8px" fill="#000000" x="67.35776812365212" y="-22.32773761361564" font-family="sans-serif">twowheeler</text></g><g class="relationship" transform="translate(277.6349834010802 72.17329284245551) rotate(202.8981921041963)"><path class="outline" fill="#A5ABB6" stroke="none" d="M 21.40063509461097,12.933012701892217 L 21.90063509461097,12.06698729810778 A 34.01428933836666 34.01428933836666 0 0 0 22.412903277006087,12.356864951409225 L 21.927963658756216,13.231412586848066 A 35.01428933836666 35.01428933836666 0 0 1 21.40063509461097,12.933012701892217 Z M 53.42212977128921,14.47405628496644 L 53.00760329419201,13.564019033099576 A 34.01428933836666 34.01428933836666 0 0 0 53.54111840768037,13.315404133591446 L 52.25048388949448,10.607219771243292 L 60.07532100619038,10.755287651549068 L 55.26196443192823,16.92631661672232 L 53.97132991374234,14.218132254374165 A 35.01428933836666 35.01428933836666 0 0 1 53.42212977128921,14.47405628496644"/><text text-anchor="middle" pointer-events="none" font-size="8px" fill="#000000" x="37.547031930900374" y="20.097203371060345" transform="rotate(180 37.547031930900374 17.097203371060345)" font-family="sans-serif">twow…</text></g><g class="relationship" transform="translate(201.50396051881455 40.017120522105586) rotate(465.38878275041486)"><path class="outline" fill="#A5ABB6" stroke="none" d="M 25 0.5 L 56.643875619229846 0.5 L 56.643875619229846 -0.5 L 25 -0.5 Z M 75.97981311922985 0.5 L 107.62368873845969 0.5 L 107.62368873845969 3.5 L 114.62368873845969 0 L 107.62368873845969 -3.5 L 107.62368873845969 -0.5 L 75.97981311922985 -0.5 Z"/><text text-anchor="middle" pointer-events="none" font-size="8px" fill="#000000" x="66.31184436922985" y="3" transform="rotate(180 66.31184436922985 0)" font-family="sans-serif">trek</text></g><g class="relationship" transform="translate(21.63347391506366 -40.476928937262024) rotate(388.4872111224969)"><path class="outline" fill="#A5ABB6" stroke="none" d="M 24.018736134675446,6.953439040707552 L 24.277555179777966,5.987513214418485 A 168.32842507768743 168.32842507768743 0 0 0 56.115989463720794,11.314092101685105 L 56.04631514725961,12.311661893542123 A 169.32842507768743 169.32842507768743 0 0 1 24.018736134675446,6.953439040707552 Z M 75.42741416570308,12.553274521767548 L 75.38262985532975,11.554277842321397 A 168.32842507768743 168.32842507768743 0 0 0 107.34395551725083,7.023052596558923 L 106.63997819297495,4.106819422255921 L 114.26582914467049,5.866477702299029 L 108.28259194961868,10.911363495629592 L 107.5786146253428,7.99513032132659 A 169.32842507768743 169.32842507768743 0 0 1 75.42741416570308,12.553274521767548"/><text text-anchor="middle" pointer-events="none" font-size="8px" fill="#000000" x="65.73963743907848" y="15.210047821492594" font-family="sans-serif">trek</text></g><g class="relationship" transform="translate(143.4239586626603 25.614714521763943) rotate(379.131955067025)"><path class="outline" fill="#A5ABB6" stroke="none" d="M 25 0.5 L 56.52283267367271 0.5 L 56.52283267367271 -0.5 L 25 -0.5 Z M 78.53455142367271 0.5 L 110.05738409734542 0.5 L 110.05738409734542 3.5 L 117.05738409734542 0 L 110.05738409734542 -3.5 L 110.05738409734542 -0.5 L 78.53455142367271 -0.5 Z"/><text text-anchor="middle" pointer-events="none" font-size="8px" fill="#000000" x="67.52869204867271" y="3" font-family="sans-serif">road</text></g><g class="relationship" transform="translate(143.4239586626603 25.614714521763943) rotate(379.131955067025)"><path class="outline" fill="#A5ABB6" stroke="none" d="M 21.40063509461097,12.933012701892217 L 21.90063509461097,12.06698729810778 A 95.44738979613659 95.44738979613659 0 0 0 57.782375308352506,24.117060862900843 L 57.65830743483999,25.109334596687077 A 96.44738979613659 96.44738979613659 0 0 1 21.40063509461097,12.933012701892217 Z M 77.05671912548456,25.56771051972801 L 76.97965753627498,24.570684185337342 A 95.44738979613659 95.44738979613659 0 0 0 113.39050860231492,14.228852706821446 L 112.01489701032332,11.562827060287205 L 119.8405037095601,11.463429933263399 L 115.22465739163707,17.7835535688671 L 113.84904579964547,15.117527922332858 A 96.44738979613659 96.44738979613659 0 0 1 77.05671912548456,25.56771051972801"/><text text-anchor="middle" pointer-events="none" font-size="8px" fill="#000000" x="67.3577681236521" y="28.32773761361564" font-family="sans-serif">trek</text></g><g class="relationship" transform="translate(277.6349834010802 72.17329284245551) rotate(202.8981921041963)"><path class="outline" fill="#A5ABB6" stroke="none" d="M 25 0.5 L 26.81590263787917 0.5 L 26.81590263787917 -0.5 L 25 -0.5 Z M 48.82762138787917 0.5 L 50.64352402575834 0.5 L 50.64352402575834 3.5 L 57.64352402575834 0 L 50.64352402575834 -3.5 L 50.64352402575834 -0.5 L 48.82762138787917 -0.5 Z"/><text text-anchor="middle" pointer-events="none" font-size="8px" fill="#000000" x="37.82176201287917" y="3" transform="rotate(180 37.82176201287917 0)" font-family="sans-serif">road</text></g><g class="relationship" transform="translate(277.6349834010802 72.17329284245551) rotate(202.8981921041963)"><path class="outline" fill="#A5ABB6" stroke="none" d="M 21.40063509461097,-12.933012701892217 L 21.90063509461097,-12.06698729810778 A 34.01428933836666 34.01428933836666 0 0 1 28.222525866558428,-14.90211969428308 L 27.908385718253662,-15.85149631460984 A 35.01428933836666 35.01428933836666 0 0 0 21.40063509461097,-12.933012701892217 Z M 47.253863107786614,-16.614797539328663 L 47.01550089905125,-15.643621212677942 A 34.01428933836666 34.01428933836666 0 0 1 53.54111840768037,-13.315404133591446 L 52.25048388949448,-10.607219771243292 L 60.07532100619038,-10.755287651549068 L 55.26196443192823,-16.92631661672232 L 53.97132991374234,-14.218132254374165 A 35.01428933836666 35.01428933836666 0 0 0 47.253863107786614,-16.614797539328663"/><text text-anchor="middle" pointer-events="none" font-size="8px" fill="#000000" x="37.547031930900374" y="-14.097203371060345" transform="rotate(180 37.547031930900374 -17.097203371060345)" font-family="sans-serif">trek</text></g><g class="relationship" transform="translate(21.63347391506366 -40.476928937262024) rotate(353.32767263177846)"><path class="outline" fill="#A5ABB6" stroke="none" d="M 21.40063509461097,12.933012701892217 L 21.90063509461097,12.06698729810778 A 37.824854276573205 37.824854276573205 0 0 0 29.99118032250353,15.553412026222148 L 29.70507527022058,16.511610282877925 A 38.824854276573205 38.824854276573205 0 0 1 21.40063509461097,12.933012701892217 Z M 49.07226602217308,17.245897221704112 L 48.85953621434328,16.268786158999006 A 37.824854276573205 37.824854276573205 0 0 0 57.19084389640589,13.404978941991123 L 55.89187405421523,10.700782693735615 L 63.71713011603386,10.824748684922167 L 58.922803685993436,17.010573939665136 L 57.62383384380278,14.306377691409628 A 38.824854276573205 38.824854276573205 0 0 1 49.07226602217308,17.245897221704112"/><text text-anchor="middle" pointer-events="none" font-size="8px" fill="#000000" x="39.3610583852298" y="20.607041151895338" font-family="sans-serif">trek</text></g><g class="relationship" transform="translate(107.30137722339892 -50.49865029848695) rotate(403.85657950842835)"><path class="outline" fill="#A5ABB6" stroke="none" d="M 25 0.5 L 52.15283855283374 0.5 L 52.15283855283374 -0.5 L 25 -0.5 Z M 71.48877605283374 0.5 L 98.64161460566748 0.5 L 98.64161460566748 3.5 L 105.64161460566748 0 L 98.64161460566748 -3.5 L 98.64161460566748 -0.5 L 71.48877605283374 -0.5 Z"/><text text-anchor="middle" pointer-events="none" font-size="8px" fill="#000000" x="61.82080730283374" y="3" font-family="sans-serif">trek</text></g><g class="relationship" transform="translate(21.63347391506366 -40.476928937262024) rotate(353.32767263177846)"><path class="outline" fill="#A5ABB6" stroke="none" d="M 25 0.5 L 28.620190050748214 0.5 L 28.620190050748214 -0.5 L 25 -0.5 Z M 50.631908800748214 0.5 L 54.25209885149643 0.5 L 54.25209885149643 3.5 L 61.25209885149643 0 L 54.25209885149643 -3.5 L 54.25209885149643 -0.5 L 50.631908800748214 -0.5 Z"/><text text-anchor="middle" pointer-events="none" font-size="8px" fill="#000000" x="39.626049425748214" y="3" font-family="sans-serif">road</text></g><g class="relationship" transform="translate(21.63347391506366 -40.476928937262024) rotate(353.32767263177846)"><path class="outline" fill="#A5ABB6" stroke="none" d="M 21.40063509461097,-12.933012701892217 L 21.90063509461097,-12.06698729810778 A 37.824854276573205 37.824854276573205 0 0 1 22.519308652921545,-12.416472013657767 L 22.035664923689616,-13.291736969642315 A 38.824854276573205 38.824854276573205 0 0 0 21.40063509461097,-12.933012701892217 Z M 56.963464793168185,-14.615988254951091 L 56.547483771186194,-13.706614960120625 A 37.824854276573205 37.824854276573205 0 0 1 57.19084389640589,-13.404978941991123 L 55.89187405421523,-10.700782693735615 L 63.71713011603386,-10.824748684922167 L 58.922803685993436,-17.010573939665136 L 57.62383384380278,-14.306377691409628 A 38.824854276573205 38.824854276573205 0 0 0 56.963464793168185,-14.615988254951091"/><text text-anchor="middle" pointer-events="none" font-size="8px" fill="#000000" x="39.36105838522979" y="-14.607041151895338" font-family="sans-serif">Public…</text></g><g class="relationship" transform="translate(107.30137722339892 -50.49865029848695) rotate(492.68916029094277)"><path class="outline" fill="#A5ABB6" stroke="none" d="M 24.018736134675446,-6.953439040707552 L 24.277555179777966,-5.987513214418485 A 181.78848058841575 181.78848058841575 0 0 1 46.076702072994166,-10.419517106210037 L 45.937797924713806,-11.409822936542525 A 182.78848058841575 182.78848058841575 0 0 0 24.018736134675446,-6.953439040707552 Z M 92.40076501441169,-11.963041503091972 L 92.28547936396882,-10.96970912226368 A 181.78848058841575 181.78848058841575 0 0 1 114.18397200182346,-7.057997993013637 L 113.47673088742287,-4.1425546294578615 L 121.10454670252037,-5.893675953338227 L 115.12696015435758,-10.945255811088003 L 114.41971903995699,-8.02981244753223 A 182.78848058841575 182.78848058841575 0 0 0 92.40076501441169,-11.963041503091972"/><text text-anchor="middle" pointer-events="none" font-size="8px" fill="#000000" x="69.15758373659102" y="-9.668885476003396" transform="rotate(180 69.15758373659102 -12.668885476003396)" font-family="sans-serif">twowheeler</text></g><g class="relationship" transform="translate(8.717241371163354 56.37651718077127) rotate(426.02153222274103)"><path class="outline" fill="#A5ABB6" stroke="none" d="M 24.018736134675446,-6.953439040707552 L 24.277555179777966,-5.987513214418485 A 116.00483850568122 116.00483850568122 0 0 1 29.592713197692802,-7.278210414855295 L 29.37971256918723,-8.25526247705885 A 117.00483850568122 117.00483850568122 0 0 0 24.018736134675446,-6.953439040707552 Z M 75.72993644160368,-8.961388272289327 L 75.54679769276063,-7.978301196455149 A 116.00483850568122 116.00483850568122 0 0 1 80.8988063821754,-6.8501137089121364 L 80.21098189099827,-3.9300285270489552 L 87.82697588838568,-5.731870759809376 L 81.81590570374489,-10.743560618063045 L 81.12808121256776,-7.823475436199864 A 117.00483850568122 117.00483850568122 0 0 0 75.72993644160368,-8.961388272289327"/><text text-anchor="middle" pointer-events="none" font-size="8px" fill="#000000" x="52.52712136232171" y="-7.426764655763691" font-family="sans-serif">twowheeler</text></g><g class="relationship" transform="translate(54.29872765051557 158.85784380916726) rotate(368.15092536580346)"><path class="outline" fill="#A5ABB6" stroke="none" d="M 24.018736134675446,6.953439040707552 L 24.277555179777966,5.987513214418485 A 114.24401887784676 114.24401887784676 0 0 0 29.15786186146878,7.180819135099554 L 28.941761084942833,8.157190198980942 A 115.24401887784676 115.24401887784676 0 0 1 24.018736134675446,6.953439040707552 Z M 75.28541810781503,8.868498805984174 L 75.09938385404502,7.885955546669749 A 114.24401887784676 114.24401887784676 0 0 0 80.01401412553926,6.842987847169995 L 79.32685523543311,3.9227459633959687 L 86.9424383360297,5.7263240842179695 L 80.93022597901414,10.736643692202032 L 80.24306708890799,7.8164018084280045 A 115.24401887784676 115.24401887784676 0 0 1 75.28541810781503,8.868498805984174"/><text text-anchor="middle" pointer-events="none" font-size="8px" fill="#000000" x="52.08513449311362" y="13.366770538656567" font-family="sans-serif">twowheeler</text></g><g class="relationship" transform="translate(107.30137722339892 -50.49865029848695) rotate(492.68916029094277)"><path class="outline" fill="#A5ABB6" stroke="none" d="M 24.018736134675446,6.953439040707552 L 24.277555179777966,5.987513214418485 A 181.78848058841575 181.78848058841575 0 0 0 59.53033196636907,11.798588394144474 L 59.46543487205509,12.796480355806466 A 182.78848058841575 182.78848058841575 0 0 1 24.018736134675446,6.953439040707552 Z M 78.84394688268566,13.027213632389618 L 78.80282793075727,12.028059374133022 A 181.78848058841575 181.78848058841575 0 0 0 114.18397200182346,7.057997993013637 L 113.47673088742287,4.1425546294578615 L 121.10454670252037,5.893675953338227 L 115.12696015435758,10.945255811088003 L 114.41971903995699,8.02981244753223 A 182.78848058841575 182.78848058841575 0 0 1 78.84394688268566,13.027213632389618"/><text text-anchor="middle" pointer-events="none" font-size="8px" fill="#000000" x="69.15758373659108" y="15.668885476003396" transform="rotate(180 69.15758373659108 12.668885476003396)" font-family="sans-serif">trek</text></g><g class="relationship" transform="translate(8.717241371163354 56.37651718077127) rotate(426.02153222274103)"><path class="outline" fill="#A5ABB6" stroke="none" d="M 24.018736134675446,6.953439040707552 L 24.277555179777966,5.987513214418485 A 116.00483850568122 116.00483850568122 0 0 0 42.92650171640908,9.38120919985333 L 42.828442746290136,10.376389805763239 A 117.00483850568122 117.00483850568122 0 0 1 24.018736134675446,6.953439040707552 Z M 62.222833570679285,10.6718550376374 L 62.15513537150435,9.674149192295957 A 116.00483850568122 116.00483850568122 0 0 0 80.8988063821754,6.8501137089121364 L 80.21098189099827,3.9300285270489552 L 87.82697588838568,5.731870759809376 L 81.81590570374489,10.743560618063045 L 81.12808121256776,7.823475436199864 A 117.00483850568122 117.00483850568122 0 0 1 62.222833570679285,10.6718550376374"/><text text-anchor="middle" pointer-events="none" font-size="8px" fill="#000000" x="52.52712136232172" y="13.42676465576369" font-family="sans-serif">trek</text></g><g class="relationship" transform="translate(54.29872765051557 158.85784380916726) rotate(368.15092536580346)"><path class="outline" fill="#A5ABB6" stroke="none" d="M 24.018736134675446,-6.953439040707552 L 24.277555179777966,-5.987513214418485 A 114.24401887784676 114.24401887784676 0 0 1 42.48570485739775,-9.314044841023161 L 42.386265269149675,-10.309088442223157 A 115.24401887784676 115.24401887784676 0 0 0 24.018736134675446,-6.953439040707552 Z M 61.781205362273205,-10.606772930388232 L 61.712350402292444,-9.609146249466932 A 114.24401887784676 114.24401887784676 0 0 1 80.01401412553926,-6.842987847169995 L 79.32685523543311,-3.9227459633959687 L 86.9424383360297,-5.7263240842179695 L 80.93022597901414,-10.736643692202032 L 80.24306708890799,-7.8164018084280045 A 115.24401887784676 115.24401887784676 0 0 0 61.781205362273205,-10.606772930388232"/><text text-anchor="middle" pointer-events="none" font-size="8px" fill="#000000" x="52.08513449311357" y="-7.366770538656553" font-family="sans-serif">trek</text></g><g class="relationship" transform="translate(107.30137722339892 -50.49865029848695) rotate(424.61148879508073)"><path class="outline" fill="#A5ABB6" stroke="none" d="M 25 0.5 L 28.957098591479344 0.5 L 28.957098591479344 -0.5 L 25 -0.5 Z M 48.293036091479344 0.5 L 52.25013468295869 0.5 L 52.25013468295869 3.5 L 59.25013468295869 0 L 52.25013468295869 -3.5 L 52.25013468295869 -0.5 L 48.293036091479344 -0.5 Z"/><text text-anchor="middle" pointer-events="none" font-size="8px" fill="#000000" x="38.625067341479344" y="3" font-family="sans-serif">trek</text></g><g class="relationship" transform="translate(8.717241371163354 56.37651718077127) rotate(474.6311122501223)"><path class="outline" fill="#A5ABB6" stroke="none" d="M 24.018736134675446,-6.953439040707552 L 24.277555179777966,-5.987513214418485 A 144.07759265233827 144.07759265233827 0 0 1 36.580796234519624,-8.713619348649672 L 36.407370350339974,-9.69846627213397 A 145.07759265233827 145.07759265233827 0 0 0 24.018736134675446,-6.953439040707552 Z M 82.82820218497196,-10.330547614115602 L 82.68165562553742,-9.341343840407717 A 144.07759265233827 144.07759265233827 0 0 1 95.05456073224602,-6.951236243131399 L 94.35729101837056,-4.033392013890906 L 101.9790755527864,-5.810580948962095 L 95.98425368407995,-10.841695215452056 L 95.28698397020449,-7.923850986211564 A 145.07759265233827 145.07759265233827 0 0 0 82.82820218497196,-10.330547614115602"/><text text-anchor="middle" pointer-events="none" font-size="8px" fill="#000000" x="59.59914646038015" y="-8.383437334691848" transform="rotate(180 59.59914646038015 -11.383437334691848)" font-family="sans-serif">twowheeler</text></g><g class="relationship" transform="translate(-43.91905690923469 171.17942098285175) rotate(352.84950896991415)"><path class="outline" fill="#A5ABB6" stroke="none" d="M 21.40063509461097,12.933012701892217 L 21.90063509461097,12.06698729810778 A 51.155571925587445 51.155571925587445 0 0 0 23.717036657128855,13.067160540313836 L 23.25254406119346,13.952737543358289 A 52.155571925587445 52.155571925587445 0 0 1 21.40063509461097,12.933012701892217 Z M 68.57626160231847,15.46281154928527 L 68.17174412190401,14.548281282952253 A 51.155571925587445 51.155571925587445 0 0 0 70.05069022679305,13.671227871999024 L 68.72694767130628,10.979071552838986 L 76.55301206408093,11.031187962389868 L 71.81568030077543,17.260769630879075 L 70.49193774528865,14.568613311719036 A 52.155571925587445 52.155571925587445 0 0 1 68.57626160231847,15.46281154928527"/><text text-anchor="middle" pointer-events="none" font-size="8px" fill="#000000" x="45.758339776425" y="22.391887914715213" font-family="sans-serif">twowheeler</text></g><g class="relationship" transform="translate(8.717241371163354 56.37651718077127) rotate(474.6311122501223)"><path class="outline" fill="#A5ABB6" stroke="none" d="M 24.018736134675446,6.953439040707552 L 24.277555179777966,5.987513214418485 A 144.07759265233827 144.07759265233827 0 0 0 49.98387583122983,10.430423665266773 L 49.90347676232362,11.427186420248631 A 145.07759265233827 145.07759265233827 0 0 1 24.018736134675446,6.953439040707552 Z M 69.2900304015986,11.691160122494296 L 69.23680060828808,10.692577832893619 A 144.07759265233827 144.07759265233827 0 0 0 95.05456073224602,6.951236243131399 L 94.35729101837056,4.033392013890906 L 101.9790755527864,5.810580948962095 L 95.98425368407995,10.841695215452056 L 95.28698397020449,7.923850986211564 A 145.07759265233827 145.07759265233827 0 0 1 69.2900304015986,11.691160122494296"/><text text-anchor="middle" pointer-events="none" font-size="8px" fill="#000000" x="59.59914646038015" y="14.383437334691848" transform="rotate(180 59.59914646038015 11.383437334691848)" font-family="sans-serif">trek</text></g><g class="relationship" transform="translate(-43.91905690923469 171.17942098285175) rotate(352.84950896991415)"><path class="outline" fill="#A5ABB6" stroke="none" d="M 25 0.5 L 34.98796465354063 0.5 L 34.98796465354063 -0.5 L 25 -0.5 Z M 56.99968340354063 0.5 L 66.98764805708126 0.5 L 66.98764805708126 3.5 L 73.98764805708126 0 L 66.98764805708126 -3.5 L 66.98764805708126 -0.5 L 56.99968340354063 -0.5 Z"/><text text-anchor="middle" pointer-events="none" font-size="8px" fill="#000000" x="45.99382402854063" y="3" font-family="sans-serif">road</text></g><g class="relationship" transform="translate(-43.91905690923469 171.17942098285175) rotate(352.84950896991415)"><path class="outline" fill="#A5ABB6" stroke="none" d="M 21.40063509461097,-12.933012701892217 L 21.90063509461097,-12.06698729810778 A 51.155571925587445 51.155571925587445 0 0 1 36.29142879511197,-17.682331618431796 L 36.07274309106852,-18.658126967286783 A 52.155571925587445 52.155571925587445 0 0 0 21.40063509461097,-12.933012701892217 Z M 55.4712971489878,-19.304438740120816 L 55.31804648378588,-18.31625139269363 A 51.155571925587445 51.155571925587445 0 0 1 70.05069022679305,-13.671227871999024 L 68.72694767130628,-10.979071552838986 L 76.55301206408093,-11.031187962389868 L 71.81568030077543,-17.260769630879075 L 70.49193774528865,-14.568613311719036 A 52.155571925587445 52.155571925587445 0 0 0 55.4712971489878,-19.304438740120816"/><text text-anchor="middle" pointer-events="none" font-size="8px" fill="#000000" x="45.758339776425" y="-16.391887914715213" font-family="sans-serif">trek</text></g><g class="relationship" transform="translate(-43.91905690923469 171.17942098285175) rotate(396.2097889572724)"><path class="outline" fill="#A5ABB6" stroke="none" d="M 25 0.5 L 50.854942238863416 0.5 L 50.854942238863416 -0.5 L 25 -0.5 Z M 70.19087973886342 0.5 L 96.04582197772683 0.5 L 96.04582197772683 3.5 L 103.04582197772683 0 L 96.04582197772683 -3.5 L 96.04582197772683 -0.5 L 70.19087973886342 -0.5 Z"/><text text-anchor="middle" pointer-events="none" font-size="8px" fill="#000000" x="60.522910988863416" y="3" font-family="sans-serif">trek</text></g><g class="relationship" transform="translate(59.39591762893157 246.82166157717688) rotate(325.5061438762744)"><path class="outline" fill="#A5ABB6" stroke="none" d="M 25 0.5 L 50.56543329915127 0.5 L 50.56543329915127 -0.5 L 25 -0.5 Z M 69.90137079915127 0.5 L 95.46680409830255 0.5 L 95.46680409830255 3.5 L 102.46680409830255 0 L 95.46680409830255 -3.5 L 95.46680409830255 -0.5 L 69.90137079915127 -0.5 Z"/><text text-anchor="middle" pointer-events="none" font-size="8px" fill="#000000" x="60.23340204915127" y="3" font-family="sans-serif">trek</text></g></g><g class="layer nodes"><g class="node" transform="translate(21.63347391506366,-40.476928937262024)"><circle class="outline" cx="0" cy="0" r="25" fill="#F16667" stroke="#eb2728" stroke-width="2px"/><text text-anchor="middle" pointer-events="none" font-family="sans-serif" dy="1.5625" font-size="25" fill="#FFFFFF"/><text text-anchor="middle" pointer-events="none" x="0" y="5" font-size="10px" fill="#FFFFFF" font-family="sans-serif"> Darjeeling</text></g><g class="node" transform="translate(164.4523903159026,174.63493361692957)"><circle class="outline" cx="0" cy="0" r="25" fill="#8DCC93" stroke="#5db665" stroke-width="2px"/><text text-anchor="middle" pointer-events="none" font-family="sans-serif" dy="1.5625" font-size="25" fill="#2A2C34"/><text text-anchor="middle" pointer-events="none" x="0" y="5" font-size="10px" fill="#2A2C34" font-family="sans-serif"> Sandak…</text></g><g class="node" transform="translate(143.4239586626603,25.614714521763943)"><circle class="outline" cx="0" cy="0" r="25" fill="#D9C8AE" stroke="#c0a378" stroke-width="2px"/><text text-anchor="middle" pointer-events="none" font-family="sans-serif" dy="1.5625" font-size="25" fill="#2A2C34"/><text text-anchor="middle" pointer-events="none" x="0" y="5" font-size="10px" fill="#2A2C34" font-family="sans-serif"> Tumbling</text></g><g class="node" transform="translate(277.6349834010802,72.17329284245551)"><circle class="outline" cx="0" cy="0" r="25" fill="#D9C8AE" stroke="#c0a378" stroke-width="2px"/><text text-anchor="middle" pointer-events="none" font-family="sans-serif" dy="1.5625" font-size="25" fill="#2A2C34"/><text text-anchor="middle" pointer-events="none" x="0" y="5" font-size="10px" fill="#2A2C34" font-family="sans-serif"> Gairibus</text></g><g class="node" transform="translate(201.50396051881455,40.017120522105586)"><circle class="outline" cx="0" cy="0" r="25" fill="#D9C8AE" stroke="#c0a378" stroke-width="2px"/><text text-anchor="middle" pointer-events="none" font-family="sans-serif" dy="1.5625" font-size="25" fill="#2A2C34"/><text text-anchor="middle" pointer-events="none" x="0" y="5" font-size="10px" fill="#2A2C34" font-family="sans-serif"> BhikeBh…</text></g><g class="node" transform="translate(107.30137722339892,-50.49865029848695)"><circle class="outline" cx="0" cy="0" r="25" fill="#F16667" stroke="#eb2728" stroke-width="2px"/><text text-anchor="middle" pointer-events="none" font-family="sans-serif" dy="1.5625" font-size="25" fill="#FFFFFF"/><text text-anchor="middle" pointer-events="none" x="0" y="5" font-size="10px" fill="#FFFFFF" font-family="sans-serif"> Rimbik</text></g><g class="node" transform="translate(8.717241371163354,56.37651718077127)"><circle class="outline" cx="0" cy="0" r="25" fill="#D9C8AE" stroke="#c0a378" stroke-width="2px"/><text text-anchor="middle" pointer-events="none" font-family="sans-serif" dy="1.5625" font-size="25" fill="#2A2C34"/><text text-anchor="middle" pointer-events="none" x="0" y="5" font-size="10px" fill="#2A2C34" font-family="sans-serif"> Sirikhola</text></g><g class="node" transform="translate(54.29872765051557,158.85784380916726)"><circle class="outline" cx="0" cy="0" r="25" fill="#D9C8AE" stroke="#c0a378" stroke-width="2px"/><text text-anchor="middle" pointer-events="none" font-family="sans-serif" dy="1.5625" font-size="25" fill="#2A2C34"/><text text-anchor="middle" pointer-events="none" x="0" y="5" font-size="10px" fill="#2A2C34" font-family="sans-serif"> Gurdum</text></g><g class="node" transform="translate(-43.91905690923469,171.17942098285175)"><circle class="outline" cx="0" cy="0" r="25" fill="#D9C8AE" stroke="#c0a378" stroke-width="2px"/><text text-anchor="middle" pointer-events="none" font-family="sans-serif" dy="1.5625" font-size="25" fill="#2A2C34"/><text text-anchor="middle" pointer-events="none" x="0" y="5" font-size="10px" fill="#2A2C34" font-family="sans-serif"> Rammam</text></g><g class="node" transform="translate(59.39591762893157,246.82166157717688)"><circle class="outline" cx="0" cy="0" r="25" fill="#8DCC93" stroke="#5db665" stroke-width="2px"/><text text-anchor="middle" pointer-events="none" font-family="sans-serif" dy="1.5625" font-size="25" fill="#2A2C34"/><text text-anchor="middle" pointer-events="none" x="0" y="5" font-size="10px" fill="#2A2C34" font-family="sans-serif"> Sabargr…</text></g></g></svg>