<svg xmlns="http://www.w3.org/2000/svg" width="649.2290649414062" height="647.0501098632812" viewBox="-194.86761474609375 -181.789306640625 649.2290649414062 647.0501098632812"><title>Neo4j Graph Visualization</title><desc>Created using Neo4j (http://www.neo4j.com/)</desc><g class="layer relationships"><g class="relationship" transform="translate(56.34869889488509 332.0801388271706) rotate(521.9092465428209)"><path class="outline" fill="#A5ABB6" stroke="none" d="M 25 0.5 L 30.049097504231383 0.5 L 30.049097504231383 -0.5 L 25 -0.5 Z M 75.61159750423138 0.5 L 80.66069500846277 0.5 L 80.66069500846277 3.5 L 87.66069500846277 0 L 80.66069500846277 -3.5 L 80.66069500846277 -0.5 L 75.61159750423138 -0.5 Z"/><text text-anchor="middle" pointer-events="none" font-size="8px" fill="#000000" x="52.83034750423138" y="3" transform="rotate(180 52.83034750423138 0)" font-family="sans-serif">ACTED_IN</text></g><g class="relationship" transform="translate(56.34869889488509 332.0801388271706) rotate(433.6397346122905)"><path class="outline" fill="#A5ABB6" stroke="none" d="M 25 0.5 L 28.00725788403318 0.5 L 28.00725788403318 -0.5 L 25 -0.5 Z M 73.56975788403318 0.5 L 76.57701576806636 0.5 L 76.57701576806636 3.5 L 83.57701576806636 0 L 76.57701576806636 -3.5 L 76.57701576806636 -0.5 L 73.56975788403318 -0.5 Z"/><text text-anchor="middle" pointer-events="none" font-size="8px" fill="#000000" x="50.78850788403318" y="3" font-family="sans-serif">ACTED_IN</text></g><g class="relationship" transform="translate(56.34869889488509 332.0801388271706) rotate(368.94920346155175)"><path class="outline" fill="#A5ABB6" stroke="none" d="M 25 0.5 L 31.76253573856291 0.5 L 31.76253573856291 -0.5 L 25 -0.5 Z M 77.32503573856292 0.5 L 84.08757147712582 0.5 L 84.08757147712582 3.5 L 91.08757147712582 0 L 84.08757147712582 -3.5 L 84.08757147712582 -0.5 L 77.32503573856292 -0.5 Z"/><text text-anchor="middle" pointer-events="none" font-size="8px" fill="#000000" x="54.54378573856291" y="3" font-family="sans-serif">ACTED_IN</text></g><g class="relationship" transform="translate(56.34869889488509 332.0801388271706) rotate(220.8669469295778)"><path class="outline" fill="#A5ABB6" stroke="none" d="M 25 0.5 L 29.651602233837053 0.5 L 29.651602233837053 -0.5 L 25 -0.5 Z M 75.21410223383705 0.5 L 79.8657044676741 0.5 L 79.8657044676741 3.5 L 86.8657044676741 0 L 79.8657044676741 -3.5 L 79.8657044676741 -0.5 L 75.21410223383705 -0.5 Z"/><text text-anchor="middle" pointer-events="none" font-size="8px" fill="#000000" x="52.43285223383705" y="3" transform="rotate(180 52.43285223383705 0)" font-family="sans-serif">ACTED_IN</text></g><g class="relationship" transform="translate(56.34869889488509 332.0801388271706) rotate(305.92804603690087)"><path class="outline" fill="#A5ABB6" stroke="none" d="M 25 0.5 L 28.43539246607125 0.5 L 28.43539246607125 -0.5 L 25 -0.5 Z M 73.99789246607125 0.5 L 77.4332849321425 0.5 L 77.4332849321425 3.5 L 84.4332849321425 0 L 77.4332849321425 -3.5 L 77.4332849321425 -0.5 L 73.99789246607125 -0.5 Z"/><text text-anchor="middle" pointer-events="none" font-size="8px" fill="#000000" x="51.21664246607125" y="3" font-family="sans-serif">ACTED_IN</text></g><g class="relationship" transform="translate(319.5681985073889 11.32895358365138) rotate(374.6210835662232)"><path class="outline" fill="#A5ABB6" stroke="none" d="M 25 0.5 L 28.385682360607994 0.5 L 28.385682360607994 -0.5 L 25 -0.5 Z M 73.948182360608 0.5 L 77.33386472121599 0.5 L 77.33386472121599 3.5 L 84.33386472121599 0 L 77.33386472121599 -3.5 L 77.33386472121599 -0.5 L 73.948182360608 -0.5 Z"/><text text-anchor="middle" pointer-events="none" font-size="8px" fill="#000000" x="51.166932360607994" y="3" font-family="sans-serif">ACTED_IN</text></g><g class="relationship" transform="translate(319.5681985073889 11.32895358365138) rotate(283.7890343406607)"><path class="outline" fill="#A5ABB6" stroke="none" d="M 25 0.5 L 29.56095944063891 0.5 L 29.56095944063891 -0.5 L 25 -0.5 Z M 75.12345944063891 0.5 L 79.68441888127782 0.5 L 79.68441888127782 3.5 L 86.68441888127782 0 L 79.68441888127782 -3.5 L 79.68441888127782 -0.5 L 75.12345944063891 -0.5 Z"/><text text-anchor="middle" pointer-events="none" font-size="8px" fill="#000000" x="52.34220944063891" y="3" font-family="sans-serif">ACTED_IN</text></g><g class="relationship" transform="translate(319.5681985073889 11.32895358365138) rotate(436.7574788031037)"><path class="outline" fill="#A5ABB6" stroke="none" d="M 25 0.5 L 31.530720988073966 0.5 L 31.530720988073966 -0.5 L 25 -0.5 Z M 77.09322098807397 0.5 L 83.62394197614793 0.5 L 83.62394197614793 3.5 L 90.62394197614793 0 L 83.62394197614793 -3.5 L 83.62394197614793 -0.5 L 77.09322098807397 -0.5 Z"/><text text-anchor="middle" pointer-events="none" font-size="8px" fill="#000000" x="54.311970988073966" y="3" font-family="sans-serif">ACTED_IN</text></g><g class="relationship" transform="translate(319.5681985073889 11.32895358365138) rotate(225.3349718859523)"><path class="outline" fill="#A5ABB6" stroke="none" d="M 25 0.5 L 30.32787773563139 0.5 L 30.32787773563139 -0.5 L 25 -0.5 Z M 75.89037773563139 0.5 L 81.21825547126278 0.5 L 81.21825547126278 3.5 L 88.21825547126278 0 L 81.21825547126278 -3.5 L 81.21825547126278 -0.5 L 75.89037773563139 -0.5 Z"/><text text-anchor="middle" pointer-events="none" font-size="8px" fill="#000000" x="53.10912773563139" y="3" transform="rotate(180 53.10912773563139 0)" font-family="sans-serif">ACTED_IN</text></g><g class="relationship" transform="translate(319.5681985073889 11.32895358365138) rotate(504.47201570394435)"><path class="outline" fill="#A5ABB6" stroke="none" d="M 25 0.5 L 28.248957825849082 0.5 L 28.248957825849082 -0.5 L 25 -0.5 Z M 73.81145782584909 0.5 L 77.06041565169816 0.5 L 77.06041565169816 3.5 L 84.06041565169816 0 L 77.06041565169816 -3.5 L 77.06041565169816 -0.5 L 73.81145782584909 -0.5 Z"/><text text-anchor="middle" pointer-events="none" font-size="8px" fill="#000000" x="51.03020782584908" y="3" transform="rotate(180 51.03020782584908 0)" font-family="sans-serif">ACTED_IN</text></g><g class="relationship" transform="translate(-73.48212138641134 -46.302165114038) rotate(292.1592953082043)"><path class="outline" fill="#A5ABB6" stroke="none" d="M 25 0.5 L 31.20859273923741 0.5 L 31.20859273923741 -0.5 L 25 -0.5 Z M 76.77109273923742 0.5 L 82.97968547847482 0.5 L 82.97968547847482 3.5 L 89.97968547847482 0 L 82.97968547847482 -3.5 L 82.97968547847482 -0.5 L 76.77109273923742 -0.5 Z"/><text text-anchor="middle" pointer-events="none" font-size="8px" fill="#000000" x="53.98984273923741" y="3" font-family="sans-serif">ACTED_IN</text></g><g class="relationship" transform="translate(-73.48212138641134 -46.302165114038) rotate(215.88283307748537)"><path class="outline" fill="#A5ABB6" stroke="none" d="M 25 0.5 L 27.823431295262324 0.5 L 27.823431295262324 -0.5 L 25 -0.5 Z M 73.38593129526232 0.5 L 76.20936259052465 0.5 L 76.20936259052465 3.5 L 83.20936259052465 0 L 76.20936259052465 -3.5 L 76.20936259052465 -0.5 L 73.38593129526232 -0.5 Z"/><text text-anchor="middle" pointer-events="none" font-size="8px" fill="#000000" x="50.604681295262324" y="3" transform="rotate(180 50.604681295262324 0)" font-family="sans-serif">ACTED_IN</text></g><g class="relationship" transform="translate(-73.48212138641134 -46.302165114038) rotate(443.2384261242964)"><path class="outline" fill="#A5ABB6" stroke="none" d="M 25 0.5 L 28.845648023362664 0.5 L 28.845648023362664 -0.5 L 25 -0.5 Z M 74.40814802336266 0.5 L 78.25379604672533 0.5 L 78.25379604672533 3.5 L 85.25379604672533 0 L 78.25379604672533 -3.5 L 78.25379604672533 -0.5 L 74.40814802336266 -0.5 Z"/><text text-anchor="middle" pointer-events="none" font-size="8px" fill="#000000" x="51.62689802336266" y="3" font-family="sans-serif">ACTED_IN</text></g><g class="relationship" transform="translate(-73.48212138641134 -46.302165114038) rotate(503.44913984363956)"><path class="outline" fill="#A5ABB6" stroke="none" d="M 25 0.5 L 31.220439129832513 0.5 L 31.220439129832513 -0.5 L 25 -0.5 Z M 76.78293912983251 0.5 L 83.00337825966503 0.5 L 83.00337825966503 3.5 L 90.00337825966503 0 L 83.00337825966503 -3.5 L 83.00337825966503 -0.5 L 76.78293912983251 -0.5 Z"/><text text-anchor="middle" pointer-events="none" font-size="8px" fill="#000000" x="54.00168912983251" y="3" transform="rotate(180 54.00168912983251 0)" font-family="sans-serif">ACTED_IN</text></g><g class="relationship" transform="translate(-73.48212138641134 -46.302165114038) rotate(353.02488308405214)"><path class="outline" fill="#A5ABB6" stroke="none" d="M 25 0.5 L 28.76339596521754 0.5 L 28.76339596521754 -0.5 L 25 -0.5 Z M 74.32589596521754 0.5 L 78.08929193043508 0.5 L 78.08929193043508 3.5 L 85.08929193043508 0 L 78.08929193043508 -3.5 L 78.08929193043508 -0.5 L 74.32589596521754 -0.5 Z"/><text text-anchor="middle" pointer-events="none" font-size="8px" fill="#000000" x="51.54464596521754" y="3" font-family="sans-serif">ACTED_IN</text></g></g><g class="layer nodes"><g class="node" transform="translate(56.34869889488509,332.0801388271706)"><circle class="outline" cx="0" cy="0" r="25" fill="#F79767" stroke="#f36924" stroke-width="2px"/><text text-anchor="middle" pointer-events="none" font-family="sans-serif" dy="1.5625" font-size="25" fill="#FFFFFF"/><text text-anchor="middle" pointer-events="none" font-family="sans-serif" dy="1.5625" font-size="25" fill="#FFFFFF"/><text text-anchor="middle" pointer-events="none" x="0" y="0" font-size="10px" fill="#FFFFFF" font-family="sans-serif"> Hugo</text><text text-anchor="middle" pointer-events="none" x="0" y="10" font-size="10px" fill="#FFFFFF" font-family="sans-serif"> Weaving</text></g><g class="node" transform="translate(-50.742711208858616,367.0638790757725)"><circle class="outline" cx="0" cy="0" r="25" fill="#57C7E3" stroke="#23b3d7" stroke-width="2px"/><text text-anchor="middle" pointer-events="none" font-family="sans-serif" dy="1.5625" font-size="25" fill="#2A2C34"/><text text-anchor="middle" pointer-events="none" font-family="sans-serif" dy="1.5625" font-size="25" fill="#2A2C34"/><text text-anchor="middle" pointer-events="none" x="0" y="0" font-size="10px" fill="#2A2C34" font-family="sans-serif"> Cloud</text><text text-anchor="middle" pointer-events="none" x="0" y="10" font-size="10px" fill="#2A2C34" font-family="sans-serif"> Atlas</text></g><g class="node" transform="translate(86.93224978252859,436.26082210483895)"><circle class="outline" cx="0" cy="0" r="25" fill="#57C7E3" stroke="#23b3d7" stroke-width="2px"/><text text-anchor="middle" pointer-events="none" font-family="sans-serif" dy="1.5625" font-size="25" fill="#2A2C34"/><text text-anchor="middle" pointer-events="none" font-family="sans-serif" dy="1.5625" font-size="25" fill="#2A2C34"/><text text-anchor="middle" pointer-events="none" x="0" y="0" font-size="10px" fill="#2A2C34" font-family="sans-serif"> V for</text><text text-anchor="middle" pointer-events="none" x="0" y="10" font-size="10px" fill="#2A2C34" font-family="sans-serif"> Vendetta</text></g><g class="node" transform="translate(171.02309480798823,350.13857656197115)"><circle class="outline" cx="0" cy="0" r="25" fill="#57C7E3" stroke="#23b3d7" stroke-width="2px"/><text text-anchor="middle" pointer-events="none" font-family="sans-serif" dy="1.5625" font-size="25" fill="#2A2C34"/><text text-anchor="middle" pointer-events="none" font-family="sans-serif" dy="1.5625" font-size="25" fill="#2A2C34"/><text text-anchor="middle" pointer-events="none" font-family="sans-serif" dy="1.5625" font-size="25" fill="#2A2C34"/><text text-anchor="middle" pointer-events="none" x="0" y="-5" font-size="10px" fill="#2A2C34" font-family="sans-serif"> The</text><text text-anchor="middle" pointer-events="none" x="0" y="5" font-size="10px" fill="#2A2C34" font-family="sans-serif"> Matrix</text><text text-anchor="middle" pointer-events="none" x="0" y="15" font-size="10px" fill="#2A2C34" font-family="sans-serif"> Revol…</text></g><g class="node" transform="translate(-28.247620641575487,258.8858866147594)"><circle class="outline" cx="0" cy="0" r="25" fill="#57C7E3" stroke="#23b3d7" stroke-width="2px"/><text text-anchor="middle" pointer-events="none" font-family="sans-serif" dy="1.5625" font-size="25" fill="#2A2C34"/><text text-anchor="middle" pointer-events="none" font-family="sans-serif" dy="1.5625" font-size="25" fill="#2A2C34"/><text text-anchor="middle" pointer-events="none" font-family="sans-serif" dy="1.5625" font-size="25" fill="#2A2C34"/><text text-anchor="middle" pointer-events="none" x="0" y="-5" font-size="10px" fill="#2A2C34" font-family="sans-serif"> The</text><text text-anchor="middle" pointer-events="none" x="0" y="5" font-size="10px" fill="#2A2C34" font-family="sans-serif"> Matrix</text><text text-anchor="middle" pointer-events="none" x="0" y="15" font-size="10px" fill="#2A2C34" font-family="sans-serif"> Reloa…</text></g><g class="node" transform="translate(120.5607359950298,243.46604207902826)"><circle class="outline" cx="0" cy="0" r="25" fill="#57C7E3" stroke="#23b3d7" stroke-width="2px"/><text text-anchor="middle" pointer-events="none" font-family="sans-serif" dy="1.5625" font-size="25" fill="#2A2C34"/><text text-anchor="middle" pointer-events="none" font-family="sans-serif" dy="1.5625" font-size="25" fill="#2A2C34"/><text text-anchor="middle" pointer-events="none" x="0" y="0" font-size="10px" fill="#2A2C34" font-family="sans-serif"> The</text><text text-anchor="middle" pointer-events="none" x="0" y="10" font-size="10px" fill="#2A2C34" font-family="sans-serif"> Matrix</text></g><g class="node" transform="translate(319.5681985073889,11.32895358365138)"><circle class="outline" cx="0" cy="0" r="25" fill="#F79767" stroke="#f36924" stroke-width="2px"/><text text-anchor="middle" pointer-events="none" font-family="sans-serif" dy="1.5625" font-size="25" fill="#FFFFFF"/><text text-anchor="middle" pointer-events="none" font-family="sans-serif" dy="1.5625" font-size="25" fill="#FFFFFF"/><text text-anchor="middle" pointer-events="none" x="0" y="0" font-size="10px" fill="#FFFFFF" font-family="sans-serif"> Hugo</text><text text-anchor="middle" pointer-events="none" x="0" y="10" font-size="10px" fill="#FFFFFF" font-family="sans-serif"> Weaving</text></g><g class="node" transform="translate(425.3614335193839,38.92760211168533)"><circle class="outline" cx="0" cy="0" r="25" fill="#57C7E3" stroke="#23b3d7" stroke-width="2px"/><text text-anchor="middle" pointer-events="none" font-family="sans-serif" dy="1.5625" font-size="25" fill="#2A2C34"/><text text-anchor="middle" pointer-events="none" font-family="sans-serif" dy="1.5625" font-size="25" fill="#2A2C34"/><text text-anchor="middle" pointer-events="none" font-family="sans-serif" dy="1.5625" font-size="25" fill="#2A2C34"/><text text-anchor="middle" pointer-events="none" x="0" y="-5" font-size="10px" fill="#2A2C34" font-family="sans-serif"> The</text><text text-anchor="middle" pointer-events="none" x="0" y="5" font-size="10px" fill="#2A2C34" font-family="sans-serif"> Matrix</text><text text-anchor="middle" pointer-events="none" x="0" y="15" font-size="10px" fill="#2A2C34" font-family="sans-serif"> Revol…</text></g><g class="node" transform="translate(346.18791068551474,-97.13671077333518)"><circle class="outline" cx="0" cy="0" r="25" fill="#57C7E3" stroke="#23b3d7" stroke-width="2px"/><text text-anchor="middle" pointer-events="none" font-family="sans-serif" dy="1.5625" font-size="25" fill="#2A2C34"/><text text-anchor="middle" pointer-events="none" font-family="sans-serif" dy="1.5625" font-size="25" fill="#2A2C34"/><text text-anchor="middle" pointer-events="none" x="0" y="0" font-size="10px" fill="#2A2C34" font-family="sans-serif"> Cloud</text><text text-anchor="middle" pointer-events="none" x="0" y="10" font-size="10px" fill="#2A2C34" font-family="sans-serif"> Atlas</text></g><g class="node" transform="translate(346.05456038959954,123.8783587013516)"><circle class="outline" cx="0" cy="0" r="25" fill="#57C7E3" stroke="#23b3d7" stroke-width="2px"/><text text-anchor="middle" pointer-events="none" font-family="sans-serif" dy="1.5625" font-size="25" fill="#2A2C34"/><text text-anchor="middle" pointer-events="none" font-family="sans-serif" dy="1.5625" font-size="25" fill="#2A2C34"/><text text-anchor="middle" pointer-events="none" font-family="sans-serif" dy="1.5625" font-size="25" fill="#2A2C34"/><text text-anchor="middle" pointer-events="none" x="0" y="-5" font-size="10px" fill="#2A2C34" font-family="sans-serif"> The</text><text text-anchor="middle" pointer-events="none" x="0" y="5" font-size="10px" fill="#2A2C34" font-family="sans-serif"> Matrix</text><text text-anchor="middle" pointer-events="none" x="0" y="15" font-size="10px" fill="#2A2C34" font-family="sans-serif"> Reloa…</text></g><g class="node" transform="translate(239.98021236224284,-69.19511631669681)"><circle class="outline" cx="0" cy="0" r="25" fill="#57C7E3" stroke="#23b3d7" stroke-width="2px"/><text text-anchor="middle" pointer-events="none" font-family="sans-serif" dy="1.5625" font-size="25" fill="#2A2C34"/><text text-anchor="middle" pointer-events="none" font-family="sans-serif" dy="1.5625" font-size="25" fill="#2A2C34"/><text text-anchor="middle" pointer-events="none" x="0" y="0" font-size="10px" fill="#2A2C34" font-family="sans-serif"> V for</text><text text-anchor="middle" pointer-events="none" x="0" y="10" font-size="10px" fill="#2A2C34" font-family="sans-serif"> Vendetta</text></g><g class="node" transform="translate(230.81136462767844,74.70401730567579)"><circle class="outline" cx="0" cy="0" r="25" fill="#57C7E3" stroke="#23b3d7" stroke-width="2px"/><text text-anchor="middle" pointer-events="none" font-family="sans-serif" dy="1.5625" font-size="25" fill="#2A2C34"/><text text-anchor="middle" pointer-events="none" font-family="sans-serif" dy="1.5625" font-size="25" fill="#2A2C34"/><text text-anchor="middle" pointer-events="none" x="0" y="0" font-size="10px" fill="#2A2C34" font-family="sans-serif"> The</text><text text-anchor="middle" pointer-events="none" x="0" y="10" font-size="10px" fill="#2A2C34" font-family="sans-serif"> Matrix</text></g><g class="node" transform="translate(-73.48212138641134,-46.302165114038)"><circle class="outline" cx="0" cy="0" r="25" fill="#F79767" stroke="#f36924" stroke-width="2px"/><text text-anchor="middle" pointer-events="none" font-family="sans-serif" dy="1.5625" font-size="25" fill="#FFFFFF"/><text text-anchor="middle" pointer-events="none" font-family="sans-serif" dy="1.5625" font-size="25" fill="#FFFFFF"/><text text-anchor="middle" pointer-events="none" x="0" y="0" font-size="10px" fill="#FFFFFF" font-family="sans-serif"> Hugo</text><text text-anchor="middle" pointer-events="none" x="0" y="10" font-size="10px" fill="#FFFFFF" font-family="sans-serif"> Weaving</text></g><g class="node" transform="translate(-30.11374736447377,-152.7893108520205)"><circle class="outline" cx="0" cy="0" r="25" fill="#57C7E3" stroke="#23b3d7" stroke-width="2px"/><text text-anchor="middle" pointer-events="none" font-family="sans-serif" dy="1.5625" font-size="25" fill="#2A2C34"/><text text-anchor="middle" pointer-events="none" font-family="sans-serif" dy="1.5625" font-size="25" fill="#2A2C34"/><text text-anchor="middle" pointer-events="none" font-family="sans-serif" dy="1.5625" font-size="25" fill="#2A2C34"/><text text-anchor="middle" pointer-events="none" x="0" y="-5" font-size="10px" fill="#2A2C34" font-family="sans-serif"> The</text><text text-anchor="middle" pointer-events="none" x="0" y="5" font-size="10px" fill="#2A2C34" font-family="sans-serif"> Matrix</text><text text-anchor="middle" pointer-events="none" x="0" y="15" font-size="10px" fill="#2A2C34" font-family="sans-serif"> Reloa…</text></g><g class="node" transform="translate(-161.15521817530973,-109.72687837071805)"><circle class="outline" cx="0" cy="0" r="25" fill="#57C7E3" stroke="#23b3d7" stroke-width="2px"/><text text-anchor="middle" pointer-events="none" font-family="sans-serif" dy="1.5625" font-size="25" fill="#2A2C34"/><text text-anchor="middle" pointer-events="none" font-family="sans-serif" dy="1.5625" font-size="25" fill="#2A2C34"/><text text-anchor="middle" pointer-events="none" x="0" y="0" font-size="10px" fill="#2A2C34" font-family="sans-serif"> The</text><text text-anchor="middle" pointer-events="none" x="0" y="10" font-size="10px" fill="#2A2C34" font-family="sans-serif"> Matrix</text></g><g class="node" transform="translate(-60.50106026615528,63.18478202992563)"><circle class="outline" cx="0" cy="0" r="25" fill="#57C7E3" stroke="#23b3d7" stroke-width="2px"/><text text-anchor="middle" pointer-events="none" font-family="sans-serif" dy="1.5625" font-size="25" fill="#2A2C34"/><text text-anchor="middle" pointer-events="none" font-family="sans-serif" dy="1.5625" font-size="25" fill="#2A2C34"/><text text-anchor="middle" pointer-events="none" x="0" y="0" font-size="10px" fill="#2A2C34" font-family="sans-serif"> V for</text><text text-anchor="middle" pointer-events="none" x="0" y="10" font-size="10px" fill="#2A2C34" font-family="sans-serif"> Vendetta</text></g><g class="node" transform="translate(-165.86761657529323,22.186500297405626)"><circle class="outline" cx="0" cy="0" r="25" fill="#57C7E3" stroke="#23b3d7" stroke-width="2px"/><text text-anchor="middle" pointer-events="none" font-family="sans-serif" dy="1.5625" font-size="25" fill="#2A2C34"/><text text-anchor="middle" pointer-events="none" font-family="sans-serif" dy="1.5625" font-size="25" fill="#2A2C34"/><text text-anchor="middle" pointer-events="none" font-family="sans-serif" dy="1.5625" font-size="25" fill="#2A2C34"/><text text-anchor="middle" pointer-events="none" x="0" y="-5" font-size="10px" fill="#2A2C34" font-family="sans-serif"> The</text><text text-anchor="middle" pointer-events="none" x="0" y="5" font-size="10px" fill="#2A2C34" font-family="sans-serif"> Matrix</text><text text-anchor="middle" pointer-events="none" x="0" y="15" font-size="10px" fill="#2A2C34" font-family="sans-serif"> Revol…</text></g><g class="node" transform="translate(35.79239803074561,-59.67121907809803)"><circle class="outline" cx="0" cy="0" r="25" fill="#57C7E3" stroke="#23b3d7" stroke-width="2px"/><text text-anchor="middle" pointer-events="none" font-family="sans-serif" dy="1.5625" font-size="25" fill="#2A2C34"/><text text-anchor="middle" pointer-events="none" font-family="sans-serif" dy="1.5625" font-size="25" fill="#2A2C34"/><text text-anchor="middle" pointer-events="none" x="0" y="0" font-size="10px" fill="#2A2C34" font-family="sans-serif"> Cloud</text><text text-anchor="middle" pointer-events="none" x="0" y="10" font-size="10px" fill="#2A2C34" font-family="sans-serif"> Atlas</text></g></g></svg>