<svg xmlns="http://www.w3.org/2000/svg" width="630.2412109375" height="626.1115112304688" viewBox="-216.97421264648438 -226.0382080078125 630.2412109375 626.1115112304688"><title>Neo4j Graph Visualization</title><desc>Created using Neo4j (http://www.neo4j.com/)</desc><g class="layer relationships"><g class="relationship" transform="translate(-58.07582214705641 126.27431221070192) rotate(341.21903226557606)"><path class="outline" fill="#A5ABB6" stroke="none" d="M 25 0.5 L 61.33636004475059 0.5 L 61.33636004475059 -0.5 L 25 -0.5 Z M 95.78167254475059 0.5 L 132.11803258950118 0.5 L 132.11803258950118 3.5 L 139.11803258950118 0 L 132.11803258950118 -3.5 L 132.11803258950118 -0.5 L 95.78167254475059 -0.5 Z"/><text text-anchor="middle" pointer-events="none" font-size="8px" fill="#000000" x="78.55901629475059" y="3" font-family="sans-serif">ORIGIN</text></g><g class="relationship" transform="translate(-58.07582214705641 126.27431221070192) rotate(204.2109416766827)"><path class="outline" fill="#A5ABB6" stroke="none" d="M 25 0.5 L 38.11920407851818 0.5 L 38.11920407851818 -0.5 L 25 -0.5 Z M 97.30670407851818 0.5 L 110.42590815703636 0.5 L 110.42590815703636 3.5 L 117.42590815703636 0 L 110.42590815703636 -3.5 L 110.42590815703636 -0.5 L 97.30670407851818 -0.5 Z"/><text text-anchor="middle" pointer-events="none" font-size="8px" fill="#000000" x="67.71295407851818" y="3" transform="rotate(180 67.71295407851818 0)" font-family="sans-serif">DESTINATION</text></g><g class="relationship" transform="translate(261.9925422759857 159.05465406410806) rotate(207.46902996338247)"><path class="outline" fill="#A5ABB6" stroke="none" d="M 25 0.5 L 72.08471475774938 0.5 L 72.08471475774938 -0.5 L 25 -0.5 Z M 106.53002725774938 0.5 L 153.61474201549876 0.5 L 153.61474201549876 3.5 L 160.61474201549876 0 L 153.61474201549876 -3.5 L 153.61474201549876 -0.5 L 106.53002725774938 -0.5 Z"/><text text-anchor="middle" pointer-events="none" font-size="8px" fill="#000000" x="89.30737100774938" y="3" transform="rotate(180 89.30737100774938 0)" font-family="sans-serif">ORIGIN</text></g><g class="relationship" transform="translate(261.9925422759857 159.05465406410806) rotate(386.4661493291894)"><path class="outline" fill="#A5ABB6" stroke="none" d="M 25 0.5 L 25.23949352366445 0.5 L 25.23949352366445 -0.5 L 25 -0.5 Z M 68.57543102366445 0.5 L 68.8149245473289 0.5 L 68.8149245473289 3.5 L 75.8149245473289 0 L 68.8149245473289 -3.5 L 68.8149245473289 -0.5 L 68.57543102366445 -0.5 Z"/><text text-anchor="middle" pointer-events="none" font-size="8px" fill="#000000" x="46.90746227366445" y="3" font-family="sans-serif">DESTIN…</text></g><g class="relationship" transform="translate(249.2427692536031 11.840698302716298) rotate(517.9324907916998)"><path class="outline" fill="#A5ABB6" stroke="none" d="M 25 0.5 L 61.25207103502062 0.5 L 61.25207103502062 -0.5 L 25 -0.5 Z M 95.69738353502062 0.5 L 131.94945457004124 0.5 L 131.94945457004124 3.5 L 138.94945457004124 0 L 131.94945457004124 -3.5 L 131.94945457004124 -0.5 L 95.69738353502062 -0.5 Z"/><text text-anchor="middle" pointer-events="none" font-size="8px" fill="#000000" x="78.47472728502062" y="3" transform="rotate(180 78.47472728502062 0)" font-family="sans-serif">ORIGIN</text></g><g class="relationship" transform="translate(249.2427692536031 11.840698302716298) rotate(335.2162449801756)"><path class="outline" fill="#A5ABB6" stroke="none" d="M 25 0.5 L 41.26729350783691 0.5 L 41.26729350783691 -0.5 L 25 -0.5 Z M 100.45479350783691 0.5 L 116.72208701567382 0.5 L 116.72208701567382 3.5 L 123.72208701567382 0 L 116.72208701567382 -3.5 L 116.72208701567382 -0.5 L 100.45479350783691 -0.5 Z"/><text text-anchor="middle" pointer-events="none" font-size="8px" fill="#000000" x="70.86104350783691" y="3" font-family="sans-serif">DESTINATION</text></g><g class="relationship" transform="translate(-30.75982936718985 60.79928693341442) rotate(365.6355643892382)"><path class="outline" fill="#A5ABB6" stroke="none" d="M 25 0.5 L 43.62022696682847 0.5 L 43.62022696682847 -0.5 L 25 -0.5 Z M 78.06553946682847 0.5 L 96.68576643365694 0.5 L 96.68576643365694 3.5 L 103.68576643365694 0 L 96.68576643365694 -3.5 L 96.68576643365694 -0.5 L 78.06553946682847 -0.5 Z"/><text text-anchor="middle" pointer-events="none" font-size="8px" fill="#000000" x="60.84288321682847" y="3" font-family="sans-serif">ORIGIN</text></g><g class="relationship" transform="translate(-30.75982936718985 60.79928693341442) rotate(537.42637041736)"><path class="outline" fill="#A5ABB6" stroke="none" d="M 25 0.5 L 45.59280623765538 0.5 L 45.59280623765538 -0.5 L 25 -0.5 Z M 104.78030623765538 0.5 L 125.37311247531076 0.5 L 125.37311247531076 3.5 L 132.37311247531076 0 L 125.37311247531076 -3.5 L 125.37311247531076 -0.5 L 104.78030623765538 -0.5 Z"/><text text-anchor="middle" pointer-events="none" font-size="8px" fill="#000000" x="75.18655623765538" y="3" transform="rotate(180 75.18655623765538 0)" font-family="sans-serif">DESTINATION</text></g><g class="relationship" transform="translate(91.04468853250316 236.40564096489106) rotate(272.19951321142014)"><path class="outline" fill="#A5ABB6" stroke="none" d="M 25 0.5 L 60.822087528716196 0.5 L 60.822087528716196 -0.5 L 25 -0.5 Z M 95.2674000287162 0.5 L 131.0894875574324 0.5 L 131.0894875574324 3.5 L 138.0894875574324 0 L 131.0894875574324 -3.5 L 131.0894875574324 -0.5 L 95.2674000287162 -0.5 Z"/><text text-anchor="middle" pointer-events="none" font-size="8px" fill="#000000" x="78.0447437787162" y="3" font-family="sans-serif">ORIGIN</text></g><g class="relationship" transform="translate(91.04468853250316 236.40564096489106) rotate(474.792138909329)"><path class="outline" fill="#A5ABB6" stroke="none" d="M 25 0.5 L 36.28620181806636 0.5 L 36.28620181806636 -0.5 L 25 -0.5 Z M 95.47370181806636 0.5 L 106.75990363613272 0.5 L 106.75990363613272 3.5 L 113.75990363613272 0 L 106.75990363613272 -3.5 L 106.75990363613272 -0.5 L 95.47370181806636 -0.5 Z"/><text text-anchor="middle" pointer-events="none" font-size="8px" fill="#000000" x="65.87995181806636" y="3" transform="rotate(180 65.87995181806636 0)" font-family="sans-serif">DESTINATION</text></g><g class="relationship" transform="translate(127.94628022421192 -98.80144945652509) rotate(460.0877829339804)"><path class="outline" fill="#A5ABB6" stroke="none" d="M 25 0.5 L 66.74847947031616 0.5 L 66.74847947031616 -0.5 L 25 -0.5 Z M 101.19379197031616 0.5 L 142.9422714406323 0.5 L 142.9422714406323 3.5 L 149.9422714406323 0 L 142.9422714406323 -3.5 L 142.9422714406323 -0.5 L 101.19379197031616 -0.5 Z"/><text text-anchor="middle" pointer-events="none" font-size="8px" fill="#000000" x="83.97113572031616" y="3" transform="rotate(180 83.97113572031616 0)" font-family="sans-serif">ORIGIN</text></g><g class="relationship" transform="translate(127.94628022421192 -98.80144945652509) rotate(252.35644699115346)"><path class="outline" fill="#A5ABB6" stroke="none" d="M 25 0.5 L 26.37496239046221 0.5 L 26.37496239046221 -0.5 L 25 -0.5 Z M 69.7108998904622 0.5 L 71.08586228092442 0.5 L 71.08586228092442 3.5 L 78.08586228092442 0 L 71.08586228092442 -3.5 L 71.08586228092442 -0.5 L 69.7108998904622 -0.5 Z"/><text text-anchor="middle" pointer-events="none" font-size="8px" fill="#000000" x="48.04293114046221" y="3" transform="rotate(180 48.04293114046221 0)" font-family="sans-serif">DESTIN…</text></g><g class="relationship" transform="translate(214.62400871626753 122.70419128996348) rotate(202.77968927841755)"><path class="outline" fill="#A5ABB6" stroke="none" d="M 25 0.5 L 42.899902139327374 0.5 L 42.899902139327374 -0.5 L 25 -0.5 Z M 77.34521463932737 0.5 L 95.24511677865475 0.5 L 95.24511677865475 3.5 L 102.24511677865475 0 L 95.24511677865475 -3.5 L 95.24511677865475 -0.5 L 77.34521463932737 -0.5 Z"/><text text-anchor="middle" pointer-events="none" font-size="8px" fill="#000000" x="60.122558389327374" y="3" transform="rotate(180 60.122558389327374 0)" font-family="sans-serif">ORIGIN</text></g><g class="relationship" transform="translate(214.62400871626753 122.70419128996348) rotate(390.56716580608753)"><path class="outline" fill="#A5ABB6" stroke="none" d="M 25 0.5 L 46.82057302978349 0.5 L 46.82057302978349 -0.5 L 25 -0.5 Z M 106.00807302978349 0.5 L 127.82864605956698 0.5 L 127.82864605956698 3.5 L 134.82864605956698 0 L 127.82864605956698 -3.5 L 127.82864605956698 -0.5 L 106.00807302978349 -0.5 Z"/><text text-anchor="middle" pointer-events="none" font-size="8px" fill="#000000" x="76.41432302978349" y="3" font-family="sans-serif">DESTINATION</text></g><g class="relationship" transform="translate(268.8479461912084 97.24175401062871) rotate(187.90057245829541)"><path class="outline" fill="#A5ABB6" stroke="none" d="M 25 0.5 L 65.8712827019902 0.5 L 65.8712827019902 -0.5 L 25 -0.5 Z M 100.3165952019902 0.5 L 141.1878779039804 0.5 L 141.1878779039804 3.5 L 148.1878779039804 0 L 141.1878779039804 -3.5 L 141.1878779039804 -0.5 L 100.3165952019902 -0.5 Z"/><text text-anchor="middle" pointer-events="none" font-size="8px" fill="#000000" x="83.0939389519902" y="3" transform="rotate(180 83.0939389519902 0)" font-family="sans-serif">ORIGIN</text></g><g class="relationship" transform="translate(268.8479461912084 97.24175401062871) rotate(412.00095478406587)"><path class="outline" fill="#A5ABB6" stroke="none" d="M 25 0.5 L 34.63476561505904 0.5 L 34.63476561505904 -0.5 L 25 -0.5 Z M 93.82226561505904 0.5 L 103.45703123011808 0.5 L 103.45703123011808 3.5 L 110.45703123011808 0 L 103.45703123011808 -3.5 L 103.45703123011808 -0.5 L 93.82226561505904 -0.5 Z"/><text text-anchor="middle" pointer-events="none" font-size="8px" fill="#000000" x="64.22851561505904" y="3" font-family="sans-serif">DESTINATION</text></g><g class="relationship" transform="translate(-88.77045056536116 74.89525120589363) rotate(359.5507742421727)"><path class="outline" fill="#A5ABB6" stroke="none" d="M 25 0.5 L 72.31740476515664 0.5 L 72.31740476515664 -0.5 L 25 -0.5 Z M 106.76271726515664 0.5 L 154.08012203031328 0.5 L 154.08012203031328 3.5 L 161.08012203031328 0 L 154.08012203031328 -3.5 L 154.08012203031328 -0.5 L 106.76271726515664 -0.5 Z"/><text text-anchor="middle" pointer-events="none" font-size="8px" fill="#000000" x="89.54006101515664" y="3" font-family="sans-serif">ORIGIN</text></g><g class="relationship" transform="translate(-88.77045056536116 74.89525120589363) rotate(184.05310569579586)"><path class="outline" fill="#A5ABB6" stroke="none" d="M 25 0.5 L 27.446947961923456 0.5 L 27.446947961923456 -0.5 L 25 -0.5 Z M 65.00554171192346 0.5 L 67.45248967384691 0.5 L 67.45248967384691 3.5 L 74.45248967384691 0 L 67.45248967384691 -3.5 L 67.45248967384691 -0.5 L 65.00554171192346 -0.5 Z"/><text text-anchor="middle" pointer-events="none" font-size="8px" fill="#000000" x="46.226244836923456" y="3" transform="rotate(180 46.226244836923456 0)" font-family="sans-serif">DESTI…</text></g><g class="relationship" transform="translate(156.88849264622402 -46.35606416755853) rotate(476.4456804652368)"><path class="outline" fill="#A5ABB6" stroke="none" d="M 25 0.5 L 46.17377598015051 0.5 L 46.17377598015051 -0.5 L 25 -0.5 Z M 80.61908848015051 0.5 L 101.79286446030102 0.5 L 101.79286446030102 3.5 L 108.79286446030102 0 L 101.79286446030102 -3.5 L 101.79286446030102 -0.5 L 80.61908848015051 -0.5 Z"/><text text-anchor="middle" pointer-events="none" font-size="8px" fill="#000000" x="63.39643223015051" y="3" transform="rotate(180 63.39643223015051 0)" font-family="sans-serif">ORIGIN</text></g><g class="relationship" transform="translate(156.88849264622402 -46.35606416755853) rotate(248.22675421490663)"><path class="outline" fill="#A5ABB6" stroke="none" d="M 25 0.5 L 48.03512674681426 0.5 L 48.03512674681426 -0.5 L 25 -0.5 Z M 107.22262674681426 0.5 L 130.2577534936285 0.5 L 130.2577534936285 3.5 L 137.2577534936285 0 L 130.2577534936285 -3.5 L 130.2577534936285 -0.5 L 107.22262674681426 -0.5 Z"/><text text-anchor="middle" pointer-events="none" font-size="8px" fill="#000000" x="77.62887674681426" y="3" transform="rotate(180 77.62887674681426 0)" font-family="sans-serif">DESTINATION</text></g><g class="relationship" transform="translate(-66.5555117646739 12.692687631004594) rotate(380.34002602680175)"><path class="outline" fill="#A5ABB6" stroke="none" d="M 25 0.5 L 66.655418284463 0.5 L 66.655418284463 -0.5 L 25 -0.5 Z M 101.100730784463 0.5 L 142.756149068926 0.5 L 142.756149068926 3.5 L 149.756149068926 0 L 142.756149068926 -3.5 L 142.756149068926 -0.5 L 101.100730784463 -0.5 Z"/><text text-anchor="middle" pointer-events="none" font-size="8px" fill="#000000" x="83.878074534463" y="3" font-family="sans-serif">ORIGIN</text></g><g class="relationship" transform="translate(-66.5555117646739 12.692687631004594) rotate(515.5627561796491)"><path class="outline" fill="#A5ABB6" stroke="none" d="M 25 0.5 L 33.58941239253643 0.5 L 33.58941239253643 -0.5 L 25 -0.5 Z M 92.77691239253643 0.5 L 101.36632478507286 0.5 L 101.36632478507286 3.5 L 108.36632478507286 0 L 101.36632478507286 -3.5 L 101.36632478507286 -0.5 L 92.77691239253643 -0.5 Z"/><text text-anchor="middle" pointer-events="none" font-size="8px" fill="#000000" x="63.18316239253643" y="3" transform="rotate(180 63.18316239253643 0)" font-family="sans-serif">DESTINATION</text></g><g class="relationship" transform="translate(187.86996967673235 -97.45012614452831) rotate(477.92259660822197)"><path class="outline" fill="#A5ABB6" stroke="none" d="M 25 0.5 L 75.9784009874085 0.5 L 75.9784009874085 -0.5 L 25 -0.5 Z M 110.4237134874085 0.5 L 161.402114474817 0.5 L 161.402114474817 3.5 L 168.402114474817 0 L 161.402114474817 -3.5 L 161.402114474817 -0.5 L 110.4237134874085 -0.5 Z"/><text text-anchor="middle" pointer-events="none" font-size="8px" fill="#000000" x="93.2010572374085" y="3" transform="rotate(180 93.2010572374085 0)" font-family="sans-serif">ORIGIN</text></g><g class="relationship" transform="translate(187.86996967673235 -97.45012614452831) rotate(227.5272923475943)"><path class="outline" fill="#A5ABB6" stroke="none" d="M 25 0.5 L 34.414526436959136 0.5 L 34.414526436959136 -0.5 L 25 -0.5 Z M 93.60202643695914 0.5 L 103.01655287391827 0.5 L 103.01655287391827 3.5 L 110.01655287391827 0 L 103.01655287391827 -3.5 L 103.01655287391827 -0.5 L 93.60202643695914 -0.5 Z"/><text text-anchor="middle" pointer-events="none" font-size="8px" fill="#000000" x="64.00827643695914" y="3" transform="rotate(180 64.00827643695914 0)" font-family="sans-serif">DESTINATION</text></g><g class="relationship" transform="translate(32.68646626746033 222.98755843024682) rotate(293.3680078490009)"><path class="outline" fill="#A5ABB6" stroke="none" d="M 25 0.5 L 60.734380177333605 0.5 L 60.734380177333605 -0.5 L 25 -0.5 Z M 95.1796926773336 0.5 L 130.9140728546672 0.5 L 130.9140728546672 3.5 L 137.9140728546672 0 L 130.9140728546672 -3.5 L 130.9140728546672 -0.5 L 95.1796926773336 -0.5 Z"/><text text-anchor="middle" pointer-events="none" font-size="8px" fill="#000000" x="77.9570364273336" y="3" font-family="sans-serif">ORIGIN</text></g><g class="relationship" transform="translate(32.68646626746033 222.98755843024682) rotate(449.92914561285176)"><path class="outline" fill="#A5ABB6" stroke="none" d="M 25 0.5 L 36.60089447859504 0.5 L 36.60089447859504 -0.5 L 25 -0.5 Z M 95.78839447859504 0.5 L 107.38928895719008 0.5 L 107.38928895719008 3.5 L 114.38928895719008 0 L 107.38928895719008 -3.5 L 107.38928895719008 -0.5 L 95.78839447859504 -0.5 Z"/><text text-anchor="middle" pointer-events="none" font-size="8px" fill="#000000" x="66.19464447859504" y="3" font-family="sans-serif">DESTINATION</text></g><g class="relationship" transform="translate(96.96419076953802 -47.628321276503755) rotate(449.83920294617934)"><path class="outline" fill="#A5ABB6" stroke="none" d="M 25 0.5 L 39.80989817182785 0.5 L 39.80989817182785 -0.5 L 25 -0.5 Z M 74.25521067182785 0.5 L 89.0651088436557 0.5 L 89.0651088436557 3.5 L 96.0651088436557 0 L 89.0651088436557 -3.5 L 89.0651088436557 -0.5 L 74.25521067182785 -0.5 Z"/><text text-anchor="middle" pointer-events="none" font-size="8px" fill="#000000" x="57.03255442182785" y="3" font-family="sans-serif">ORIGIN</text></g><g class="relationship" transform="translate(96.96419076953802 -47.628321276503755) rotate(269.89927722086327)"><path class="outline" fill="#A5ABB6" stroke="none" d="M 25 0.5 L 41.61130942568664 0.5 L 41.61130942568664 -0.5 L 25 -0.5 Z M 100.79880942568664 0.5 L 117.41011885137328 0.5 L 117.41011885137328 3.5 L 124.41011885137328 0 L 117.41011885137328 -3.5 L 117.41011885137328 -0.5 L 100.79880942568664 -0.5 Z"/><text text-anchor="middle" pointer-events="none" font-size="8px" fill="#000000" x="71.20505942568664" y="3" transform="rotate(180 71.20505942568664 0)" font-family="sans-serif">DESTINATION</text></g><g class="relationship" transform="translate(66.62476416512749 -99.23128854520169) rotate(439.9249585521526)"><path class="outline" fill="#A5ABB6" stroke="none" d="M 25 0.5 L 66.96330675904805 0.5 L 66.96330675904805 -0.5 L 25 -0.5 Z M 101.40861925904805 0.5 L 143.3719260180961 0.5 L 143.3719260180961 3.5 L 150.3719260180961 0 L 143.3719260180961 -3.5 L 143.3719260180961 -0.5 L 101.40861925904805 -0.5 Z"/><text text-anchor="middle" pointer-events="none" font-size="8px" fill="#000000" x="84.18596300904805" y="3" font-family="sans-serif">ORIGIN</text></g><g class="relationship" transform="translate(66.62476416512749 -99.23128854520169) rotate(287.09327520381515)"><path class="outline" fill="#A5ABB6" stroke="none" d="M 25 0.5 L 25.995509337267578 0.5 L 25.995509337267578 -0.5 L 25 -0.5 Z M 69.33144683726758 0.5 L 70.32695617453516 0.5 L 70.32695617453516 3.5 L 77.32695617453516 0 L 70.32695617453516 -3.5 L 70.32695617453516 -0.5 L 69.33144683726758 -0.5 Z"/><text text-anchor="middle" pointer-events="none" font-size="8px" fill="#000000" x="47.66347808726758" y="3" font-family="sans-serif">DESTIN…</text></g><g class="relationship" transform="translate(36.96404152447734 -47.29351469074752) rotate(423.4444420243706)"><path class="outline" fill="#A5ABB6" stroke="none" d="M 25 0.5 L 46.76177818996493 0.5 L 46.76177818996493 -0.5 L 25 -0.5 Z M 81.20709068996493 0.5 L 102.96886887992986 0.5 L 102.96886887992986 3.5 L 109.96886887992986 0 L 102.96886887992986 -3.5 L 102.96886887992986 -0.5 L 81.20709068996493 -0.5 Z"/><text text-anchor="middle" pointer-events="none" font-size="8px" fill="#000000" x="63.98443443996493" y="3" font-family="sans-serif">ORIGIN</text></g><g class="relationship" transform="translate(36.96404152447734 -47.29351469074752) rotate(291.7484879949021)"><path class="outline" fill="#A5ABB6" stroke="none" d="M 25 0.5 L 47.51648791975488 0.5 L 47.51648791975488 -0.5 L 25 -0.5 Z M 106.70398791975488 0.5 L 129.22047583950976 0.5 L 129.22047583950976 3.5 L 136.22047583950976 0 L 129.22047583950976 -3.5 L 129.22047583950976 -0.5 L 106.70398791975488 -0.5 Z"/><text text-anchor="middle" pointer-events="none" font-size="8px" fill="#000000" x="77.11023791975488" y="3" font-family="sans-serif">DESTINATION</text></g><g class="relationship" transform="translate(-19.50646461372143 188.26908337256063) rotate(315.48914845101103)"><path class="outline" fill="#A5ABB6" stroke="none" d="M 25 0.5 L 61.178563361764915 0.5 L 61.178563361764915 -0.5 L 25 -0.5 Z M 95.62387586176492 0.5 L 131.80243922352983 0.5 L 131.80243922352983 3.5 L 138.80243922352983 0 L 131.80243922352983 -3.5 L 131.80243922352983 -0.5 L 95.62387586176492 -0.5 Z"/><text text-anchor="middle" pointer-events="none" font-size="8px" fill="#000000" x="78.40121961176492" y="3" font-family="sans-serif">ORIGIN</text></g><g class="relationship" transform="translate(-19.50646461372143 188.26908337256063) rotate(495.34623601683325)"><path class="outline" fill="#A5ABB6" stroke="none" d="M 25 0.5 L 43.98773960398498 0.5 L 43.98773960398498 -0.5 L 25 -0.5 Z M 103.17523960398498 0.5 L 122.16297920796995 0.5 L 122.16297920796995 3.5 L 129.16297920796995 0 L 122.16297920796995 -3.5 L 122.16297920796995 -0.5 L 103.17523960398498 -0.5 Z"/><text text-anchor="middle" pointer-events="none" font-size="8px" fill="#000000" x="73.58148960398498" y="3" transform="rotate(180 73.58148960398498 0)" font-family="sans-serif">DESTINATION</text></g><g class="relationship" transform="translate(210.9305394536205 190.28876929160913) rotate(225.80188083695816)"><path class="outline" fill="#A5ABB6" stroke="none" d="M 25 0.5 L 60.771973050612516 0.5 L 60.771973050612516 -0.5 L 25 -0.5 Z M 95.21728555061252 0.5 L 130.98925860122503 0.5 L 130.98925860122503 3.5 L 137.98925860122503 0 L 130.98925860122503 -3.5 L 130.98925860122503 -0.5 L 95.21728555061252 -0.5 Z"/><text text-anchor="middle" pointer-events="none" font-size="8px" fill="#000000" x="77.99462930061252" y="3" transform="rotate(180 77.99462930061252 0)" font-family="sans-serif">ORIGIN</text></g><g class="relationship" transform="translate(210.9305394536205 190.28876929160913) rotate(365.53584880512176)"><path class="outline" fill="#A5ABB6" stroke="none" d="M 25 0.5 L 37.89298147613849 0.5 L 37.89298147613849 -0.5 L 25 -0.5 Z M 97.08048147613849 0.5 L 109.97346295227698 0.5 L 109.97346295227698 3.5 L 116.97346295227698 0 L 109.97346295227698 -3.5 L 109.97346295227698 -0.5 L 97.08048147613849 -0.5 Z"/><text text-anchor="middle" pointer-events="none" font-size="8px" fill="#000000" x="67.48673147613849" y="3" font-family="sans-serif">DESTINATION</text></g><g class="relationship" transform="translate(6.646264343396183 -98.81369225816803) rotate(422.2415137465345)"><path class="outline" fill="#A5ABB6" stroke="none" d="M 25 0.5 L 76.60267433757885 0.5 L 76.60267433757885 -0.5 L 25 -0.5 Z M 111.04798683757885 0.5 L 162.6506611751577 0.5 L 162.6506611751577 3.5 L 169.6506611751577 0 L 162.6506611751577 -3.5 L 162.6506611751577 -0.5 L 111.04798683757885 -0.5 Z"/><text text-anchor="middle" pointer-events="none" font-size="8px" fill="#000000" x="93.82533058757885" y="3" font-family="sans-serif">ORIGIN</text></g><g class="relationship" transform="translate(6.646264343396183 -98.81369225816803) rotate(312.51555982256946)"><path class="outline" fill="#A5ABB6" stroke="none" d="M 25 0.5 L 33.53583753672743 0.5 L 33.53583753672743 -0.5 L 25 -0.5 Z M 92.72333753672743 0.5 L 101.25917507345486 0.5 L 101.25917507345486 3.5 L 108.25917507345486 0 L 101.25917507345486 -3.5 L 101.25917507345486 -0.5 L 92.72333753672743 -0.5 Z"/><text text-anchor="middle" pointer-events="none" font-size="8px" fill="#000000" x="63.12958753672743" y="3" font-family="sans-serif">DESTINATION</text></g><g class="relationship" transform="translate(151.55918171297094 226.36921638330642) rotate(250.46710030281008)"><path class="outline" fill="#A5ABB6" stroke="none" d="M 25 0.5 L 60.41319210625481 0.5 L 60.41319210625481 -0.5 L 25 -0.5 Z M 94.85850460625481 0.5 L 130.27169671250962 0.5 L 130.27169671250962 3.5 L 137.27169671250962 0 L 130.27169671250962 -3.5 L 130.27169671250962 -0.5 L 94.85850460625481 -0.5 Z"/><text text-anchor="middle" pointer-events="none" font-size="8px" fill="#000000" x="77.63584835625481" y="3" transform="rotate(180 77.63584835625481 0)" font-family="sans-serif">ORIGIN</text></g><g class="relationship" transform="translate(151.55918171297094 226.36921638330642) rotate(429.39219655709445)"><path class="outline" fill="#A5ABB6" stroke="none" d="M 25 0.5 L 44.20448358065863 0.5 L 44.20448358065863 -0.5 L 25 -0.5 Z M 103.39198358065863 0.5 L 122.59646716131726 0.5 L 122.59646716131726 3.5 L 129.59646716131726 0 L 122.59646716131726 -3.5 L 122.59646716131726 -0.5 L 103.39198358065863 -0.5 Z"/><text text-anchor="middle" pointer-events="none" font-size="8px" fill="#000000" x="73.79823358065863" y="3" font-family="sans-serif">DESTINATION</text></g></g><g class="layer nodes"><g class="node" transform="translate(97.30395204749098,73.4363108073555)"><circle class="outline" cx="0" cy="0" r="25" fill="#ECB5C9" stroke="#da7298" stroke-width="2px"/><text text-anchor="middle" pointer-events="none" font-family="sans-serif" dy="1.5625" font-size="25" fill="#2A2C34"/><text text-anchor="middle" pointer-events="none" x="0" y="5" font-size="10px" fill="#2A2C34" font-family="sans-serif"> LAX</text></g><g class="node" transform="translate(-187.97420624501092,67.86584430495354)"><circle class="outline" cx="0" cy="0" r="25" fill="#ECB5C9" stroke="#da7298" stroke-width="2px"/><text text-anchor="middle" pointer-events="none" font-family="sans-serif" dy="1.5625" font-size="25" fill="#2A2C34"/><text text-anchor="middle" pointer-events="none" x="0" y="5" font-size="10px" fill="#2A2C34" font-family="sans-serif"> SMF</text></g><g class="node" transform="translate(352.2418431146146,203.98474097279632)"><circle class="outline" cx="0" cy="0" r="25" fill="#ECB5C9" stroke="#da7298" stroke-width="2px"/><text text-anchor="middle" pointer-events="none" font-family="sans-serif" dy="1.5625" font-size="25" fill="#2A2C34"/><text text-anchor="middle" pointer-events="none" x="0" y="5" font-size="10px" fill="#2A2C34" font-family="sans-serif"> FAT</text></g><g class="node" transform="translate(384.2670119884206,-50.50281010182192)"><circle class="outline" cx="0" cy="0" r="25" fill="#ECB5C9" stroke="#da7298" stroke-width="2px"/><text text-anchor="middle" pointer-events="none" font-family="sans-serif" dy="1.5625" font-size="25" fill="#2A2C34"/><text text-anchor="middle" pointer-events="none" x="0" y="5" font-size="10px" fill="#2A2C34" font-family="sans-serif"> LAS</text></g><g class="node" transform="translate(32.85884092071984,362.3767408045256)"><circle class="outline" cx="0" cy="0" r="25" fill="#ECB5C9" stroke="#da7298" stroke-width="2px"/><text text-anchor="middle" pointer-events="none" font-family="sans-serif" dy="1.5625" font-size="25" fill="#2A2C34"/><text text-anchor="middle" pointer-events="none" x="0" y="5" font-size="10px" fill="#2A2C34" font-family="sans-serif"> TUS</text></g><g class="node" transform="translate(96.70153626376822,-197.03820926184457)"><circle class="outline" cx="0" cy="0" r="25" fill="#ECB5C9" stroke="#da7298" stroke-width="2px"/><text text-anchor="middle" pointer-events="none" font-family="sans-serif" dy="1.5625" font-size="25" fill="#2A2C34"/><text text-anchor="middle" pointer-events="none" x="0" y="5" font-size="10px" fill="#2A2C34" font-family="sans-serif"> ABQ</text></g><g class="node" transform="translate(-129.17289926293736,296.6180440025834)"><circle class="outline" cx="0" cy="0" r="25" fill="#ECB5C9" stroke="#da7298" stroke-width="2px"/><text text-anchor="middle" pointer-events="none" font-family="sans-serif" dy="1.5625" font-size="25" fill="#2A2C34"/><text text-anchor="middle" pointer-events="none" x="0" y="5" font-size="10px" fill="#2A2C34" font-family="sans-serif"> EWR</text></g><g class="node" transform="translate(205.9723661460557,371.07330415767217)"><circle class="outline" cx="0" cy="0" r="25" fill="#ECB5C9" stroke="#da7298" stroke-width="2px"/><text text-anchor="middle" pointer-events="none" font-family="sans-serif" dy="1.5625" font-size="25" fill="#2A2C34"/><text text-anchor="middle" pointer-events="none" x="0" y="5" font-size="10px" fill="#2A2C34" font-family="sans-serif"> IAH</text></g><g class="node" transform="translate(-58.07582214705641,126.27431221070192)"><circle class="outline" cx="0" cy="0" r="25" fill="#4C8EDA" stroke="#2870c2" stroke-width="2px"/><text text-anchor="middle" pointer-events="none" font-family="sans-serif" dy="1.5625" font-size="25" fill="#FFFFFF"/><text text-anchor="middle" pointer-events="none" x="0" y="5" font-size="10px" fill="#FFFFFF" font-family="sans-serif"> 11/4/2015</text></g><g class="node" transform="translate(261.9925422759857,159.05465406410806)"><circle class="outline" cx="0" cy="0" r="25" fill="#4C8EDA" stroke="#2870c2" stroke-width="2px"/><text text-anchor="middle" pointer-events="none" font-family="sans-serif" dy="1.5625" font-size="25" fill="#FFFFFF"/><text text-anchor="middle" pointer-events="none" x="0" y="5" font-size="10px" fill="#FFFFFF" font-family="sans-serif"> 11/4/2015</text></g><g class="node" transform="translate(249.2427692536031,11.840698302716298)"><circle class="outline" cx="0" cy="0" r="25" fill="#4C8EDA" stroke="#2870c2" stroke-width="2px"/><text text-anchor="middle" pointer-events="none" font-family="sans-serif" dy="1.5625" font-size="25" fill="#FFFFFF"/><text text-anchor="middle" pointer-events="none" x="0" y="5" font-size="10px" fill="#FFFFFF" font-family="sans-serif"> 11/29/20…</text></g><g class="node" transform="translate(-30.75982936718985,60.79928693341442)"><circle class="outline" cx="0" cy="0" r="25" fill="#4C8EDA" stroke="#2870c2" stroke-width="2px"/><text text-anchor="middle" pointer-events="none" font-family="sans-serif" dy="1.5625" font-size="25" fill="#FFFFFF"/><text text-anchor="middle" pointer-events="none" x="0" y="5" font-size="10px" fill="#FFFFFF" font-family="sans-serif"> 11/2/2015</text></g><g class="node" transform="translate(91.04468853250316,236.40564096489106)"><circle class="outline" cx="0" cy="0" r="25" fill="#4C8EDA" stroke="#2870c2" stroke-width="2px"/><text text-anchor="middle" pointer-events="none" font-family="sans-serif" dy="1.5625" font-size="25" fill="#FFFFFF"/><text text-anchor="middle" pointer-events="none" x="0" y="5" font-size="10px" fill="#FFFFFF" font-family="sans-serif"> 11/1/2015</text></g><g class="node" transform="translate(127.94628022421192,-98.80144945652509)"><circle class="outline" cx="0" cy="0" r="25" fill="#4C8EDA" stroke="#2870c2" stroke-width="2px"/><text text-anchor="middle" pointer-events="none" font-family="sans-serif" dy="1.5625" font-size="25" fill="#FFFFFF"/><text text-anchor="middle" pointer-events="none" x="0" y="5" font-size="10px" fill="#FFFFFF" font-family="sans-serif"> 11/2/2015</text></g><g class="node" transform="translate(214.62400871626753,122.70419128996348)"><circle class="outline" cx="0" cy="0" r="25" fill="#4C8EDA" stroke="#2870c2" stroke-width="2px"/><text text-anchor="middle" pointer-events="none" font-family="sans-serif" dy="1.5625" font-size="25" fill="#FFFFFF"/><text text-anchor="middle" pointer-events="none" x="0" y="5" font-size="10px" fill="#FFFFFF" font-family="sans-serif"> 11/3/2015</text></g><g class="node" transform="translate(268.8479461912084,97.24175401062871)"><circle class="outline" cx="0" cy="0" r="25" fill="#4C8EDA" stroke="#2870c2" stroke-width="2px"/><text text-anchor="middle" pointer-events="none" font-family="sans-serif" dy="1.5625" font-size="25" fill="#FFFFFF"/><text text-anchor="middle" pointer-events="none" x="0" y="5" font-size="10px" fill="#FFFFFF" font-family="sans-serif"> 11/1/2015</text></g><g class="node" transform="translate(-88.77045056536116,74.89525120589363)"><circle class="outline" cx="0" cy="0" r="25" fill="#4C8EDA" stroke="#2870c2" stroke-width="2px"/><text text-anchor="middle" pointer-events="none" font-family="sans-serif" dy="1.5625" font-size="25" fill="#FFFFFF"/><text text-anchor="middle" pointer-events="none" x="0" y="5" font-size="10px" fill="#FFFFFF" font-family="sans-serif"> 11/1/2015</text></g><g class="node" transform="translate(156.88849264622402,-46.35606416755853)"><circle class="outline" cx="0" cy="0" r="25" fill="#4C8EDA" stroke="#2870c2" stroke-width="2px"/><text text-anchor="middle" pointer-events="none" font-family="sans-serif" dy="1.5625" font-size="25" fill="#FFFFFF"/><text text-anchor="middle" pointer-events="none" x="0" y="5" font-size="10px" fill="#FFFFFF" font-family="sans-serif"> 11/3/2015</text></g><g class="node" transform="translate(-66.5555117646739,12.692687631004594)"><circle class="outline" cx="0" cy="0" r="25" fill="#4C8EDA" stroke="#2870c2" stroke-width="2px"/><text text-anchor="middle" pointer-events="none" font-family="sans-serif" dy="1.5625" font-size="25" fill="#FFFFFF"/><text text-anchor="middle" pointer-events="none" x="0" y="5" font-size="10px" fill="#FFFFFF" font-family="sans-serif"> 11/3/2015</text></g><g class="node" transform="translate(187.86996967673235,-97.45012614452831)"><circle class="outline" cx="0" cy="0" r="25" fill="#4C8EDA" stroke="#2870c2" stroke-width="2px"/><text text-anchor="middle" pointer-events="none" font-family="sans-serif" dy="1.5625" font-size="25" fill="#FFFFFF"/><text text-anchor="middle" pointer-events="none" x="0" y="5" font-size="10px" fill="#FFFFFF" font-family="sans-serif"> 11/1/2015</text></g><g class="node" transform="translate(32.68646626746033,222.98755843024682)"><circle class="outline" cx="0" cy="0" r="25" fill="#4C8EDA" stroke="#2870c2" stroke-width="2px"/><text text-anchor="middle" pointer-events="none" font-family="sans-serif" dy="1.5625" font-size="25" fill="#FFFFFF"/><text text-anchor="middle" pointer-events="none" x="0" y="5" font-size="10px" fill="#FFFFFF" font-family="sans-serif"> 11/2/2015</text></g><g class="node" transform="translate(96.96419076953802,-47.628321276503755)"><circle class="outline" cx="0" cy="0" r="25" fill="#4C8EDA" stroke="#2870c2" stroke-width="2px"/><text text-anchor="middle" pointer-events="none" font-family="sans-serif" dy="1.5625" font-size="25" fill="#FFFFFF"/><text text-anchor="middle" pointer-events="none" x="0" y="5" font-size="10px" fill="#FFFFFF" font-family="sans-serif"> 11/1/2015</text></g><g class="node" transform="translate(66.62476416512749,-99.23128854520169)"><circle class="outline" cx="0" cy="0" r="25" fill="#4C8EDA" stroke="#2870c2" stroke-width="2px"/><text text-anchor="middle" pointer-events="none" font-family="sans-serif" dy="1.5625" font-size="25" fill="#FFFFFF"/><text text-anchor="middle" pointer-events="none" x="0" y="5" font-size="10px" fill="#FFFFFF" font-family="sans-serif"> 11/2/2015</text></g><g class="node" transform="translate(36.96404152447734,-47.29351469074752)"><circle class="outline" cx="0" cy="0" r="25" fill="#4C8EDA" stroke="#2870c2" stroke-width="2px"/><text text-anchor="middle" pointer-events="none" font-family="sans-serif" dy="1.5625" font-size="25" fill="#FFFFFF"/><text text-anchor="middle" pointer-events="none" x="0" y="5" font-size="10px" fill="#FFFFFF" font-family="sans-serif"> 11/4/2015</text></g><g class="node" transform="translate(-19.50646461372143,188.26908337256063)"><circle class="outline" cx="0" cy="0" r="25" fill="#4C8EDA" stroke="#2870c2" stroke-width="2px"/><text text-anchor="middle" pointer-events="none" font-family="sans-serif" dy="1.5625" font-size="25" fill="#FFFFFF"/><text text-anchor="middle" pointer-events="none" x="0" y="5" font-size="10px" fill="#FFFFFF" font-family="sans-serif"> 11/30/20…</text></g><g class="node" transform="translate(210.9305394536205,190.28876929160913)"><circle class="outline" cx="0" cy="0" r="25" fill="#4C8EDA" stroke="#2870c2" stroke-width="2px"/><text text-anchor="middle" pointer-events="none" font-family="sans-serif" dy="1.5625" font-size="25" fill="#FFFFFF"/><text text-anchor="middle" pointer-events="none" x="0" y="5" font-size="10px" fill="#FFFFFF" font-family="sans-serif"> 11/2/2015</text></g><g class="node" transform="translate(6.646264343396183,-98.81369225816803)"><circle class="outline" cx="0" cy="0" r="25" fill="#4C8EDA" stroke="#2870c2" stroke-width="2px"/><text text-anchor="middle" pointer-events="none" font-family="sans-serif" dy="1.5625" font-size="25" fill="#FFFFFF"/><text text-anchor="middle" pointer-events="none" x="0" y="5" font-size="10px" fill="#FFFFFF" font-family="sans-serif"> 11/3/2015</text></g><g class="node" transform="translate(151.55918171297094,226.36921638330642)"><circle class="outline" cx="0" cy="0" r="25" fill="#4C8EDA" stroke="#2870c2" stroke-width="2px"/><text text-anchor="middle" pointer-events="none" font-family="sans-serif" dy="1.5625" font-size="25" fill="#FFFFFF"/><text text-anchor="middle" pointer-events="none" x="0" y="5" font-size="10px" fill="#FFFFFF" font-family="sans-serif"> 11/30/20…</text></g></g></svg>