<svg xmlns="http://www.w3.org/2000/svg" width="284.17425537109375" height="284.0106506347656" viewBox="-48.61376953125 -47.36840057373047 284.17425537109375 284.0106506347656"><title>Neo4j Graph Visualization</title><desc>Created using Neo4j (http://www.neo4j.com/)</desc><g class="layer relationships"><g class="relationship" transform="translate(143.72476787699267 201.0487123478493) rotate(244.59461133307127)"><path class="outline" fill="#A5ABB6" stroke="none" d="M 25 0.5 L 33.91455020916156 0.5 L 33.91455020916156 -0.5 L 25 -0.5 Z M 79.47705020916156 0.5 L 88.39160041832312 0.5 L 88.39160041832312 3.5 L 95.39160041832312 0 L 88.39160041832312 -3.5 L 88.39160041832312 -0.5 L 79.47705020916156 -0.5 Z"/><text text-anchor="middle" pointer-events="none" font-size="8px" fill="#000000" x="56.69580020916156" y="3" transform="rotate(180 56.69580020916156 0)" font-family="sans-serif">ACTED_IN</text></g><g class="relationship" transform="translate(202.0582656236857 141.30006643533278) rotate(204.01412197130537)"><path class="outline" fill="#A5ABB6" stroke="none" d="M 25 0.5 L 33.9215489635942 0.5 L 33.9215489635942 -0.5 L 25 -0.5 Z M 79.4840489635942 0.5 L 88.4055979271884 0.5 L 88.4055979271884 3.5 L 95.4055979271884 0 L 88.4055979271884 -3.5 L 88.4055979271884 -0.5 L 79.4840489635942 -0.5 Z"/><text text-anchor="middle" pointer-events="none" font-size="8px" fill="#000000" x="56.7027989635942" y="3" transform="rotate(180 56.7027989635942 0)" font-family="sans-serif">ACTED_IN</text></g><g class="relationship" transform="translate(206.56047293864165 54.24189960568766) rotate(521.6120655572334)"><path class="outline" fill="#A5ABB6" stroke="none" d="M 25 0.5 L 38.936285550361205 0.5 L 38.936285550361205 -0.5 L 25 -0.5 Z M 74.7097230503612 0.5 L 88.64600860072241 0.5 L 88.64600860072241 3.5 L 95.64600860072241 0 L 88.64600860072241 -3.5 L 88.64600860072241 -0.5 L 74.7097230503612 -0.5 Z"/><text text-anchor="middle" pointer-events="none" font-size="8px" fill="#000000" x="56.823004300361205" y="3" transform="rotate(180 56.823004300361205 0)" font-family="sans-serif">WROTE</text></g><g class="relationship" transform="translate(143.14504917739126 -16.5271089224832) rotate(475.13994375205476)"><path class="outline" fill="#A5ABB6" stroke="none" d="M 25 0.5 L 33.8258752087054 0.5 L 33.8258752087054 -0.5 L 25 -0.5 Z M 79.3883752087054 0.5 L 88.2142504174108 0.5 L 88.2142504174108 3.5 L 95.2142504174108 0 L 88.2142504174108 -3.5 L 88.2142504174108 -0.5 L 79.3883752087054 -0.5 Z"/><text text-anchor="middle" pointer-events="none" font-size="8px" fill="#000000" x="56.6071252087054" y="3" transform="rotate(180 56.6071252087054 0)" font-family="sans-serif">ACTED_IN</text></g><g class="relationship" transform="translate(46.87673010220717 -18.368402365079362) rotate(427.7845337967097)"><path class="outline" fill="#A5ABB6" stroke="none" d="M 25 0.5 L 38.384154516304534 0.5 L 38.384154516304534 -0.5 L 25 -0.5 Z M 74.15759201630453 0.5 L 87.54174653260907 0.5 L 87.54174653260907 3.5 L 94.54174653260907 0 L 87.54174653260907 -3.5 L 87.54174653260907 -0.5 L 74.15759201630453 -0.5 Z"/><text text-anchor="middle" pointer-events="none" font-size="8px" fill="#000000" x="56.270873266304534" y="3" font-family="sans-serif">WROTE</text></g><g class="relationship" transform="translate(-19.613768336349718 49.72219619013221) rotate(380.8676886207932)"><path class="outline" fill="#A5ABB6" stroke="none" d="M 25 0.5 L 32.818954940486684 0.5 L 32.818954940486684 -0.5 L 25 -0.5 Z M 79.70957994048669 0.5 L 87.52853488097337 0.5 L 87.52853488097337 3.5 L 94.52853488097337 0 L 87.52853488097337 -3.5 L 87.52853488097337 -0.5 L 79.70957994048669 -0.5 Z"/><text text-anchor="middle" pointer-events="none" font-size="8px" fill="#000000" x="56.264267440486684" y="3" font-family="sans-serif">DIRECTED</text></g><g class="relationship" transform="translate(-15.478665298733738 145.93143258944846) rotate(333.4966345989259)"><path class="outline" fill="#A5ABB6" stroke="none" d="M 25 0.5 L 33.81040170589325 0.5 L 33.81040170589325 -0.5 L 25 -0.5 Z M 79.37290170589324 0.5 L 88.1833034117865 0.5 L 88.1833034117865 3.5 L 95.1833034117865 0 L 88.1833034117865 -3.5 L 88.1833034117865 -0.5 L 79.37290170589324 -0.5 Z"/><text text-anchor="middle" pointer-events="none" font-size="8px" fill="#000000" x="56.59165170589325" y="3" font-family="sans-serif">ACTED_IN</text></g><g class="relationship" transform="translate(56.79904590333741 207.64223849899517) rotate(287.0052329790497)"><path class="outline" fill="#A5ABB6" stroke="none" d="M 25 0.5 L 34.026863665092705 0.5 L 34.026863665092705 -0.5 L 25 -0.5 Z M 79.5893636650927 0.5 L 88.61622733018541 0.5 L 88.61622733018541 3.5 L 95.61622733018541 0 L 88.61622733018541 -3.5 L 88.61622733018541 -0.5 L 79.5893636650927 -0.5 Z"/><text text-anchor="middle" pointer-events="none" font-size="8px" fill="#000000" x="56.808113665092705" y="3" font-family="sans-serif">ACTED_IN</text></g></g><g class="layer nodes"><g class="node" transform="translate(92.07435260952694,92.29958796524323)"><circle class="outline" cx="0" cy="0" r="25" fill="#57C7E3" stroke="#23b3d7" stroke-width="2px"/><text text-anchor="middle" pointer-events="none" font-family="sans-serif" dy="1.5625" font-size="25" fill="#2A2C34"/><text text-anchor="middle" pointer-events="none" font-family="sans-serif" dy="1.5625" font-size="25" fill="#2A2C34"/><text text-anchor="middle" pointer-events="none" font-family="sans-serif" dy="1.5625" font-size="25" fill="#2A2C34"/><text text-anchor="middle" pointer-events="none" x="0" y="-5" font-size="10px" fill="#2A2C34" font-family="sans-serif"> Captain</text><text text-anchor="middle" pointer-events="none" x="0" y="5" font-size="10px" fill="#2A2C34" font-family="sans-serif"> America:</text><text text-anchor="middle" pointer-events="none" x="0" y="15" font-size="10px" fill="#2A2C34" font-family="sans-serif"> The Fi…</text></g><g class="node" transform="translate(143.72476787699267,201.0487123478493)"><circle class="outline" cx="0" cy="0" r="25" fill="#F79767" stroke="#f36924" stroke-width="2px"/><text text-anchor="middle" pointer-events="none" font-family="sans-serif" dy="1.5625" font-size="25" fill="#FFFFFF"/><text text-anchor="middle" pointer-events="none" font-family="sans-serif" dy="1.5625" font-size="25" fill="#FFFFFF"/><text text-anchor="middle" pointer-events="none" x="0" y="0" font-size="10px" fill="#FFFFFF" font-family="sans-serif"> Hugo</text><text text-anchor="middle" pointer-events="none" x="0" y="10" font-size="10px" fill="#FFFFFF" font-family="sans-serif"> Weaving</text></g><g class="node" transform="translate(202.0582656236857,141.30006643533278)"><circle class="outline" cx="0" cy="0" r="25" fill="#F79767" stroke="#f36924" stroke-width="2px"/><text text-anchor="middle" pointer-events="none" font-family="sans-serif" dy="1.5625" font-size="25" fill="#FFFFFF"/><text text-anchor="middle" pointer-events="none" font-family="sans-serif" dy="1.5625" font-size="25" fill="#FFFFFF"/><text text-anchor="middle" pointer-events="none" x="0" y="0" font-size="10px" fill="#FFFFFF" font-family="sans-serif"> Hayley</text><text text-anchor="middle" pointer-events="none" x="0" y="10" font-size="10px" fill="#FFFFFF" font-family="sans-serif"> Atwell</text></g><g class="node" transform="translate(206.56047293864165,54.24189960568766)"><circle class="outline" cx="0" cy="0" r="25" fill="#F79767" stroke="#f36924" stroke-width="2px"/><text text-anchor="middle" pointer-events="none" font-family="sans-serif" dy="1.5625" font-size="25" fill="#FFFFFF"/><text text-anchor="middle" pointer-events="none" font-family="sans-serif" dy="1.5625" font-size="25" fill="#FFFFFF"/><text text-anchor="middle" pointer-events="none" x="0" y="0" font-size="10px" fill="#FFFFFF" font-family="sans-serif"> Stephen</text><text text-anchor="middle" pointer-events="none" x="0" y="10" font-size="10px" fill="#FFFFFF" font-family="sans-serif"> McFeely</text></g><g class="node" transform="translate(143.14504917739126,-16.5271089224832)"><circle class="outline" cx="0" cy="0" r="25" fill="#F79767" stroke="#f36924" stroke-width="2px"/><text text-anchor="middle" pointer-events="none" font-family="sans-serif" dy="1.5625" font-size="25" fill="#FFFFFF"/><text text-anchor="middle" pointer-events="none" font-family="sans-serif" dy="1.5625" font-size="25" fill="#FFFFFF"/><text text-anchor="middle" pointer-events="none" x="0" y="0" font-size="10px" fill="#FFFFFF" font-family="sans-serif"> Chris</text><text text-anchor="middle" pointer-events="none" x="0" y="10" font-size="10px" fill="#FFFFFF" font-family="sans-serif"> Evans</text></g><g class="node" transform="translate(46.87673010220717,-18.368402365079362)"><circle class="outline" cx="0" cy="0" r="25" fill="#F79767" stroke="#f36924" stroke-width="2px"/><text text-anchor="middle" pointer-events="none" font-family="sans-serif" dy="1.5625" font-size="25" fill="#FFFFFF"/><text text-anchor="middle" pointer-events="none" x="0" y="5" font-size="10px" fill="#FFFFFF" font-family="sans-serif"> Christop…</text></g><g class="node" transform="translate(-19.613768336349718,49.72219619013221)"><circle class="outline" cx="0" cy="0" r="25" fill="#F79767" stroke="#f36924" stroke-width="2px"/><text text-anchor="middle" pointer-events="none" font-family="sans-serif" dy="1.5625" font-size="25" fill="#FFFFFF"/><text text-anchor="middle" pointer-events="none" font-family="sans-serif" dy="1.5625" font-size="25" fill="#FFFFFF"/><text text-anchor="middle" pointer-events="none" x="0" y="0" font-size="10px" fill="#FFFFFF" font-family="sans-serif"> Joe</text><text text-anchor="middle" pointer-events="none" x="0" y="10" font-size="10px" fill="#FFFFFF" font-family="sans-serif"> Johnston</text></g><g class="node" transform="translate(-15.478665298733738,145.93143258944846)"><circle class="outline" cx="0" cy="0" r="25" fill="#F79767" stroke="#f36924" stroke-width="2px"/><text text-anchor="middle" pointer-events="none" font-family="sans-serif" dy="1.5625" font-size="25" fill="#FFFFFF"/><text text-anchor="middle" pointer-events="none" font-family="sans-serif" dy="1.5625" font-size="25" fill="#FFFFFF"/><text text-anchor="middle" pointer-events="none" font-family="sans-serif" dy="1.5625" font-size="25" fill="#FFFFFF"/><text text-anchor="middle" pointer-events="none" x="0" y="-5" font-size="10px" fill="#FFFFFF" font-family="sans-serif"> Samuel</text><text text-anchor="middle" pointer-events="none" x="0" y="5" font-size="10px" fill="#FFFFFF" font-family="sans-serif"> L.</text><text text-anchor="middle" pointer-events="none" x="0" y="15" font-size="10px" fill="#FFFFFF" font-family="sans-serif"> Jackson</text></g><g class="node" transform="translate(56.79904590333741,207.64223849899517)"><circle class="outline" cx="0" cy="0" r="25" fill="#F79767" stroke="#f36924" stroke-width="2px"/><text text-anchor="middle" pointer-events="none" font-family="sans-serif" dy="1.5625" font-size="25" fill="#FFFFFF"/><text text-anchor="middle" pointer-events="none" x="0" y="5" font-size="10px" fill="#FFFFFF" font-family="sans-serif"> Sebastian</text></g></g></svg>